<svg width="56" height="56" viewBox="0 0 56 56" fill="none" xmlns="http://www.w3.org/2000/svg">
<g clip-path="url(#clip0_590_4274)">
<path d="M18.375 35C24.6572 35 29.75 29.9072 29.75 23.625C29.75 17.3428 24.6572 12.25 18.375 12.25C12.0928 12.25 7 17.3428 7 23.625C7 29.9072 12.0928 35 18.375 35Z" stroke="#00CC66" stroke-width="2" stroke-linecap="round" stroke-linejoin="round"/>
<path d="M2.23828 43.7499C3.98629 41.0623 6.3779 38.8538 9.19599 37.325C12.0141 35.7961 15.1694 34.9954 18.3755 34.9954C21.5816 34.9954 24.7369 35.7961 27.555 37.325C30.373 38.8538 32.7647 41.0623 34.5127 43.7499" stroke="#00CC66" stroke-width="2" stroke-linecap="round" stroke-linejoin="round"/>
<path d="M37.625 35C40.8309 34.9981 43.9865 35.7976 46.8048 37.3257C49.623 38.8539 52.0147 41.0622 53.7622 43.75" stroke="#00CC66" stroke-width="2" stroke-linecap="round" stroke-linejoin="round"/>
<path d="M33.4014 13.0594C34.9574 12.4388 36.6312 12.1695 38.3034 12.2708C39.9755 12.3721 41.6046 12.8415 43.0743 13.6455C44.544 14.4494 45.818 15.568 46.8052 16.9214C47.7925 18.2748 48.4686 19.8296 48.7853 21.4745C49.102 23.1195 49.0514 24.8142 48.6373 26.4374C48.2231 28.0606 47.4555 29.5722 46.3893 30.8644C45.3232 32.1565 43.9848 33.1972 42.4698 33.9121C40.9548 34.6271 39.3006 34.9985 37.6254 35" stroke="#00CC66" stroke-width="2" stroke-linecap="round" stroke-linejoin="round"/>
</g>
<defs>
<clipPath id="clip0_590_4274">
<rect width="56" height="56" fill="white"/>
</clipPath>
</defs>
</svg>
