<svg xmlns="http://www.w3.org/2000/svg" width="167" height="40" fill="none"><rect width="18.75" height="19.608" x="11.917" y="9.804" fill="#0C6" opacity=".5" rx="9.375"/><path fill="#fff" d="M7.537 31.654c2.117-2.669 7.72-8.303 13.194-9.492-.726 2.187-2.007 7.482-1.329 11.171 1.27-2.927 6.094-9.67 15.222-13.223 1.087-.746 2.92-3.786 1.56-9.986-.167-.164-1.335-.684-4.683-1.455-.448-.16-1.625-.724-2.75-1.695-1.406-1.213-10.167 1.45-12.18 3.038-1.456-.271-4.601-.337-5.533 1.569-.932 1.905.036 2.72.637 2.89-1.602 1.081-4.845 3.53-5.008 4.67 1.866-1.285 6.207-3.894 8.642-4.06-.729-1.162-1.417-3.489 1.656-3.497 2.734-1.541 8.74-4.443 10.884-3.725.937.54 2.9 1.628 3.267 1.648.458.026 2.63.3 2.653.566.01.115-.149.27-.323.442-.228.224-.482.474-.426.697.04.16.46.411.945.701.7.418 1.537.918 1.574 1.35.013.155.05.323.09.499.147.65.315 1.4-.662 1.963-.142.082-.291.172-.445.266-1.2.73-2.708 1.649-3.327-.195-.352-1.051-.364-1.996-.373-2.779-.009-.766-.016-1.376-.34-1.778-.655-.812-2.28-1.536-3.544-1.088-1.012.359-2.297 1.077-2.813 1.392.653.276 2.01.81 2.212.738.05-.017.17-.108.338-.236.7-.531 2.23-1.69 2.837-.719.754 1.205.906 1.46.404 2.442-.09.177-.21.384-.34.61-.593 1.031-1.409 2.45-.712 3.101.849.795 3.232 1.25 4.704.18a54.1 54.1 0 0 0 2.203-1.671c-.106 1.059-.665 3.207-2.061 3.333-1.745.157-7.477 1.677-8.26 2.417-.01-1.115.144-3.656.82-4.896-4.079.545-13.535 4.271-18.733 14.812Z"/><path fill="#fff" d="M23.148 12.3c-.923.641-2.973 2.572-3.794 5.164 1.818-.833 5.811-2.425 7.244-2.125-.986-.358-3.284-.937-4.593-.39-.006-.335.213-1.333 1.143-2.649Zm-4.728 2.028c.312-.208.448-.562.304-.79-.144-.23-.514-.246-.826-.037-.313.208-.45.562-.306.79.145.23.515.245.827.037Zm-.394 2.785c.134.213-.01.554-.323.762-.313.209-.674.206-.808-.007-.134-.212.01-.554.323-.762.313-.208.674-.205.808.007Zm-3.24 1.081c.418-.28.612-.736.433-1.02-.18-.284-.664-.289-1.082-.01-.418.279-.612.735-.433 1.02.18.284.664.288 1.082.01Zm-3.663.668c.218.345.017.875-.448 1.184-.464.31-1.017.282-1.234-.062-.217-.344-.016-.875.449-1.184.464-.31 1.016-.282 1.233.062Zm2.332 2.703c.352-.235.495-.65.32-.926-.174-.277-.6-.312-.953-.077-.351.235-.495.65-.32.926.174.277.6.311.953.077Zm-3.077 2.538c.2.318.055.78-.325 1.034-.38.253-.85.2-1.05-.117-.2-.318-.055-.78.325-1.034.38-.253.85-.2 1.05.117Zm2.755 5.484c.407-.272.592-.724.413-1.009-.18-.285-.656-.296-1.064-.024-.408.272-.593.724-.413 1.009.18.285.656.296 1.064.024Zm4.553-1.637c.207.327-.035.866-.541 1.204-.506.337-1.083.344-1.29.016-.207-.328.036-.867.541-1.204.506-.337 1.084-.345 1.29-.017Zm.91-2.795c.454-.303.672-.788.485-1.084-.186-.296-.706-.29-1.16.013-.454.303-.671.788-.485 1.084.187.296.706.29 1.16-.013Zm29.196.345V15h4.8c.96 0 1.785.155 2.475.465.7.31 1.24.76 1.62 1.35.38.58.57 1.27.57 2.07 0 .79-.19 1.475-.57 2.055-.38.58-.92 1.03-1.62 1.35-.69.31-1.515.465-2.475.465h-3.15l1.32-1.29V25.5h-2.97Zm2.97-3.72-1.32-1.365h2.97c.62 0 1.08-.135 1.38-.405.31-.27.465-.645.465-1.125 0-.49-.155-.87-.465-1.14-.3-.27-.76-.405-1.38-.405h-2.97l1.32-1.365v5.805Zm9.902 3.72v-8.805l.66.66h-3.885V15h9.36v2.355h-3.87l.66-.66V25.5h-2.925Zm14.089-4.2v-2.19h4.95v2.19h-4.95Zm1.41-6.51c.81 0 1.55.135 2.22.405.67.26 1.25.635 1.74 1.125.5.49.885 1.07 1.155 1.74.28.66.42 1.39.42 2.19s-.14 1.535-.42 2.205a5.082 5.082 0 0 1-1.155 1.725c-.49.49-1.07.87-1.74 1.14-.67.26-1.41.39-2.22.39-.98 0-1.855-.17-2.625-.51-.77-.35-1.41-.84-1.92-1.47l1.875-1.71c.34.4.715.705 1.125.915.42.21.885.315 1.395.315.4 0 .765-.07 1.095-.21.33-.14.61-.34.84-.6.24-.27.42-.59.54-.96.13-.37.195-.78.195-1.23 0-.45-.065-.86-.195-1.23-.12-.37-.3-.685-.54-.945-.23-.27-.51-.475-.84-.615-.33-.14-.695-.21-1.095-.21-.51 0-.975.105-1.395.315a3.69 3.69 0 0 0-1.125.915l-1.875-1.71c.51-.64 1.15-1.13 1.92-1.47.77-.34 1.645-.51 2.625-.51ZM89.93 25.5l-2.955-4.995 2.385-1.41 3.915 6.405H89.93Zm-6.69 0V15h2.955v10.5H83.24Zm2.1-4.02v-2.4h3.81v2.4h-3.81Zm4.305-.915-2.745-.3L90.125 15h3.12l-3.6 5.565Zm9.639 5.145c-.83 0-1.6-.13-2.31-.39-.7-.27-1.31-.65-1.83-1.14a5.353 5.353 0 0 1-1.2-1.725 5.492 5.492 0 0 1-.435-2.205c0-.8.145-1.53.435-2.19.29-.67.69-1.25 1.2-1.74.52-.49 1.13-.865 1.83-1.125.71-.27 1.48-.405 2.31-.405.97 0 1.835.17 2.595.51.77.34 1.41.83 1.92 1.47l-1.89 1.71a3.69 3.69 0 0 0-1.125-.915 2.86 2.86 0 0 0-1.35-.315c-.43 0-.825.07-1.185.21-.36.14-.67.345-.93.615-.25.26-.45.575-.6.945-.14.37-.21.78-.21 1.23 0 .45.07.86.21 1.23.15.37.35.69.6.96.26.26.57.46.93.6.36.14.755.21 1.185.21.5 0 .95-.105 1.35-.315a3.69 3.69 0 0 0 1.125-.915l1.89 1.71c-.51.63-1.15 1.12-1.92 1.47-.76.34-1.625.51-2.595.51Zm5.856-.21V15h9.855v10.5h-2.94v-8.805l.66.66h-5.295l.645-.66V25.5h-2.925Zm12.1 0V15h4.8c.96 0 1.785.155 2.475.465.7.31 1.24.76 1.62 1.35.38.58.57 1.27.57 2.07 0 .79-.19 1.475-.57 2.055-.38.58-.92 1.03-1.62 1.35-.69.31-1.515.465-2.475.465h-3.15l1.32-1.29V25.5h-2.97Zm2.97-3.72-1.32-1.365h2.97c.62 0 1.08-.135 1.38-.405.31-.27.465-.645.465-1.125 0-.49-.155-.87-.465-1.14-.3-.27-.76-.405-1.38-.405h-2.97l1.32-1.365v5.805Zm10.571-2.715h4.875v2.22h-4.875v-2.22Zm.21 4.14h5.49V25.5h-8.43V15h8.235v2.295h-5.295v5.91Zm12.297 2.505c-.83 0-1.6-.13-2.31-.39-.7-.27-1.31-.65-1.83-1.14a5.353 5.353 0 0 1-1.2-1.725 5.492 5.492 0 0 1-.435-2.205c0-.8.145-1.53.435-2.19.29-.67.69-1.25 1.2-1.74.52-.49 1.13-.865 1.83-1.125.71-.27 1.48-.405 2.31-.405.97 0 1.835.17 2.595.51.77.34 1.41.83 1.92 1.47l-1.89 1.71a3.69 3.69 0 0 0-1.125-.915 2.86 2.86 0 0 0-1.35-.315c-.43 0-.825.07-1.185.21-.36.14-.67.345-.93.615-.25.26-.45.575-.6.945-.14.37-.21.78-.21 1.23 0 .45.07.86.21 1.23.15.37.35.69.6.96.26.26.57.46.93.6.36.14.755.21 1.185.21.5 0 .95-.105 1.35-.315a3.69 3.69 0 0 0 1.125-.915l1.89 1.71c-.51.63-1.15 1.12-1.92 1.47-.76.34-1.625.51-2.595.51Zm10.752 0c-.83 0-1.6-.13-2.31-.39-.7-.27-1.31-.65-1.83-1.14a5.353 5.353 0 0 1-1.2-1.725 5.492 5.492 0 0 1-.435-2.205c0-.8.145-1.53.435-2.19.29-.67.69-1.25 1.2-1.74.52-.49 1.13-.865 1.83-1.125.71-.27 1.48-.405 2.31-.405.97 0 1.835.17 2.595.51.77.34 1.41.83 1.92 1.47l-1.89 1.71a3.69 3.69 0 0 0-1.125-.915 2.86 2.86 0 0 0-1.35-.315c-.43 0-.825.07-1.185.21-.36.14-.67.345-.93.615-.25.26-.45.575-.6.945-.14.37-.21.78-.21 1.23 0 .45.07.86.21 1.23.15.37.35.69.6.96.26.26.57.46.93.6.36.14.755.21 1.185.21.5 0 .95-.105 1.35-.315a3.69 3.69 0 0 0 1.125-.915l1.89 1.71c-.51.63-1.15 1.12-1.92 1.47-.76.34-1.625.51-2.595.51Z"/></svg>