<svg width="50" height="64" viewBox="0 0 50 64" fill="none" xmlns="http://www.w3.org/2000/svg">
<g clip-path="url(#clip0_659_28920)">
<path fill-rule="evenodd" clip-rule="evenodd" d="M48.4248 1.49285V51.6099C48.4248 54.8922 45.7605 57.5483 42.4679 57.5483H33.5257C28.8318 57.5483 25.0338 60.434 25.0338 64C25.0338 60.434 21.2358 57.5483 16.5421 57.5483H7.60003C4.30741 57.5483 1.64291 54.8923 1.64291 51.6099V1.49285H48.4248ZM49.9177 0H48.4248H1.64291H0.150024V1.49285V51.6099C0.150024 53.597 0.925267 55.4641 2.33277 56.8672C3.73913 58.2691 5.60972 59.0412 7.60003 59.0412H16.5421C18.488 59.0412 20.3003 59.6038 21.6449 60.6256C22.8676 61.5545 23.5409 62.7529 23.5409 64H26.5266C26.5266 62.753 27.1999 61.5546 28.4225 60.6256C29.7674 59.6039 31.5796 59.0412 33.5255 59.0412H42.4677C44.458 59.0412 46.3286 58.2691 47.7349 56.8672C49.1424 55.4641 49.9175 53.5969 49.9175 51.6099V1.49285V0H49.9177Z" fill="black"/>
<path fill-rule="evenodd" clip-rule="evenodd" d="M24.3671 64C24.3671 60.8085 20.8554 58.2119 16.5389 58.2119H7.59684C3.9462 58.2119 0.976196 55.2502 0.976196 51.6098V0.829346H49.0851V51.6098C49.0851 55.2502 46.1151 58.2119 42.4646 58.2119H33.5224C29.2059 58.2119 25.6941 60.8085 25.6941 64H24.3671Z" fill="#0074C1"/>
<path fill-rule="evenodd" clip-rule="evenodd" d="M48.423 1.49275V51.6098C48.423 54.8922 45.7586 57.5483 42.466 57.5483H33.5238C28.83 57.5483 25.032 60.434 25.032 64C25.032 60.434 21.234 57.5483 16.5403 57.5483H7.59822C4.30554 57.5483 1.6411 54.8923 1.6411 51.6098V1.49275H48.423ZM49.75 0.165771H48.423H0.314087V51.6098C0.314087 53.5526 1.072 55.378 2.44801 56.7497C3.82302 58.1204 5.65204 58.8753 7.59816 58.8753H16.5402C18.5221 58.8753 20.3699 59.45 21.7435 60.4935C23.0083 61.4546 23.7049 62.6999 23.7049 64H26.3589C26.3589 62.6998 27.0555 61.4546 28.3204 60.4935C29.6939 59.45 31.5418 58.8753 33.5237 58.8753H42.4658C44.4119 58.8753 46.2409 58.1204 47.6159 56.7497C48.992 55.378 49.7498 53.5526 49.7498 51.6098L49.7497 1.49275V0.165771H49.75Z" fill="white"/>
<path d="M23.6129 63.917H26.4483" stroke="black" stroke-width="0.166124"/>
<path fill-rule="evenodd" clip-rule="evenodd" d="M21.9184 37.3565C21.1927 36.5271 21.0479 35.7361 20.5917 35.1763C20.1356 34.6165 19.0982 34.2171 19.0982 33.8232C19.0982 33.4292 20.3119 33.3717 21.0291 33.5569C21.718 33.7349 22.0184 33.9413 22.6372 34.4745C23.2374 34.9916 23.8718 35.9955 24.1888 36.3613C24.5093 36.7312 25.4558 37.4467 25.8476 37.8335C26.2237 38.205 26.7799 38.9019 26.9569 38.8391C27.2782 38.7251 27.572 37.2253 28.0282 36.5618C28.4277 35.9806 29.7975 35.2555 30.2536 34.8201C30.7098 34.3847 31.5651 32.8417 31.8502 32.7588C32.109 32.6835 32.6897 34.2049 32.2545 35.7187C32.016 36.548 29.8804 38.2489 29.6523 38.8084C29.4242 39.3679 29.4884 39.7455 29.3413 40.1558C29.1702 40.6327 28.5896 40.9386 28.657 41.1304C28.6892 41.2217 29.4242 41.2755 29.6523 41.2755C29.8804 41.2755 31.1193 41.0422 31.2658 41.1755C31.3783 41.278 31.0521 41.9911 30.6579 42.3018C30.0463 42.7837 30.3366 43.2865 30.2536 43.5146C30.1707 43.7427 29.2168 44.1404 28.4083 44.1573C25.4433 44.2196 23.482 42.0131 21.9185 41.5656C20.4152 41.1352 20.4576 41.3585 19.8036 41.2804C19.1089 41.1975 19.1815 41.0886 18.7461 40.9434C18.3107 40.7983 17.191 41.0056 17.191 40.7154C17.191 40.4251 17.7301 40.591 18.2692 40.3629C18.8083 40.1348 18.7748 39.9412 19.1124 39.734C19.4166 39.5474 19.9487 39.5957 20.239 39.7201C20.5292 39.8445 21.9185 40.5443 22.499 40.6688C23.0796 40.7932 24.4637 41.1882 24.5517 40.7777C24.6346 40.3906 24.1646 39.6995 23.4943 38.8908C22.9129 38.1896 21.9184 37.3565 21.9184 37.3565Z" fill="white"/>
<path fill-rule="evenodd" clip-rule="evenodd" d="M10.5357 27.4315C9.80995 26.6022 9.66511 25.8112 9.20896 25.2514C8.75281 24.6915 7.71545 24.2921 7.71545 23.8981C7.71545 23.5042 8.92913 23.4466 9.64637 23.6319C10.3353 23.8099 10.6357 24.0163 11.2545 24.5494C11.8547 25.0666 12.489 26.0704 12.806 26.4363C13.1265 26.8061 14.0731 27.5217 14.4648 27.9085C14.8409 28.2799 15.3971 28.9769 15.5741 28.9141C15.8955 28.8 16.1892 27.3002 16.6454 26.6368C17.0449 26.0555 18.4147 25.3305 18.8708 24.8951C19.327 24.4596 20.1823 22.9167 20.4674 22.8337C20.7262 22.7584 21.3069 24.2798 20.8717 25.7936C20.6332 26.623 18.4976 28.3239 18.2695 28.8834C18.0414 29.4429 18.1056 29.8205 17.9585 30.2308C17.7874 30.7077 17.2068 31.0135 17.2743 31.2053C17.3064 31.2967 18.0414 31.3504 18.2695 31.3504C18.4976 31.3504 19.7365 31.1171 19.883 31.2505C19.9955 31.3529 19.6693 32.0661 19.2752 32.3769C18.6635 32.859 18.9537 33.3617 18.8708 33.5898C18.7879 33.8179 17.834 34.2156 17.0255 34.2326C14.0604 34.2948 12.0992 32.0882 10.5357 31.6407C9.03238 31.2104 9.07476 31.4337 8.42072 31.3556C7.72612 31.2726 7.7987 31.1637 7.3633 31.0186C6.9279 30.8735 5.80823 31.0808 5.80823 30.7905C5.80823 30.5003 6.34731 30.6661 6.88643 30.438C7.42552 30.2099 7.39202 30.0163 7.72963 29.8091C8.03376 29.6225 8.5659 29.6709 8.85618 29.7953C9.14643 29.9197 10.5357 30.6195 11.1162 30.7439C11.6968 30.8683 13.0809 31.2633 13.1689 30.8528C13.2518 30.4658 12.7818 29.7746 12.1115 28.966C11.53 28.2646 10.5357 27.4315 10.5357 27.4315Z" fill="white"/>
<path fill-rule="evenodd" clip-rule="evenodd" d="M33.3501 27.4316C32.6244 26.6022 32.4795 25.8112 32.0234 25.2514C31.5672 24.6916 30.5299 24.2922 30.5299 23.8983C30.5299 23.5043 31.7436 23.4468 32.4607 23.632C33.1497 23.81 33.45 24.0164 34.0689 24.5496C34.6691 25.0667 35.3035 26.0706 35.6205 26.4364C35.9409 26.8062 36.8875 27.5218 37.2792 27.9086C37.6554 28.2801 38.2115 28.977 38.3885 28.9142C38.7099 28.8 39.0037 27.3002 39.4598 26.6368C39.8593 26.0555 41.2291 25.3305 41.6853 24.8951C42.1414 24.4596 42.9968 22.9167 43.2818 22.8337C43.5407 22.7584 44.1213 24.2798 43.6861 25.7936C43.4477 26.623 41.312 28.3239 41.084 28.8834C40.8559 29.4429 40.9201 29.8205 40.773 30.2308C40.6019 30.7077 40.0213 31.0135 40.0887 31.2053C40.1208 31.2967 40.8559 31.3504 41.084 31.3504C41.312 31.3504 42.551 31.1171 42.6974 31.2505C42.81 31.3529 42.4838 32.0661 42.0896 32.3768C41.4779 32.8589 41.7682 33.3616 41.6853 33.5897C41.6024 33.8178 40.6484 34.2155 39.8399 34.2325C36.8749 34.2948 34.9136 32.0882 33.3501 31.6407C31.8468 31.2104 31.8892 31.4337 31.2352 31.3556C30.5406 31.2726 30.6131 31.1637 30.1777 31.0186C29.7423 30.8735 28.6227 31.0808 28.6227 30.7905C28.6227 30.5003 29.1618 30.6661 29.7009 30.438C30.24 30.2099 30.2065 30.0163 30.5441 29.8091C30.8482 29.6225 31.3804 29.6709 31.6706 29.7953C31.9609 29.9197 33.3501 30.6195 33.9307 30.7439C34.5112 30.8683 35.8954 31.2633 35.9833 30.8528C36.0663 30.4658 35.5964 29.7746 34.9259 28.966C34.3445 28.2646 33.3501 27.4316 33.3501 27.4316Z" fill="white"/>
<path fill-rule="evenodd" clip-rule="evenodd" d="M10.5357 47.1707C9.80995 46.3414 9.66511 45.5504 9.20896 44.9906C8.75281 44.4307 7.71545 44.0313 7.71545 43.6374C7.71545 43.2435 8.92913 43.1859 9.64637 43.3712C10.3353 43.5491 10.6357 43.7555 11.2545 44.2887C11.8547 44.8058 12.489 45.8097 12.806 46.1755C13.1265 46.5454 14.0731 47.2609 14.4648 47.6477C14.8409 48.0192 15.3971 48.7161 15.5741 48.6533C15.8955 48.5393 16.1892 47.0395 16.6454 46.376C17.0449 45.7948 18.4147 45.0697 18.8708 44.6343C19.327 44.1989 20.1823 42.6559 20.4674 42.573C20.7262 42.4977 21.3069 44.0191 20.8717 45.5329C20.6332 46.3622 18.4976 48.0631 18.2695 48.6226C18.0414 49.1821 18.1056 49.5597 17.9585 49.97C17.7874 50.4469 17.2068 50.7528 17.2743 50.9445C17.3064 51.0359 18.0414 51.0897 18.2695 51.0897C18.4976 51.0897 19.7365 50.8564 19.883 50.9897C19.9955 51.0922 19.6693 51.8053 19.2752 52.116C18.6635 52.5981 18.9537 53.1009 18.8708 53.329C18.7879 53.5571 17.834 53.9547 17.0255 53.9717C14.0604 54.034 12.0992 51.8275 10.5357 51.3799C9.03238 50.9496 9.07476 51.1729 8.42072 51.0948C7.72612 51.0119 7.7987 50.903 7.3633 50.7578C6.9279 50.6127 5.80823 50.82 5.80823 50.5298C5.80823 50.2395 6.34731 50.4054 6.88643 50.1773C7.42552 49.9492 7.39202 49.7555 7.72963 49.5484C8.03376 49.3618 8.5659 49.4101 8.85618 49.5345C9.14643 49.6589 10.5357 50.3587 11.1162 50.4832C11.6968 50.6076 13.0809 51.0026 13.1689 50.5921C13.2518 50.205 12.7818 49.5139 12.1115 48.7052C11.53 48.0039 10.5357 47.1707 10.5357 47.1707Z" fill="white"/>
<path fill-rule="evenodd" clip-rule="evenodd" d="M33.3501 47.1706C32.6244 46.3412 32.4796 45.5502 32.0235 44.9904C31.5673 44.4306 30.5299 44.0312 30.5299 43.6373C30.5299 43.2433 31.7436 43.1857 32.4608 43.371C33.1496 43.549 33.4501 43.7554 34.0689 44.2886C34.669 44.8057 35.3035 45.8096 35.6205 46.1754C35.9409 46.5452 36.8875 47.2608 37.2792 47.6476C37.6553 48.019 38.2115 48.716 38.3885 48.6532C38.7099 48.539 39.0037 47.0393 39.4598 46.3758C39.8593 45.7946 41.2291 45.0695 41.6853 44.6341C42.1414 44.1986 42.9968 42.6557 43.2818 42.5728C43.5407 42.4974 44.1213 44.0188 43.6861 45.5326C43.4477 46.362 41.312 48.0629 41.084 48.6224C40.8559 49.1819 40.9201 49.5595 40.773 49.9698C40.6019 50.4467 40.0213 50.7525 40.0887 50.9443C40.1208 51.0357 40.8559 51.0894 41.084 51.0894C41.312 51.0894 42.551 50.8561 42.6974 50.9895C42.81 51.092 42.4838 51.8051 42.0896 52.1158C41.4779 52.5979 41.7682 53.1007 41.6853 53.3287C41.6024 53.5568 40.6484 53.9545 39.8399 53.9715C36.8749 54.0338 34.9136 51.8272 33.3501 51.3797C31.8468 50.9494 31.8892 51.1727 31.2352 51.0946C30.5406 51.0116 30.6131 50.9027 30.1777 50.7576C29.7423 50.6125 28.6227 50.8198 28.6227 50.5295C28.6227 50.2393 29.1618 50.4051 29.7009 50.177C30.24 49.949 30.2066 49.7553 30.5441 49.5481C30.8482 49.3615 31.3804 49.4099 31.6706 49.5343C31.9609 49.6587 33.3501 50.3585 33.9307 50.4829C34.5112 50.6073 35.8954 51.0024 35.9833 50.5918C36.0663 50.2047 35.5963 49.5136 34.9259 48.705C34.3445 48.0037 33.3501 47.1706 33.3501 47.1706Z" fill="white"/>
<path fill-rule="evenodd" clip-rule="evenodd" d="M1.52307 1.49292V18.9058H2.88442L4.51204 20.3738L6.31595 18.9058L8.19266 20.1747L10.0587 18.7993L12.2981 20.1747L13.9814 18.9058L15.7124 20.3738L17.5005 18.9058L19.3719 20.3738L21.0651 18.9058L22.6928 20.1747L24.9423 18.4883L27.2268 20.1747L28.865 18.9058L30.5958 20.3738L32.3842 18.9058L34.2554 20.3738L35.9487 18.9058L37.6354 20.1747L39.8158 18.7993L41.7685 20.1747L43.5585 18.9058L45.3624 20.3738L46.99 18.9058H48.4225V1.49292H1.52307Z" fill="white"/>
<path fill-rule="evenodd" clip-rule="evenodd" d="M13.1688 9.73134H11.51L13.3623 8.15552L15.2422 9.73134L13.1688 11.5006L14.717 12.7827L10.1277 16.5874L5.53855 12.7827L7.08674 11.5006L5.01331 9.73134L6.89318 8.15552L8.74553 9.73134H7.08674L8.60725 10.9754L10.1277 9.73134L11.6483 10.9754L13.1688 9.73134Z" fill="#FF3300"/>
<path fill-rule="evenodd" clip-rule="evenodd" d="M28.0515 9.73134H26.3928L28.2451 8.15552L30.125 9.73134L28.0515 11.5006L29.5998 12.7827L25.0105 16.5874L20.4214 12.7827L21.9696 11.5006L19.8961 9.73134L21.776 8.15552L23.6283 9.73134H21.9696L23.4901 10.9754L25.0105 9.73134L26.5311 10.9754L28.0515 9.73134Z" fill="#0074C1"/>
<path fill-rule="evenodd" clip-rule="evenodd" d="M42.9245 9.73134H41.2658L43.1181 8.15552L44.998 9.73134L42.9245 11.5006L44.4729 12.7827L39.8836 16.5874L35.2943 12.7827L36.8426 11.5006L34.7692 9.73134L36.649 8.15552L38.5014 9.73134H36.8426L38.363 10.9754L39.8836 9.73134L41.4042 10.9754L42.9245 9.73134Z" fill="#FF3300"/>
<path fill-rule="evenodd" clip-rule="evenodd" d="M48.4222 17.6419H47.0588L45.4312 19.11L43.6272 17.6419L42.2899 18.8197L40.8657 17.6419L46.6577 12.7825L45.1095 11.5005L47.2382 9.7312L42.9809 6.10957L40.4651 8.15538V7.18777L42.5385 5.44605H41.0456L39.8845 6.44132L38.7233 5.44605H37.2305L39.3039 7.18777V8.15538L36.7881 6.10957L32.5307 9.7312L34.6594 11.5005L33.1113 12.7825L38.9033 17.6419L37.5691 18.8197L36.0174 17.6419L34.3242 19.11L32.453 17.6419L30.6646 19.11L28.9338 17.6419L27.5964 18.8197L25.9923 17.6419L31.7842 12.7825L30.2361 11.5005L32.3648 9.7312L28.1075 6.10957L25.5917 8.15538V7.18777L27.665 5.44605H26.1722L25.0111 6.44132L23.8499 5.44605H22.3571L24.4305 7.18777V8.15538L21.9148 6.10957L17.6573 9.7312L19.786 11.5005L18.2379 12.7825L24.0298 17.6419L22.6856 18.8197L21.1339 17.6419L19.4407 19.11L17.5693 17.6419L15.7811 19.11L14.0501 17.6419L12.7128 18.8197L11.1088 17.6419L16.9006 12.7825L15.3525 11.5005L17.4813 9.7312L13.2239 6.10957L10.708 8.15538V7.18777L12.7815 5.44605H11.2886L10.1274 6.44132L8.96627 5.44605H7.47345L9.54685 7.18777V8.15538L7.03114 6.10957L2.77374 9.7312L4.90236 11.5005L3.35426 12.7825L9.1462 17.6419L7.7221 18.8197L6.38476 17.6419L4.58085 19.11L2.95321 17.6419H1.64026V1.49268H48.4221L48.4222 17.6419Z" fill="#FF3300"/>
<path fill-rule="evenodd" clip-rule="evenodd" d="M22.3848 11.48H22.0842L21.9391 11.6251V13.8886H22.3848V11.48Z" fill="white" stroke="white" stroke-width="0.0830618"/>
<path fill-rule="evenodd" clip-rule="evenodd" d="M24.1537 11.48V15.0723H23.8945L23.6534 14.8311V13.2424H22.5934V12.6843L23.7441 11.48H24.1537Z" fill="white" stroke="white" stroke-width="0.0830618"/>
<path d="M25.4304 14.0743C25.9801 14.0743 26.4257 13.7018 26.4257 13.2423C26.4257 12.7829 25.9801 12.4104 25.4304 12.4104C24.8808 12.4104 24.4352 12.7829 24.4352 13.2423C24.4352 13.7018 24.8808 14.0743 25.4304 14.0743Z" fill="white" stroke="white" stroke-width="0.0830618"/>
<path fill-rule="evenodd" clip-rule="evenodd" d="M24.4332 13.2424C24.4332 11.9735 24.8787 11.5076 26.092 11.5076V11.8601C25.4536 11.8601 25.0978 12.074 25.0978 12.4578L24.4332 13.2424Z" fill="white"/>
<path d="M24.4332 13.2424C24.4332 11.9735 24.8787 11.5076 26.092 11.5076V11.8601C25.4536 11.8601 25.0978 12.074 25.0978 12.4578" stroke="white" stroke-width="0.0830618"/>
<path d="M27.2527 13.1438C27.8024 13.1438 28.2479 12.7714 28.2479 12.3119C28.2479 11.8524 27.8024 11.48 27.2527 11.48C26.703 11.48 26.2574 11.8524 26.2574 12.3119C26.2574 12.7714 26.703 13.1438 27.2527 13.1438Z" fill="white" stroke="white" stroke-width="0.0830618"/>
<path fill-rule="evenodd" clip-rule="evenodd" d="M28.2481 12.3118C28.2481 13.5806 27.8027 14.0466 26.5895 14.0466V13.6941C27.2279 13.6941 27.5836 13.4801 27.5836 13.0963L28.2481 12.3118Z" fill="white"/>
<path d="M28.2481 12.3118C28.2481 13.5806 27.8027 14.0466 26.5895 14.0466V13.6941C27.2279 13.6941 27.5836 13.4801 27.5836 13.0963" stroke="white" stroke-width="0.0830618"/>
<path fill-rule="evenodd" clip-rule="evenodd" d="M23.1227 12.8829H23.6526V12.1365L23.1227 12.6842V12.8829Z" fill="#0074C1"/>
<path d="M25.4295 13.6362C25.6853 13.6362 25.8927 13.4599 25.8927 13.2423C25.8927 13.0248 25.6853 12.8484 25.4295 12.8484C25.1738 12.8484 24.9664 13.0248 24.9664 13.2423C24.9664 13.4599 25.1738 13.6362 25.4295 13.6362Z" fill="#0074C1"/>
<path d="M27.2538 12.7058C27.5095 12.7058 27.7169 12.5295 27.7169 12.3119C27.7169 12.0943 27.5095 11.918 27.2538 11.918C26.998 11.918 26.7906 12.0943 26.7906 12.3119C26.7906 12.5295 26.998 12.7058 27.2538 12.7058Z" fill="#0074C1"/>
</g>
<defs>
<clipPath id="clip0_659_28920">
<rect width="49.8073" height="64" fill="white" transform="translate(0.126587)"/>
</clipPath>
</defs>
</svg>
