<svg width="52" height="64" viewBox="0 0 52 64" fill="none" xmlns="http://www.w3.org/2000/svg">
<g clip-path="url(#clip0_659_28924)">
<path fill-rule="evenodd" clip-rule="evenodd" d="M51.7059 0.0945244V53.2576C51.7059 56.0952 49.4141 58.4024 46.5959 58.4024H32.1164C28.9676 58.4024 26.3887 60.86 26.1695 63.9739H26.1393C25.92 60.86 23.3412 58.4024 20.1924 58.4024H5.71298C2.89461 58.4024 0.602661 56.0952 0.602661 53.2576V0.0945244H51.7059Z" fill="#F4F4F4"/>
<path fill-rule="evenodd" clip-rule="evenodd" d="M26.1542 39.9668C33.7493 39.9668 43.1176 42.9681 51.7058 42.9681V53.2576C51.7058 56.0952 49.4139 58.4024 46.5957 58.4024H32.1162C28.9675 58.4024 26.3885 60.86 26.1693 63.9739H26.1391C25.9198 60.86 23.341 58.4024 20.192 58.4024H5.71281C2.89444 58.4024 0.602661 56.0952 0.602661 53.2576V42.9681C8.98422 42.9681 18.5589 39.9668 26.1542 39.9668Z" fill="#006436"/>
<path d="M5.56106 47.4685C5.58465 47.42 5.59803 47.3654 5.59803 47.3079C5.59803 47.1042 5.43288 46.9392 5.22919 46.9392C5.02561 46.9392 4.86047 47.1042 4.86047 47.3079" stroke="#897B2B" stroke-width="0.225365" stroke-miterlimit="22.9256" stroke-linecap="round" stroke-linejoin="round"/>
<path d="M4.86047 47.3081V48.6428" stroke="#897B2B" stroke-width="0.225365" stroke-miterlimit="22.9256" stroke-linecap="round" stroke-linejoin="round"/>
<path d="M4.86147 47.3081C4.86147 47.1044 4.69649 46.9395 4.49281 46.9395C4.28922 46.9395 4.12415 47.1044 4.12415 47.3081C4.12415 47.3657 4.1374 47.4202 4.16088 47.4688" stroke="#897B2B" stroke-width="0.225365" stroke-miterlimit="22.9256" stroke-linecap="round" stroke-linejoin="round"/>
<path d="M10.2936 47.4688C10.317 47.4202 10.3304 47.3657 10.3304 47.3081C10.3304 47.1044 10.1653 46.9395 9.96174 46.9395C9.75803 46.9395 9.5929 47.1044 9.5929 47.3081" stroke="#897B2B" stroke-width="0.225365" stroke-miterlimit="22.9256" stroke-linecap="round" stroke-linejoin="round"/>
<path d="M9.5929 47.3079V48.6426" stroke="#897B2B" stroke-width="0.225365" stroke-miterlimit="22.9256" stroke-linecap="round" stroke-linejoin="round"/>
<path d="M9.59395 47.3081C9.59395 47.1044 9.42898 46.9395 9.22523 46.9395C9.02171 46.9395 8.85657 47.1044 8.85657 47.3081C8.85657 47.3657 8.86988 47.4202 8.89342 47.4688" stroke="#897B2B" stroke-width="0.225365" stroke-miterlimit="22.9256" stroke-linecap="round" stroke-linejoin="round"/>
<path d="M15.0258 47.4688C15.0493 47.4202 15.0627 47.3657 15.0627 47.3081C15.0627 47.1044 14.8976 46.9395 14.694 46.9395C14.4903 46.9395 14.3253 47.1044 14.3253 47.3081" stroke="#897B2B" stroke-width="0.225365" stroke-miterlimit="22.9256" stroke-linecap="round" stroke-linejoin="round"/>
<path d="M14.3253 47.3079V48.6426" stroke="#897B2B" stroke-width="0.225365" stroke-miterlimit="22.9256" stroke-linecap="round" stroke-linejoin="round"/>
<path d="M14.3246 47.3079C14.3246 47.1042 14.1594 46.9392 13.9558 46.9392C13.7522 46.9392 13.587 47.1042 13.587 47.3079C13.587 47.3654 13.6002 47.42 13.6239 47.4685" stroke="#897B2B" stroke-width="0.225365" stroke-miterlimit="22.9256" stroke-linecap="round" stroke-linejoin="round"/>
<path d="M19.7581 47.4688C19.7816 47.4202 19.7949 47.3657 19.7949 47.3081C19.7949 47.1044 19.63 46.9395 19.4263 46.9395C19.2225 46.9395 19.0577 47.1044 19.0577 47.3081" stroke="#897B2B" stroke-width="0.225365" stroke-miterlimit="22.9256" stroke-linecap="round" stroke-linejoin="round"/>
<path d="M19.0577 47.3079V48.6426" stroke="#897B2B" stroke-width="0.225365" stroke-miterlimit="22.9256" stroke-linecap="round" stroke-linejoin="round"/>
<path d="M19.0571 47.3081C19.0571 47.1044 18.8919 46.9395 18.6883 46.9395C18.4846 46.9395 18.3195 47.1044 18.3195 47.3081C18.3195 47.3657 18.3327 47.4202 18.3566 47.4688" stroke="#897B2B" stroke-width="0.225365" stroke-miterlimit="22.9256" stroke-linecap="round" stroke-linejoin="round"/>
<path d="M24.4888 47.4688C24.5122 47.4202 24.5256 47.3657 24.5256 47.3081C24.5256 47.1044 24.3606 46.9395 24.1569 46.9395C23.9532 46.9395 23.7882 47.1044 23.7882 47.3081" stroke="#897B2B" stroke-width="0.225365" stroke-miterlimit="22.9256" stroke-linecap="round" stroke-linejoin="round"/>
<path d="M23.7882 47.3079V48.6426" stroke="#897B2B" stroke-width="0.225365" stroke-miterlimit="22.9256" stroke-linecap="round" stroke-linejoin="round"/>
<path d="M23.7892 47.3081C23.7892 47.1044 23.6241 46.9395 23.4207 46.9395C23.2168 46.9395 23.0519 47.1044 23.0519 47.3081C23.0519 47.3657 23.065 47.4202 23.0887 47.4688" stroke="#897B2B" stroke-width="0.225365" stroke-miterlimit="22.9256" stroke-linecap="round" stroke-linejoin="round"/>
<path d="M29.2212 47.4688C29.2446 47.4202 29.258 47.3657 29.258 47.3081C29.258 47.1044 29.0929 46.9395 28.8893 46.9395C28.6856 46.9395 28.5206 47.1044 28.5206 47.3081" stroke="#897B2B" stroke-width="0.225365" stroke-miterlimit="22.9256" stroke-linecap="round" stroke-linejoin="round"/>
<path d="M28.5206 47.3079V48.6426" stroke="#897B2B" stroke-width="0.225365" stroke-miterlimit="22.9256" stroke-linecap="round" stroke-linejoin="round"/>
<path d="M28.5197 47.3079C28.5197 47.1042 28.3546 46.9392 28.151 46.9392C27.9473 46.9392 27.7823 47.1042 27.7823 47.3079C27.7823 47.3654 27.7954 47.42 27.8192 47.4685" stroke="#897B2B" stroke-width="0.225365" stroke-miterlimit="22.9256" stroke-linecap="round" stroke-linejoin="round"/>
<path d="M33.9536 47.4688C33.977 47.4202 33.9904 47.3657 33.9904 47.3081C33.9904 47.1044 33.8256 46.9395 33.6217 46.9395C33.4182 46.9395 33.2531 47.1044 33.2531 47.3081" stroke="#897B2B" stroke-width="0.225365" stroke-miterlimit="22.9256" stroke-linecap="round" stroke-linejoin="round"/>
<path d="M33.2531 47.3079V48.6426" stroke="#897B2B" stroke-width="0.225365" stroke-miterlimit="22.9256" stroke-linecap="round" stroke-linejoin="round"/>
<path d="M33.2521 47.3081C33.2521 47.1044 33.087 46.9395 32.8834 46.9395C32.6799 46.9395 32.5148 47.1044 32.5148 47.3081C32.5148 47.3657 32.528 47.4202 32.5516 47.4688" stroke="#897B2B" stroke-width="0.225365" stroke-miterlimit="22.9256" stroke-linecap="round" stroke-linejoin="round"/>
<path d="M38.6841 47.4688C38.7076 47.4202 38.7209 47.3657 38.7209 47.3081C38.7209 47.1044 38.5559 46.9395 38.3522 46.9395C38.1486 46.9395 37.9835 47.1044 37.9835 47.3081" stroke="#897B2B" stroke-width="0.225365" stroke-miterlimit="22.9256" stroke-linecap="round" stroke-linejoin="round"/>
<path d="M37.9835 47.3079V48.6426" stroke="#897B2B" stroke-width="0.225365" stroke-miterlimit="22.9256" stroke-linecap="round" stroke-linejoin="round"/>
<path d="M37.9845 47.3081C37.9845 47.1044 37.8194 46.9395 37.6159 46.9395C37.4123 46.9395 37.2472 47.1044 37.2472 47.3081C37.2472 47.3657 37.2604 47.4202 37.284 47.4688" stroke="#897B2B" stroke-width="0.225365" stroke-miterlimit="22.9256" stroke-linecap="round" stroke-linejoin="round"/>
<path d="M43.4165 47.4688C43.4399 47.4202 43.4533 47.3657 43.4533 47.3081C43.4533 47.1044 43.2883 46.9395 43.0846 46.9395C42.8811 46.9395 42.7159 47.1044 42.7159 47.3081" stroke="#897B2B" stroke-width="0.225365" stroke-miterlimit="22.9256" stroke-linecap="round" stroke-linejoin="round"/>
<path d="M42.7159 47.3079V48.6426" stroke="#897B2B" stroke-width="0.225365" stroke-miterlimit="22.9256" stroke-linecap="round" stroke-linejoin="round"/>
<path d="M42.715 47.3079C42.715 47.1042 42.5502 46.9392 42.3463 46.9392C42.1426 46.9392 41.9777 47.1042 41.9777 47.3079C41.9777 47.3654 41.9909 47.42 42.0145 47.4685" stroke="#897B2B" stroke-width="0.225365" stroke-miterlimit="22.9256" stroke-linecap="round" stroke-linejoin="round"/>
<path d="M48.1489 47.4688C48.1723 47.4202 48.1857 47.3657 48.1857 47.3081C48.1857 47.1044 48.0208 46.9395 47.817 46.9395C47.6135 46.9395 47.4484 47.1044 47.4484 47.3081" stroke="#897B2B" stroke-width="0.225365" stroke-miterlimit="22.9256" stroke-linecap="round" stroke-linejoin="round"/>
<path d="M47.4484 47.3079V48.6426" stroke="#897B2B" stroke-width="0.225365" stroke-miterlimit="22.9256" stroke-linecap="round" stroke-linejoin="round"/>
<path d="M47.4474 47.3081C47.4474 47.1044 47.2823 46.9395 47.0788 46.9395C46.8752 46.9395 46.7101 47.1044 46.7101 47.3081C46.7101 47.3657 46.7233 47.4202 46.7469 47.4688" stroke="#897B2B" stroke-width="0.225365" stroke-miterlimit="22.9256" stroke-linecap="round" stroke-linejoin="round"/>
<path d="M5.56106 55.1343C5.58465 55.0857 5.59803 55.0312 5.59803 54.9736C5.59803 54.7698 5.43288 54.6049 5.22919 54.6049C5.02561 54.6049 4.86047 54.7698 4.86047 54.9736" stroke="#897B2B" stroke-width="0.225365" stroke-miterlimit="22.9256" stroke-linecap="round" stroke-linejoin="round"/>
<path d="M4.86047 54.9734V56.3081" stroke="#897B2B" stroke-width="0.225365" stroke-miterlimit="22.9256" stroke-linecap="round" stroke-linejoin="round"/>
<path d="M4.86147 54.9736C4.86147 54.7698 4.69649 54.6049 4.49281 54.6049C4.28922 54.6049 4.12415 54.7698 4.12415 54.9736C4.12415 55.0312 4.1374 55.0857 4.16088 55.1343" stroke="#897B2B" stroke-width="0.225365" stroke-miterlimit="22.9256" stroke-linecap="round" stroke-linejoin="round"/>
<path d="M10.2936 55.1343C10.317 55.0857 10.3304 55.0312 10.3304 54.9736C10.3304 54.7698 10.1653 54.6049 9.96174 54.6049C9.75803 54.6049 9.5929 54.7698 9.5929 54.9736" stroke="#897B2B" stroke-width="0.225365" stroke-miterlimit="22.9256" stroke-linecap="round" stroke-linejoin="round"/>
<path d="M9.5929 54.9734V56.3081" stroke="#897B2B" stroke-width="0.225365" stroke-miterlimit="22.9256" stroke-linecap="round" stroke-linejoin="round"/>
<path d="M9.59395 54.9736C9.59395 54.7698 9.42898 54.6049 9.22523 54.6049C9.02171 54.6049 8.85657 54.7698 8.85657 54.9736C8.85657 55.0312 8.86988 55.0857 8.89342 55.1343" stroke="#897B2B" stroke-width="0.225365" stroke-miterlimit="22.9256" stroke-linecap="round" stroke-linejoin="round"/>
<path d="M15.0258 55.1343C15.0493 55.0857 15.0627 55.0312 15.0627 54.9736C15.0627 54.7698 14.8976 54.6049 14.694 54.6049C14.4903 54.6049 14.3253 54.7698 14.3253 54.9736" stroke="#897B2B" stroke-width="0.225365" stroke-miterlimit="22.9256" stroke-linecap="round" stroke-linejoin="round"/>
<path d="M14.3253 54.9734V56.3081" stroke="#897B2B" stroke-width="0.225365" stroke-miterlimit="22.9256" stroke-linecap="round" stroke-linejoin="round"/>
<path d="M14.3246 54.9736C14.3246 54.7698 14.1594 54.6049 13.9558 54.6049C13.7522 54.6049 13.587 54.7698 13.587 54.9736C13.587 55.0312 13.6002 55.0857 13.6239 55.1343" stroke="#897B2B" stroke-width="0.225365" stroke-miterlimit="22.9256" stroke-linecap="round" stroke-linejoin="round"/>
<path d="M19.7581 55.1343C19.7816 55.0857 19.7949 55.0312 19.7949 54.9736C19.7949 54.7698 19.63 54.6049 19.4263 54.6049C19.2225 54.6049 19.0577 54.7698 19.0577 54.9736" stroke="#897B2B" stroke-width="0.225365" stroke-miterlimit="22.9256" stroke-linecap="round" stroke-linejoin="round"/>
<path d="M19.0577 54.9734V56.3081" stroke="#897B2B" stroke-width="0.225365" stroke-miterlimit="22.9256" stroke-linecap="round" stroke-linejoin="round"/>
<path d="M19.0571 54.9736C19.0571 54.7698 18.8919 54.6049 18.6883 54.6049C18.4846 54.6049 18.3195 54.7698 18.3195 54.9736C18.3195 55.0312 18.3327 55.0857 18.3566 55.1343" stroke="#897B2B" stroke-width="0.225365" stroke-miterlimit="22.9256" stroke-linecap="round" stroke-linejoin="round"/>
<path d="M24.4888 55.1343C24.5122 55.0857 24.5256 55.0312 24.5256 54.9736C24.5256 54.7698 24.3606 54.6049 24.1569 54.6049C23.9532 54.6049 23.7882 54.7698 23.7882 54.9736" stroke="#897B2B" stroke-width="0.225365" stroke-miterlimit="22.9256" stroke-linecap="round" stroke-linejoin="round"/>
<path d="M23.7882 54.9734V56.3081" stroke="#897B2B" stroke-width="0.225365" stroke-miterlimit="22.9256" stroke-linecap="round" stroke-linejoin="round"/>
<path d="M23.7892 54.9736C23.7892 54.7698 23.6241 54.6049 23.4207 54.6049C23.2168 54.6049 23.0519 54.7698 23.0519 54.9736C23.0519 55.0312 23.065 55.0857 23.0887 55.1343" stroke="#897B2B" stroke-width="0.225365" stroke-miterlimit="22.9256" stroke-linecap="round" stroke-linejoin="round"/>
<path d="M29.2212 55.1343C29.2446 55.0857 29.258 55.0312 29.258 54.9736C29.258 54.7698 29.0929 54.6049 28.8893 54.6049C28.6856 54.6049 28.5206 54.7698 28.5206 54.9736" stroke="#897B2B" stroke-width="0.225365" stroke-miterlimit="22.9256" stroke-linecap="round" stroke-linejoin="round"/>
<path d="M28.5206 54.9734V56.3081" stroke="#897B2B" stroke-width="0.225365" stroke-miterlimit="22.9256" stroke-linecap="round" stroke-linejoin="round"/>
<path d="M28.5197 54.9736C28.5197 54.7698 28.3546 54.6049 28.151 54.6049C27.9473 54.6049 27.7823 54.7698 27.7823 54.9736C27.7823 55.0312 27.7954 55.0857 27.8192 55.1343" stroke="#897B2B" stroke-width="0.225365" stroke-miterlimit="22.9256" stroke-linecap="round" stroke-linejoin="round"/>
<path d="M33.9536 55.1343C33.977 55.0857 33.9904 55.0312 33.9904 54.9736C33.9904 54.7698 33.8256 54.6049 33.6217 54.6049C33.4182 54.6049 33.2531 54.7698 33.2531 54.9736" stroke="#897B2B" stroke-width="0.225365" stroke-miterlimit="22.9256" stroke-linecap="round" stroke-linejoin="round"/>
<path d="M33.2531 54.9734V56.3081" stroke="#897B2B" stroke-width="0.225365" stroke-miterlimit="22.9256" stroke-linecap="round" stroke-linejoin="round"/>
<path d="M33.2521 54.9736C33.2521 54.7698 33.087 54.6049 32.8834 54.6049C32.6799 54.6049 32.5148 54.7698 32.5148 54.9736C32.5148 55.0312 32.528 55.0857 32.5516 55.1343" stroke="#897B2B" stroke-width="0.225365" stroke-miterlimit="22.9256" stroke-linecap="round" stroke-linejoin="round"/>
<path d="M38.6841 55.1343C38.7076 55.0857 38.7209 55.0312 38.7209 54.9736C38.7209 54.7698 38.5559 54.6049 38.3522 54.6049C38.1486 54.6049 37.9835 54.7698 37.9835 54.9736" stroke="#897B2B" stroke-width="0.225365" stroke-miterlimit="22.9256" stroke-linecap="round" stroke-linejoin="round"/>
<path d="M37.9835 54.9734V56.3081" stroke="#897B2B" stroke-width="0.225365" stroke-miterlimit="22.9256" stroke-linecap="round" stroke-linejoin="round"/>
<path d="M37.9845 54.9736C37.9845 54.7698 37.8194 54.6049 37.6159 54.6049C37.4123 54.6049 37.2472 54.7698 37.2472 54.9736C37.2472 55.0312 37.2604 55.0857 37.284 55.1343" stroke="#897B2B" stroke-width="0.225365" stroke-miterlimit="22.9256" stroke-linecap="round" stroke-linejoin="round"/>
<path d="M43.4165 55.1343C43.4399 55.0857 43.4533 55.0312 43.4533 54.9736C43.4533 54.7698 43.2883 54.6049 43.0846 54.6049C42.8811 54.6049 42.7159 54.7698 42.7159 54.9736" stroke="#897B2B" stroke-width="0.225365" stroke-miterlimit="22.9256" stroke-linecap="round" stroke-linejoin="round"/>
<path d="M42.7159 54.9734V56.3081" stroke="#897B2B" stroke-width="0.225365" stroke-miterlimit="22.9256" stroke-linecap="round" stroke-linejoin="round"/>
<path d="M42.715 54.9736C42.715 54.7698 42.5502 54.6049 42.3463 54.6049C42.1426 54.6049 41.9777 54.7698 41.9777 54.9736C41.9777 55.0312 41.9909 55.0857 42.0145 55.1343" stroke="#897B2B" stroke-width="0.225365" stroke-miterlimit="22.9256" stroke-linecap="round" stroke-linejoin="round"/>
<path d="M48.1489 55.1343C48.1723 55.0857 48.1857 55.0312 48.1857 54.9736C48.1857 54.7698 48.0208 54.6049 47.817 54.6049C47.6135 54.6049 47.4484 54.7698 47.4484 54.9736" stroke="#897B2B" stroke-width="0.225365" stroke-miterlimit="22.9256" stroke-linecap="round" stroke-linejoin="round"/>
<path d="M47.4484 54.9734V56.3081" stroke="#897B2B" stroke-width="0.225365" stroke-miterlimit="22.9256" stroke-linecap="round" stroke-linejoin="round"/>
<path d="M47.4474 54.9736C47.4474 54.7698 47.2823 54.6049 47.0788 54.6049C46.8752 54.6049 46.7101 54.7698 46.7101 54.9736C46.7101 55.0312 46.7233 55.0857 46.7469 55.1343" stroke="#897B2B" stroke-width="0.225365" stroke-miterlimit="22.9256" stroke-linecap="round" stroke-linejoin="round"/>
<path d="M3.43216 43.636C3.45552 43.5873 3.46895 43.5328 3.46895 43.4752C3.46895 43.2717 3.30381 43.1066 3.10029 43.1066C2.89658 43.1066 2.73157 43.2717 2.73157 43.4752" stroke="#897B2B" stroke-width="0.225365" stroke-miterlimit="22.9256" stroke-linecap="round" stroke-linejoin="round"/>
<path d="M2.73157 43.4754V44.8101" stroke="#897B2B" stroke-width="0.225365" stroke-miterlimit="22.9256" stroke-linecap="round" stroke-linejoin="round"/>
<path d="M2.73274 43.4752C2.73274 43.2717 2.5676 43.1066 2.3639 43.1066C2.16037 43.1066 1.99524 43.2717 1.99524 43.4752C1.99524 43.5328 2.0085 43.5873 2.03203 43.636" stroke="#897B2B" stroke-width="0.225365" stroke-miterlimit="22.9256" stroke-linecap="round" stroke-linejoin="round"/>
<path d="M8.11758 43.636C8.14105 43.5873 8.15444 43.5328 8.15444 43.4752C8.15444 43.2717 7.98928 43.1066 7.78577 43.1066C7.58201 43.1066 7.41711 43.2717 7.41711 43.4752" stroke="#897B2B" stroke-width="0.225365" stroke-miterlimit="22.9256" stroke-linecap="round" stroke-linejoin="round"/>
<path d="M7.41711 43.4754V44.8101" stroke="#897B2B" stroke-width="0.225365" stroke-miterlimit="22.9256" stroke-linecap="round" stroke-linejoin="round"/>
<path d="M7.41639 43.4752C7.41639 43.2717 7.25124 43.1066 7.04767 43.1066C6.84397 43.1066 6.67883 43.2717 6.67883 43.4752C6.67883 43.5328 6.69204 43.5873 6.71581 43.636" stroke="#897B2B" stroke-width="0.225365" stroke-miterlimit="22.9256" stroke-linecap="round" stroke-linejoin="round"/>
<path d="M12.8013 43.636C12.8248 43.5873 12.8381 43.5328 12.8381 43.4752C12.8381 43.2717 12.673 43.1066 12.4694 43.1066C12.2657 43.1066 12.1007 43.2717 12.1007 43.4752" stroke="#897B2B" stroke-width="0.225365" stroke-miterlimit="22.9256" stroke-linecap="round" stroke-linejoin="round"/>
<path d="M12.1007 43.4754V44.8101" stroke="#897B2B" stroke-width="0.225365" stroke-miterlimit="22.9256" stroke-linecap="round" stroke-linejoin="round"/>
<path d="M12.1016 43.4752C12.1016 43.2717 11.9366 43.1066 11.733 43.1066C11.5293 43.1066 11.3644 43.2717 11.3644 43.4752C11.3644 43.5328 11.3776 43.5873 11.4012 43.636" stroke="#897B2B" stroke-width="0.225365" stroke-miterlimit="22.9256" stroke-linecap="round" stroke-linejoin="round"/>
<path d="M17.4868 43.636C17.5102 43.5873 17.5236 43.5328 17.5236 43.4752C17.5236 43.2717 17.3586 43.1066 17.1549 43.1066C16.9512 43.1066 16.7863 43.2717 16.7863 43.4752" stroke="#897B2B" stroke-width="0.225365" stroke-miterlimit="22.9256" stroke-linecap="round" stroke-linejoin="round"/>
<path d="M16.7863 43.4754V44.8101" stroke="#897B2B" stroke-width="0.225365" stroke-miterlimit="22.9256" stroke-linecap="round" stroke-linejoin="round"/>
<path d="M16.7855 43.4752C16.7855 43.2717 16.6204 43.1066 16.4166 43.1066C16.2131 43.1066 16.048 43.2717 16.048 43.4752C16.048 43.5328 16.0612 43.5873 16.0848 43.636" stroke="#897B2B" stroke-width="0.225365" stroke-miterlimit="22.9256" stroke-linecap="round" stroke-linejoin="round"/>
<path d="M22.1705 43.636C22.1938 43.5873 22.2072 43.5328 22.2072 43.4752C22.2072 43.2717 22.0421 43.1066 21.8385 43.1066C21.6348 43.1066 21.4698 43.2717 21.4698 43.4752" stroke="#897B2B" stroke-width="0.225365" stroke-miterlimit="22.9256" stroke-linecap="round" stroke-linejoin="round"/>
<path d="M21.4698 43.4751V44.8098" stroke="#897B2B" stroke-width="0.225365" stroke-miterlimit="22.9256" stroke-linecap="round" stroke-linejoin="round"/>
<path d="M21.4691 43.4752C21.4691 43.2717 21.304 43.1066 21.1004 43.1066C20.8968 43.1066 20.7316 43.2717 20.7316 43.4752C20.7316 43.5328 20.7448 43.5873 20.7685 43.636" stroke="#897B2B" stroke-width="0.225365" stroke-miterlimit="22.9256" stroke-linecap="round" stroke-linejoin="round"/>
<path d="M26.854 43.636C26.8774 43.5873 26.8908 43.5328 26.8908 43.4752C26.8908 43.2717 26.7258 43.1066 26.5221 43.1066C26.3186 43.1066 26.1534 43.2717 26.1534 43.4752" stroke="#897B2B" stroke-width="0.225365" stroke-miterlimit="22.9256" stroke-linecap="round" stroke-linejoin="round"/>
<path d="M26.1534 43.4754V44.8101" stroke="#897B2B" stroke-width="0.225365" stroke-miterlimit="22.9256" stroke-linecap="round" stroke-linejoin="round"/>
<path d="M26.1545 43.4752C26.1545 43.2717 25.9894 43.1066 25.7858 43.1066C25.5822 43.1066 25.4171 43.2717 25.4171 43.4752C25.4171 43.5328 25.4305 43.5873 25.4539 43.636" stroke="#897B2B" stroke-width="0.225365" stroke-miterlimit="22.9256" stroke-linecap="round" stroke-linejoin="round"/>
<path d="M31.5395 43.636C31.563 43.5873 31.5763 43.5328 31.5763 43.4752C31.5763 43.2717 31.4112 43.1066 31.2077 43.1066C31.0039 43.1066 30.839 43.2717 30.839 43.4752" stroke="#897B2B" stroke-width="0.225365" stroke-miterlimit="22.9256" stroke-linecap="round" stroke-linejoin="round"/>
<path d="M30.839 43.4754V44.8101" stroke="#897B2B" stroke-width="0.225365" stroke-miterlimit="22.9256" stroke-linecap="round" stroke-linejoin="round"/>
<path d="M30.8382 43.4752C30.8382 43.2717 30.6731 43.1066 30.4694 43.1066C30.2658 43.1066 30.1007 43.2717 30.1007 43.4752C30.1007 43.5328 30.1139 43.5873 30.1375 43.636" stroke="#897B2B" stroke-width="0.225365" stroke-miterlimit="22.9256" stroke-linecap="round" stroke-linejoin="round"/>
<path d="M36.2231 43.636C36.2467 43.5873 36.2599 43.5328 36.2599 43.4752C36.2599 43.2717 36.095 43.1066 35.8913 43.1066C35.6877 43.1066 35.5226 43.2717 35.5226 43.4752" stroke="#897B2B" stroke-width="0.225365" stroke-miterlimit="22.9256" stroke-linecap="round" stroke-linejoin="round"/>
<path d="M35.5226 43.4754V44.8101" stroke="#897B2B" stroke-width="0.225365" stroke-miterlimit="22.9256" stroke-linecap="round" stroke-linejoin="round"/>
<path d="M35.5236 43.4752C35.5236 43.2717 35.3586 43.1066 35.1549 43.1066C34.9514 43.1066 34.7863 43.2717 34.7863 43.4752C34.7863 43.5328 34.7995 43.5873 34.8231 43.636" stroke="#897B2B" stroke-width="0.225365" stroke-miterlimit="22.9256" stroke-linecap="round" stroke-linejoin="round"/>
<path d="M40.9087 43.636C40.9321 43.5873 40.9455 43.5328 40.9455 43.4752C40.9455 43.2717 40.7804 43.1066 40.5768 43.1066C40.3731 43.1066 40.2081 43.2717 40.2081 43.4752" stroke="#897B2B" stroke-width="0.225365" stroke-miterlimit="22.9256" stroke-linecap="round" stroke-linejoin="round"/>
<path d="M40.2081 43.4754V44.8101" stroke="#897B2B" stroke-width="0.225365" stroke-miterlimit="22.9256" stroke-linecap="round" stroke-linejoin="round"/>
<path d="M40.2072 43.4752C40.2072 43.2717 40.0421 43.1066 39.8385 43.1066C39.6348 43.1066 39.4698 43.2717 39.4698 43.4752C39.4698 43.5328 39.4831 43.5873 39.5067 43.636" stroke="#897B2B" stroke-width="0.225365" stroke-miterlimit="22.9256" stroke-linecap="round" stroke-linejoin="round"/>
<path d="M45.5924 43.636C45.6157 43.5873 45.6291 43.5328 45.6291 43.4752C45.6291 43.2717 45.464 43.1066 45.2606 43.1066C45.0567 43.1066 44.8917 43.2717 44.8917 43.4752" stroke="#897B2B" stroke-width="0.225365" stroke-miterlimit="22.9256" stroke-linecap="round" stroke-linejoin="round"/>
<path d="M44.8917 43.4751V44.8098" stroke="#897B2B" stroke-width="0.225365" stroke-miterlimit="22.9256" stroke-linecap="round" stroke-linejoin="round"/>
<path d="M44.8909 43.4752C44.8909 43.2717 44.7258 43.1066 44.5221 43.1066C44.3186 43.1066 44.1534 43.2717 44.1534 43.4752C44.1534 43.5328 44.1667 43.5873 44.1902 43.636" stroke="#897B2B" stroke-width="0.225365" stroke-miterlimit="22.9256" stroke-linecap="round" stroke-linejoin="round"/>
<path d="M50.2759 43.636C50.2994 43.5873 50.3127 43.5328 50.3127 43.4752C50.3127 43.2717 50.1477 43.1066 49.944 43.1066C49.7404 43.1066 49.5753 43.2717 49.5753 43.4752" stroke="#897B2B" stroke-width="0.225365" stroke-miterlimit="22.9256" stroke-linecap="round" stroke-linejoin="round"/>
<path d="M49.5753 43.4754V44.8101" stroke="#897B2B" stroke-width="0.225365" stroke-miterlimit="22.9256" stroke-linecap="round" stroke-linejoin="round"/>
<path d="M49.5783 43.4752C49.5783 43.2717 49.4133 43.1066 49.2096 43.1066C49.006 43.1066 48.8409 43.2717 48.8409 43.4752C48.8409 43.5328 48.8542 43.5873 48.8777 43.636" stroke="#897B2B" stroke-width="0.225365" stroke-miterlimit="22.9256" stroke-linecap="round" stroke-linejoin="round"/>
<path d="M3.43216 51.3013C3.45552 51.2527 3.46895 51.1981 3.46895 51.1406C3.46895 50.937 3.30381 50.7719 3.10029 50.7719C2.89658 50.7719 2.73157 50.937 2.73157 51.1406" stroke="#897B2B" stroke-width="0.225365" stroke-miterlimit="22.9256" stroke-linecap="round" stroke-linejoin="round"/>
<path d="M2.73157 51.1409V52.4756" stroke="#897B2B" stroke-width="0.225365" stroke-miterlimit="22.9256" stroke-linecap="round" stroke-linejoin="round"/>
<path d="M2.73274 51.1406C2.73274 50.937 2.5676 50.7719 2.3639 50.7719C2.16037 50.7719 1.99524 50.937 1.99524 51.1406C1.99524 51.1981 2.0085 51.2527 2.03203 51.3013" stroke="#897B2B" stroke-width="0.225365" stroke-miterlimit="22.9256" stroke-linecap="round" stroke-linejoin="round"/>
<path d="M8.11758 51.3013C8.14105 51.2527 8.15444 51.1981 8.15444 51.1406C8.15444 50.937 7.98928 50.7719 7.78577 50.7719C7.58201 50.7719 7.41711 50.937 7.41711 51.1406" stroke="#897B2B" stroke-width="0.225365" stroke-miterlimit="22.9256" stroke-linecap="round" stroke-linejoin="round"/>
<path d="M7.41711 51.1409V52.4756" stroke="#897B2B" stroke-width="0.225365" stroke-miterlimit="22.9256" stroke-linecap="round" stroke-linejoin="round"/>
<path d="M7.41639 51.1406C7.41639 50.937 7.25124 50.7719 7.04767 50.7719C6.84397 50.7719 6.67883 50.937 6.67883 51.1406C6.67883 51.1981 6.69204 51.2527 6.71581 51.3013" stroke="#897B2B" stroke-width="0.225365" stroke-miterlimit="22.9256" stroke-linecap="round" stroke-linejoin="round"/>
<path d="M12.8013 51.3013C12.8248 51.2527 12.8381 51.1981 12.8381 51.1406C12.8381 50.937 12.673 50.7719 12.4694 50.7719C12.2657 50.7719 12.1007 50.937 12.1007 51.1406" stroke="#897B2B" stroke-width="0.225365" stroke-miterlimit="22.9256" stroke-linecap="round" stroke-linejoin="round"/>
<path d="M12.1007 51.1409V52.4756" stroke="#897B2B" stroke-width="0.225365" stroke-miterlimit="22.9256" stroke-linecap="round" stroke-linejoin="round"/>
<path d="M12.1016 51.1406C12.1016 50.937 11.9366 50.7719 11.733 50.7719C11.5293 50.7719 11.3644 50.937 11.3644 51.1406C11.3644 51.1981 11.3776 51.2527 11.4012 51.3013" stroke="#897B2B" stroke-width="0.225365" stroke-miterlimit="22.9256" stroke-linecap="round" stroke-linejoin="round"/>
<path d="M17.4868 51.3013C17.5102 51.2527 17.5236 51.1981 17.5236 51.1406C17.5236 50.937 17.3586 50.7719 17.1549 50.7719C16.9512 50.7719 16.7863 50.937 16.7863 51.1406" stroke="#897B2B" stroke-width="0.225365" stroke-miterlimit="22.9256" stroke-linecap="round" stroke-linejoin="round"/>
<path d="M16.7863 51.1409V52.4756" stroke="#897B2B" stroke-width="0.225365" stroke-miterlimit="22.9256" stroke-linecap="round" stroke-linejoin="round"/>
<path d="M16.7855 51.1408C16.7855 50.9373 16.6204 50.7722 16.4166 50.7722C16.2131 50.7722 16.048 50.9373 16.048 51.1408C16.048 51.1984 16.0612 51.2529 16.0848 51.3015" stroke="#897B2B" stroke-width="0.225365" stroke-miterlimit="22.9256" stroke-linecap="round" stroke-linejoin="round"/>
<path d="M22.1705 51.3015C22.1938 51.2529 22.2072 51.1984 22.2072 51.1408C22.2072 50.9373 22.0421 50.7722 21.8385 50.7722C21.6348 50.7722 21.4698 50.9373 21.4698 51.1408" stroke="#897B2B" stroke-width="0.225365" stroke-miterlimit="22.9256" stroke-linecap="round" stroke-linejoin="round"/>
<path d="M21.4698 51.1407V52.4753" stroke="#897B2B" stroke-width="0.225365" stroke-miterlimit="22.9256" stroke-linecap="round" stroke-linejoin="round"/>
<path d="M21.4691 51.1406C21.4691 50.937 21.304 50.7719 21.1004 50.7719C20.8968 50.7719 20.7316 50.937 20.7316 51.1406C20.7316 51.1981 20.7448 51.2527 20.7685 51.3013" stroke="#897B2B" stroke-width="0.225365" stroke-miterlimit="22.9256" stroke-linecap="round" stroke-linejoin="round"/>
<path d="M26.854 51.3013C26.8774 51.2527 26.8908 51.1981 26.8908 51.1406C26.8908 50.937 26.7258 50.7719 26.5221 50.7719C26.3186 50.7719 26.1534 50.937 26.1534 51.1406" stroke="#897B2B" stroke-width="0.225365" stroke-miterlimit="22.9256" stroke-linecap="round" stroke-linejoin="round"/>
<path d="M26.1534 51.1409V52.4756" stroke="#897B2B" stroke-width="0.225365" stroke-miterlimit="22.9256" stroke-linecap="round" stroke-linejoin="round"/>
<path d="M26.1545 51.1406C26.1545 50.937 25.9894 50.7719 25.7858 50.7719C25.5822 50.7719 25.4171 50.937 25.4171 51.1406C25.4171 51.1981 25.4305 51.2527 25.4539 51.3013" stroke="#897B2B" stroke-width="0.225365" stroke-miterlimit="22.9256" stroke-linecap="round" stroke-linejoin="round"/>
<path d="M31.5395 51.3013C31.563 51.2527 31.5763 51.1981 31.5763 51.1406C31.5763 50.937 31.4112 50.7719 31.2077 50.7719C31.0039 50.7719 30.839 50.937 30.839 51.1406" stroke="#897B2B" stroke-width="0.225365" stroke-miterlimit="22.9256" stroke-linecap="round" stroke-linejoin="round"/>
<path d="M30.839 51.1409V52.4756" stroke="#897B2B" stroke-width="0.225365" stroke-miterlimit="22.9256" stroke-linecap="round" stroke-linejoin="round"/>
<path d="M30.8382 51.1406C30.8382 50.937 30.6731 50.7719 30.4694 50.7719C30.2658 50.7719 30.1007 50.937 30.1007 51.1406C30.1007 51.1981 30.1139 51.2527 30.1375 51.3013" stroke="#897B2B" stroke-width="0.225365" stroke-miterlimit="22.9256" stroke-linecap="round" stroke-linejoin="round"/>
<path d="M36.2231 51.3013C36.2467 51.2527 36.2599 51.1981 36.2599 51.1406C36.2599 50.937 36.095 50.7719 35.8913 50.7719C35.6877 50.7719 35.5226 50.937 35.5226 51.1406" stroke="#897B2B" stroke-width="0.225365" stroke-miterlimit="22.9256" stroke-linecap="round" stroke-linejoin="round"/>
<path d="M35.5226 51.1409V52.4756" stroke="#897B2B" stroke-width="0.225365" stroke-miterlimit="22.9256" stroke-linecap="round" stroke-linejoin="round"/>
<path d="M35.5236 51.1406C35.5236 50.937 35.3586 50.7719 35.1549 50.7719C34.9514 50.7719 34.7863 50.937 34.7863 51.1406C34.7863 51.1981 34.7995 51.2527 34.8231 51.3013" stroke="#897B2B" stroke-width="0.225365" stroke-miterlimit="22.9256" stroke-linecap="round" stroke-linejoin="round"/>
<path d="M40.9087 51.3013C40.9321 51.2527 40.9455 51.1981 40.9455 51.1406C40.9455 50.937 40.7804 50.7719 40.5768 50.7719C40.3731 50.7719 40.2081 50.937 40.2081 51.1406" stroke="#897B2B" stroke-width="0.225365" stroke-miterlimit="22.9256" stroke-linecap="round" stroke-linejoin="round"/>
<path d="M40.2081 51.1409V52.4756" stroke="#897B2B" stroke-width="0.225365" stroke-miterlimit="22.9256" stroke-linecap="round" stroke-linejoin="round"/>
<path d="M40.2072 51.1408C40.2072 50.9373 40.0421 50.7722 39.8385 50.7722C39.6348 50.7722 39.4698 50.9373 39.4698 51.1408C39.4698 51.1984 39.4831 51.2529 39.5067 51.3015" stroke="#897B2B" stroke-width="0.225365" stroke-miterlimit="22.9256" stroke-linecap="round" stroke-linejoin="round"/>
<path d="M45.5924 51.3015C45.6157 51.2529 45.6291 51.1984 45.6291 51.1408C45.6291 50.9373 45.464 50.7722 45.2606 50.7722C45.0567 50.7722 44.8917 50.9373 44.8917 51.1408" stroke="#897B2B" stroke-width="0.225365" stroke-miterlimit="22.9256" stroke-linecap="round" stroke-linejoin="round"/>
<path d="M44.8917 51.1407V52.4753" stroke="#897B2B" stroke-width="0.225365" stroke-miterlimit="22.9256" stroke-linecap="round" stroke-linejoin="round"/>
<path d="M44.8909 51.1406C44.8909 50.937 44.7258 50.7719 44.5221 50.7719C44.3186 50.7719 44.1534 50.937 44.1534 51.1406C44.1534 51.1981 44.1667 51.2527 44.1902 51.3013" stroke="#897B2B" stroke-width="0.225365" stroke-miterlimit="22.9256" stroke-linecap="round" stroke-linejoin="round"/>
<path d="M50.2759 51.3013C50.2994 51.2527 50.3127 51.1981 50.3127 51.1406C50.3127 50.937 50.1477 50.7719 49.944 50.7719C49.7404 50.7719 49.5753 50.937 49.5753 51.1406" stroke="#897B2B" stroke-width="0.225365" stroke-miterlimit="22.9256" stroke-linecap="round" stroke-linejoin="round"/>
<path d="M49.5753 51.1409V52.4756" stroke="#897B2B" stroke-width="0.225365" stroke-miterlimit="22.9256" stroke-linecap="round" stroke-linejoin="round"/>
<path d="M49.5783 51.1406C49.5783 50.937 49.4133 50.7719 49.2096 50.7719C49.006 50.7719 48.8409 50.937 48.8409 51.1406C48.8409 51.1981 48.8542 51.2527 48.8777 51.3013" stroke="#897B2B" stroke-width="0.225365" stroke-miterlimit="22.9256" stroke-linecap="round" stroke-linejoin="round"/>
<path fill-rule="evenodd" clip-rule="evenodd" d="M11.3238 21.3994C11.2717 21.3541 10.9053 20.713 11.0276 20.4325C11.1497 20.1522 11.5913 19.9673 11.9009 19.6373C12.2107 19.3073 12.7744 18.2511 13.0706 17.9996C13.2365 17.8524 13.5542 17.719 13.5542 17.719C13.5542 17.719 13.3067 16.8912 14.0531 16.565C14.9007 16.1756 14.8626 17.4073 15.4411 17.4073C15.7108 17.4073 15.9563 16.7306 16.0962 16.6429C16.2361 16.5553 16.5582 16.4648 16.954 16.6429C17.7926 17.0805 17.7025 18.3896 17.7025 18.3896C17.7025 18.3896 18.7562 19.2403 19.4179 20.8069C20.0797 22.3734 19.5648 24.262 20.307 25.5791C21.0488 26.8965 22.9376 28.7761 26.9195 28.7761C30.07 28.7761 33.6733 26.3591 36.2302 26.3591C37.2767 26.3591 38.1952 26.7645 38.1952 26.7645C38.1952 26.7645 40.8305 25.629 40.8155 22.008C40.6813 18.8199 38.2905 17.9651 36.2303 17.4854C34.1703 17.0058 28.0818 16.7572 25.6253 15.8634C25.0249 15.6636 22.7089 14.6954 22.7089 11.8867C22.7089 9.07825 24.5335 7.64486 24.5335 7.64486C24.5335 7.64486 25.678 9.45969 28.6194 9.82822C31.561 10.1966 36.8723 11.0991 37.5715 11.2319C38.2708 11.3645 42.2317 11.9993 43.4199 13.4463C44.608 14.8932 45.5259 17.3167 45.1041 19.435C44.6825 21.5534 44.3144 23.0415 42.7962 25.0807C41.2778 27.1202 39.8642 27.4981 39.8642 27.4981C39.8642 27.4981 41.3843 28.5385 42.3129 29.4944C43.241 30.4502 44.8431 33.6289 45.1666 34.3446C45.4902 35.0603 47.2687 37.1968 47.771 38.3838C48.485 40.2168 48.2097 41.3865 48.1298 41.6902C48.0499 41.9936 47.6895 43.1405 46.8976 43.1405C46.2977 43.1492 46.1333 42.9535 46.1333 42.9535C46.1333 42.9535 46.1565 42.7477 46.2271 42.5011C46.2977 42.2546 46.929 41.786 46.929 41.1445C46.929 40.0927 46.2424 38.8791 44.5739 37.417C42.9055 35.9549 39.8329 34.5474 39.8329 34.5474C39.8329 34.5474 40.6326 36.0185 40.7999 36.2785C40.9672 36.5388 43.3282 39.8317 43.4979 41.3161C43.6388 42.3416 43.7629 43.8202 43.1235 44.404C42.6821 44.7522 42.1838 44.5655 42.0788 44.4352C41.9736 44.305 42.0597 44.127 42.1097 43.9985C42.1601 43.8699 42.592 43.4363 42.6245 43.0941C42.6572 42.7517 42.3779 41.6284 41.5172 40.8171C40.6565 40.0057 38.4624 39.2631 37.5404 38.7274C36.6182 38.1913 34.5883 36.7458 34.0624 36.2943C33.5366 35.843 32.8409 34.961 31.8343 34.961C30.3069 34.961 29.7345 35.1596 26.8105 36.2007C26.0069 36.4893 24.133 37.3237 21.9758 37.3237C19.8187 37.3237 17.8586 35.733 17.8586 35.733C17.8586 35.733 16.3044 37.4173 13.6009 37.4173C10.6983 37.4173 9.6546 35.6395 8.01769 35.6395C7.05766 35.6395 6.32456 36.3879 5.67819 36.3879C5.49227 36.3899 5.21054 36.3027 5.21054 35.8735C5.21054 35.6443 5.98277 34.5067 7.22221 34.4542C8.46176 34.4017 9.49967 34.8626 11.8697 34.6882C14.2398 34.5136 14.9109 33.1909 14.9109 33.1909C14.9109 33.1909 14.0879 33.5655 13.0082 33.5655C10.512 33.5655 8.03934 31.9901 6.72309 31.9901C5.90225 31.9901 5.10689 32.7737 4.61792 32.7389C4.29926 32.7118 4.15379 32.6263 4.10971 32.5191C4.06587 32.412 4.04047 32.2455 4.21041 31.9246C4.5421 31.2975 5.52303 30.3755 8.42297 30.3994C10.1144 30.388 12.0118 31.0103 13.1018 29.9472C14.1919 28.8843 14.3375 27.8517 14.4429 27.3116C14.5486 26.7715 14.8262 24.3057 14.8327 24.1303C14.8396 23.9549 14.8484 23.3786 14.3183 22.8357C13.788 22.293 13.0689 22.1412 12.7432 22.0716C12.4173 22.0019 11.905 22.0044 11.7763 21.9469C11.6473 21.8894 11.4065 21.6284 11.4331 21.557C11.4597 21.4855 12.1372 21.5318 12.1505 21.4947C12.1638 21.4574 11.376 21.445 11.3238 21.3994Z" fill="#8C161A"/>
<path d="M13.7921 19.5166C13.7921 19.5166 13.9684 19.0082 14.5421 19.0082C15.1158 19.0082 15.3525 19.3958 15.3525 19.3958C15.3525 19.3958 15.1864 19.7783 14.5925 19.7783C13.9985 19.7783 13.7921 19.5166 13.7921 19.5166Z" stroke="#897B2B" stroke-width="0.150244" stroke-miterlimit="22.9256"/>
<path d="M13.7921 19.5166C13.7921 19.5166 13.9684 19.0082 14.5421 19.0082C15.1158 19.0082 15.3525 19.3958 15.3525 19.3958C15.3525 19.3958 15.1864 19.7783 14.5925 19.7783C13.9985 19.7783 13.7921 19.5166 13.7921 19.5166Z" stroke="#897B2B" stroke-width="0.129206" stroke-miterlimit="22.9256" stroke-linecap="round"/>
<path fill-rule="evenodd" clip-rule="evenodd" d="M14.2296 19.3907C14.2296 19.2102 14.3763 19.0633 14.557 19.0633C14.7374 19.0633 14.884 19.2102 14.884 19.3907C14.884 19.5715 14.7374 19.718 14.557 19.718C14.3763 19.718 14.2296 19.5715 14.2296 19.3907Z" fill="#897B2B"/>
<path d="M11.0909 20.6164C11.0909 20.6164 11.5722 20.6247 11.6925 20.3341" stroke="#897B2B" stroke-width="0.162423" stroke-miterlimit="22.9256" stroke-linecap="round"/>
<path d="M42.4763 43.9622C42.2439 44.0992 42.0792 44.606 42.0792 44.606" stroke="#897B2B" stroke-width="0.150244" stroke-miterlimit="22.9256" stroke-linecap="round"/>
<path d="M42.7634 44.1264C42.5716 44.2634 42.421 44.688 42.421 44.688" stroke="#897B2B" stroke-width="0.150244" stroke-miterlimit="22.9256" stroke-linecap="round"/>
<path d="M46.665 42.4829C46.3372 42.6199 46.2003 43.1128 46.2003 43.1128" stroke="#897B2B" stroke-width="0.150244" stroke-miterlimit="22.9256" stroke-linecap="round"/>
<path d="M47.0926 42.6062C46.8187 42.8116 46.6671 43.25 46.6671 43.25" stroke="#897B2B" stroke-width="0.150244" stroke-miterlimit="22.9256" stroke-linecap="round"/>
<path d="M16.0513 17.6497C16.0513 17.6497 15.8898 16.8775 16.4252 16.9024C16.961 16.9272 17.0232 17.3632 17.0481 17.4754C17.0729 17.8367 16.8986 18.0981 16.8986 18.0981C16.8986 18.0981 16.8862 17.0893 16.3754 17.0893C16.2259 17.0893 16.0513 17.6497 16.0513 17.6497Z" stroke="#897B2B" stroke-width="0.156548" stroke-miterlimit="22.9256" stroke-linecap="round"/>
<path d="M5.62442 35.6032C5.35834 35.7001 5.30188 36.1113 5.30188 36.1113" stroke="#897B2B" stroke-width="0.150244" stroke-miterlimit="22.9256" stroke-linecap="round"/>
<path d="M5.82748 35.7565C5.56146 35.8532 5.505 36.2644 5.505 36.2644" stroke="#897B2B" stroke-width="0.150244" stroke-miterlimit="22.9256" stroke-linecap="round"/>
<path d="M18.0187 25.4736C18.1079 25.2604 18.1339 24.8159 18.3967 24.8894" stroke="#897B2B" stroke-width="0.143175" stroke-miterlimit="22.9256" stroke-linecap="round"/>
<path d="M15.7843 22.4824C16.6746 21.8378 17.0724 20.7319 17.194 19.6807" stroke="#897B2B" stroke-width="0.162423" stroke-miterlimit="22.9256" stroke-linecap="round"/>
<path d="M16.1788 22.8091C16.8535 22.2481 17.2329 21.3689 17.3304 20.5058" stroke="#897B2B" stroke-width="0.162423" stroke-miterlimit="22.9256" stroke-linecap="round"/>
<path d="M16.6261 23.239C17.2024 22.7667 17.5479 22.0723 17.7147 21.3653" stroke="#897B2B" stroke-width="0.162423" stroke-miterlimit="22.9256" stroke-linecap="round"/>
<path d="M16.9015 23.7715C17.4121 23.4087 17.7275 22.8334 17.8296 22.2245" stroke="#897B2B" stroke-width="0.162423" stroke-miterlimit="22.9256" stroke-linecap="round"/>
<path d="M17.3136 24.3562C17.6922 24.0532 17.9518 23.6008 18.0183 23.1187" stroke="#897B2B" stroke-width="0.162423" stroke-miterlimit="22.9256" stroke-linecap="round"/>
<path d="M17.6144 24.8652C17.7729 24.6466 17.9318 24.4276 18.0425 24.1847" stroke="#897B2B" stroke-width="0.162423" stroke-miterlimit="22.9256" stroke-linecap="round"/>
<path d="M13.5592 32.8892C13.2103 32.3766 13.1487 31.7134 13.2454 31.106" stroke="#897B2B" stroke-width="0.162423" stroke-miterlimit="22.9256" stroke-linecap="round"/>
<path d="M13.0166 32.6758C12.8203 32.2003 12.7209 31.6531 12.7759 31.1287" stroke="#897B2B" stroke-width="0.162423" stroke-miterlimit="22.9256" stroke-linecap="round"/>
<path d="M12.4323 32.5386C12.2507 32.1726 12.2261 31.7404 12.2603 31.3352" stroke="#897B2B" stroke-width="0.162423" stroke-miterlimit="22.9256" stroke-linecap="round"/>
<path d="M11.9163 32.6074C11.6782 32.2778 11.6148 31.8327 11.6929 31.4384" stroke="#897B2B" stroke-width="0.162423" stroke-miterlimit="22.9256" stroke-linecap="round"/>
<path d="M11.3089 32.4927C11.1202 32.2209 11.0498 31.8603 11.1143 31.5414" stroke="#897B2B" stroke-width="0.162423" stroke-miterlimit="22.9256" stroke-linecap="round"/>
<path d="M10.6771 32.229C10.5575 32.0364 10.4838 31.8022 10.5396 31.5756" stroke="#897B2B" stroke-width="0.162423" stroke-miterlimit="22.9256" stroke-linecap="round"/>
<path d="M10.2543 32.1719C10.1077 32.0505 9.9842 31.874 9.97375 31.6791" stroke="#897B2B" stroke-width="0.162423" stroke-miterlimit="22.9256" stroke-linecap="round"/>
<path d="M13.7665 35.1014C14.0571 35.1613 13.9659 35.7136 13.6515 35.7197" stroke="#897B2B" stroke-width="0.143175" stroke-miterlimit="22.9256" stroke-linecap="round"/>
<path d="M19.5988 33.282C20.2892 31.7083 20.2251 29.9097 19.738 28.1207" stroke="#897B2B" stroke-width="0.162423" stroke-miterlimit="22.9256" stroke-linecap="round"/>
<path d="M21.1124 32.1602C21.5233 30.9762 21.5323 29.6607 21.161 28.4662" stroke="#897B2B" stroke-width="0.162423" stroke-miterlimit="22.9256" stroke-linecap="round"/>
<path d="M20.4874 32.5269C20.9093 31.2856 20.7977 29.5417 20.5287 28.2716" stroke="#897B2B" stroke-width="0.162423" stroke-miterlimit="22.9256" stroke-linecap="round"/>
<path d="M19.0358 33.5549C19.6115 32.2114 19.5332 30.2367 18.9406 28.9056" stroke="#897B2B" stroke-width="0.162423" stroke-miterlimit="22.9256" stroke-linecap="round"/>
<path d="M21.9034 31.9023C22.2974 30.9637 22.3002 29.8901 21.9722 28.9284" stroke="#897B2B" stroke-width="0.162423" stroke-miterlimit="22.9256" stroke-linecap="round"/>
<path d="M22.5734 31.8853C22.6357 31.0603 22.7394 30.2211 22.642 29.3926" stroke="#897B2B" stroke-width="0.162423" stroke-miterlimit="22.9256" stroke-linecap="round"/>
<path d="M18.3956 33.8621C18.9285 32.5068 18.8354 31.0046 18.5074 29.6163" stroke="#897B2B" stroke-width="0.162423" stroke-miterlimit="22.9256" stroke-linecap="round"/>
<path d="M23.0323 31.6101C23.1863 31.0024 23.3695 30.339 23.11 29.7331" stroke="#897B2B" stroke-width="0.162423" stroke-miterlimit="22.9256" stroke-linecap="round"/>
<path d="M23.5363 31.3352C23.6667 30.8366 23.6806 30.3105 23.6653 29.7879" stroke="#897B2B" stroke-width="0.162423" stroke-miterlimit="22.9256" stroke-linecap="round"/>
<path d="M17.6573 34.0513C18.0495 32.9798 18.1871 31.7767 17.8119 30.682" stroke="#897B2B" stroke-width="0.162423" stroke-miterlimit="22.9256" stroke-linecap="round"/>
<path d="M16.923 34.521C17.1751 33.8427 17.2664 33.0881 17.1235 32.3665" stroke="#897B2B" stroke-width="0.162423" stroke-miterlimit="22.9256" stroke-linecap="round"/>
<path d="M16.2823 34.6699C16.5299 34.1725 16.5691 33.5577 16.5574 32.9853" stroke="#897B2B" stroke-width="0.162423" stroke-miterlimit="22.9256" stroke-linecap="round"/>
<path d="M15.4581 35.2544C15.6648 34.7845 15.8659 34.2591 15.8132 33.7188" stroke="#897B2B" stroke-width="0.162423" stroke-miterlimit="22.9256" stroke-linecap="round"/>
<path d="M15.1603 34.2573C15.2305 34.6891 15.0289 35.1359 14.8566 35.4946" stroke="#897B2B" stroke-width="0.162423" stroke-miterlimit="22.9256" stroke-linecap="round"/>
<path d="M14.2745 35.6531C14.4004 35.3992 14.5481 35.1233 14.5547 34.8417" stroke="#897B2B" stroke-width="0.162423" stroke-miterlimit="22.9256" stroke-linecap="round"/>
<path d="M36.9859 36.4231C36.8838 36.0415 36.7804 35.659 36.6105 35.2999" stroke="#897B2B" stroke-width="0.162423" stroke-miterlimit="22.9256" stroke-linecap="round"/>
<path d="M37.5274 36.7324C37.4667 36.265 37.2512 35.8391 37.0773 35.4104" stroke="#897B2B" stroke-width="0.162423" stroke-miterlimit="22.9256" stroke-linecap="round"/>
<path d="M36.2392 35.9678C36.194 35.7713 36.1317 35.5639 36.0089 35.3987" stroke="#897B2B" stroke-width="0.162423" stroke-miterlimit="22.9256" stroke-linecap="round"/>
<path d="M37.9748 36.939C37.8774 36.4695 37.8635 35.9591 37.5851 35.5523" stroke="#897B2B" stroke-width="0.162423" stroke-miterlimit="22.9256" stroke-linecap="round"/>
<path d="M38.4048 37.2827C38.3719 36.7121 38.3121 36.1276 38.0265 35.6153" stroke="#897B2B" stroke-width="0.162423" stroke-miterlimit="22.9256" stroke-linecap="round"/>
<path d="M38.8611 37.3857C38.9689 36.8 38.6374 36.244 38.462 35.6962" stroke="#897B2B" stroke-width="0.162423" stroke-miterlimit="22.9256" stroke-linecap="round"/>
<path d="M39.4709 37.6694C39.3876 37.018 39.1474 36.3977 38.9152 35.7813" stroke="#897B2B" stroke-width="0.162423" stroke-miterlimit="22.9256" stroke-linecap="round"/>
<path d="M39.9566 37.9702C39.8229 37.3066 39.7283 36.6551 39.4581 36.0391" stroke="#897B2B" stroke-width="0.162423" stroke-miterlimit="22.9256" stroke-linecap="round"/>
<path d="M40.4242 38.2456C40.3761 37.5825 40.2535 36.9087 39.9718 36.3016" stroke="#897B2B" stroke-width="0.162423" stroke-miterlimit="22.9256" stroke-linecap="round"/>
<path d="M41.2239 39.0962C41.1156 38.3904 41.0403 37.6409 40.7081 36.9907" stroke="#897B2B" stroke-width="0.162423" stroke-miterlimit="22.9256" stroke-linecap="round"/>
<path d="M29.2611 14.9536C28.1092 14.1798 27.1904 12.7977 27.1124 11.3953" stroke="#897B2B" stroke-width="0.225365" stroke-miterlimit="22.9256" stroke-linecap="round"/>
<path d="M30.2053 14.8428C29.0926 14.2995 28.1967 13.134 28.0909 11.7738" stroke="#897B2B" stroke-width="0.225365" stroke-miterlimit="22.9256" stroke-linecap="round"/>
<path d="M28.9679 12.0141C29.3094 13.3684 30.5698 14.0779 31.5465 14.8906" stroke="#897B2B" stroke-width="0.225365" stroke-miterlimit="22.9256" stroke-linecap="round"/>
<path d="M36.1873 15.624C35.8493 14.126 34.0352 13.7215 33.3683 12.461" stroke="#897B2B" stroke-width="0.225365" stroke-miterlimit="22.9256" stroke-linecap="round"/>
<path d="M37.8715 16.4834C37.7935 14.6441 35.6047 14.1408 34.9835 12.5988" stroke="#897B2B" stroke-width="0.225365" stroke-miterlimit="22.9256" stroke-linecap="round"/>
<path d="M39.1451 16.8271C39.1981 15.122 37.4246 14.3465 36.7472 13.011" stroke="#897B2B" stroke-width="0.225365" stroke-miterlimit="22.9256" stroke-linecap="round"/>
<path d="M39.4073 13.7559C40.1919 15.1059 41.503 16.4693 40.9659 18.168" stroke="#897B2B" stroke-width="0.225365" stroke-miterlimit="22.9256" stroke-linecap="round"/>
<path d="M41.654 18.8555C41.7508 17.9862 41.922 17.0824 41.5777 16.1969C41.3743 15.6742 41.0417 15.1908 40.8546 14.5926" stroke="#897B2B" stroke-width="0.225365" stroke-miterlimit="22.9256" stroke-linecap="round"/>
<path d="M42.089 20.5972C42.7584 19.8418 43.1316 18.8668 43.1405 17.8585" stroke="#897B2B" stroke-width="0.225365" stroke-miterlimit="22.9256" stroke-linecap="round"/>
<path d="M42.2491 21.3423C42.7804 20.7176 43.2085 19.9646 43.3894 19.1562" stroke="#897B2B" stroke-width="0.225365" stroke-miterlimit="22.9256" stroke-linecap="round"/>
<path d="M42.3253 21.8638C42.8737 21.4798 43.1647 20.8259 43.5343 20.2653" stroke="#897B2B" stroke-width="0.225365" stroke-miterlimit="22.9256" stroke-linecap="round"/>
<path d="M27.7313 14.5923C26.856 13.7311 26.0829 12.4807 26.1154 11.189" stroke="#897B2B" stroke-width="0.225365" stroke-miterlimit="22.9256" stroke-linecap="round"/>
<path d="M33.4385 14.9707C32.4402 14.0203 30.735 13.6063 30.2316 12.2253" stroke="#897B2B" stroke-width="0.225365" stroke-miterlimit="22.9256" stroke-linecap="round"/>
<path d="M34.8817 15.3833C34.2636 13.8303 32.3939 13.5848 31.5812 12.2548" stroke="#897B2B" stroke-width="0.225365" stroke-miterlimit="22.9256" stroke-linecap="round"/>
<path d="M41.7238 20.1621C42.8804 18.7771 42.3037 16.9441 42.1364 15.3831" stroke="#897B2B" stroke-width="0.225365" stroke-miterlimit="22.9256" stroke-linecap="round"/>
<path d="M26.458 13.9736C25.5204 13.1618 25.1041 11.8438 25.2718 10.639" stroke="#897B2B" stroke-width="0.225365" stroke-miterlimit="22.9256" stroke-linecap="round"/>
<path d="M40.1412 17.5835C40.1264 16.5159 39.7375 15.5253 39.0343 14.7368" stroke="#897B2B" stroke-width="0.225365" stroke-miterlimit="22.9256" stroke-linecap="round"/>
<path d="M39.0334 14.7368L38.8683 14.5582" stroke="#897B2B" stroke-width="0.225365" stroke-miterlimit="22.9256" stroke-linecap="round"/>
<path d="M38.8675 14.5581C38.4411 14.1774 38.0728 13.6568 37.9738 13.0798" stroke="#897B2B" stroke-width="0.225365" stroke-miterlimit="22.9256" stroke-linecap="round"/>
<path d="M37.837 31.7134C37.8227 30.3273 37.5407 28.8807 36.6339 27.7769" stroke="#897B2B" stroke-width="0.162423" stroke-miterlimit="22.9256" stroke-linecap="round"/>
<path d="M37.0475 31.1289C37.0099 29.9536 36.6539 28.7528 35.9015 27.8171" stroke="#897B2B" stroke-width="0.162423" stroke-miterlimit="22.9256" stroke-linecap="round"/>
<path d="M38.715 31.6616C38.4749 30.3519 38.3357 28.9574 37.5519 27.8171" stroke="#897B2B" stroke-width="0.162423" stroke-miterlimit="22.9256" stroke-linecap="round"/>
<path d="M39.4023 31.9109C39.4413 30.5377 39.1313 29.1327 38.3781 27.9758" stroke="#897B2B" stroke-width="0.162423" stroke-miterlimit="22.9256" stroke-linecap="round"/>
<path d="M35.7575 31.5071C35.4145 30.3386 35.1169 29.0871 34.3995 28.0521" stroke="#897B2B" stroke-width="0.162423" stroke-miterlimit="22.9256" stroke-linecap="round"/>
<path d="M36.4967 31.7478C36.308 30.5031 36.2048 29.0813 35.1788 28.1952" stroke="#897B2B" stroke-width="0.162423" stroke-miterlimit="22.9256" stroke-linecap="round"/>
<path d="M35.0185 31.4727C34.89 30.3388 34.4486 29.2321 33.7023 28.3539" stroke="#897B2B" stroke-width="0.162423" stroke-miterlimit="22.9256" stroke-linecap="round"/>
<path d="M40.1932 32.1689C40.1593 30.89 40.0565 29.5735 39.3624 28.4587" stroke="#897B2B" stroke-width="0.162423" stroke-miterlimit="22.9256" stroke-linecap="round"/>
<path d="M34.143 31.0601C34.0281 30.0879 33.5525 29.2243 33.005 28.4335" stroke="#897B2B" stroke-width="0.162423" stroke-miterlimit="22.9256" stroke-linecap="round"/>
<path d="M33.3689 31.1289C33.2874 30.2628 32.9839 29.4398 32.4406 28.7567" stroke="#897B2B" stroke-width="0.162423" stroke-miterlimit="22.9256" stroke-linecap="round"/>
<path d="M32.6821 31.2319C32.4395 30.4699 32.334 29.6099 31.7472 29.0043" stroke="#897B2B" stroke-width="0.162423" stroke-miterlimit="22.9256" stroke-linecap="round"/>
<path d="M31.0988 29.3412C31.4381 29.6894 31.6085 30.1428 31.6833 30.613" stroke="#897B2B" stroke-width="0.162423" stroke-miterlimit="22.9256" stroke-linecap="round"/>
<path d="M41.5335 33.1572C41.6258 31.8678 41.4012 30.596 40.8976 29.4099" stroke="#897B2B" stroke-width="0.162423" stroke-miterlimit="22.9256" stroke-linecap="round"/>
<path d="M30.8136 30.2236C30.7645 30.0417 30.7081 29.8377 30.5499 29.7193" stroke="#897B2B" stroke-width="0.162423" stroke-miterlimit="22.9256" stroke-linecap="round"/>
<path d="M41.7081 30.1455C42.1973 31.1817 42.2362 32.3634 42.2376 33.501" stroke="#897B2B" stroke-width="0.162423" stroke-miterlimit="22.9256" stroke-linecap="round"/>
<path d="M42.8225 33.8105C42.9994 32.9183 42.7198 32.0471 42.5304 31.1891" stroke="#897B2B" stroke-width="0.162423" stroke-miterlimit="22.9256" stroke-linecap="round"/>
<path d="M43.3121 34.1199C43.3618 33.4615 43.435 32.7544 43.2003 32.1258" stroke="#897B2B" stroke-width="0.162423" stroke-miterlimit="22.9256" stroke-linecap="round"/>
<path d="M43.8877 34.498C43.7227 33.9966 43.8578 33.4502 43.8019 32.9337" stroke="#897B2B" stroke-width="0.162423" stroke-miterlimit="22.9256" stroke-linecap="round"/>
<path d="M44.7641 35.4434C44.7534 35.1818 44.8144 34.9249 44.7985 34.6698" stroke="#897B2B" stroke-width="0.162423" stroke-miterlimit="22.9256" stroke-linecap="round"/>
<path d="M40.7709 32.4465C40.8137 31.2164 40.717 29.8748 40.0948 28.7796" stroke="#897B2B" stroke-width="0.162423" stroke-miterlimit="22.9256" stroke-linecap="round"/>
<path d="M44.3581 34.7729C44.3167 34.4427 44.3743 34.108 44.3626 33.7758" stroke="#897B2B" stroke-width="0.162423" stroke-miterlimit="22.9256" stroke-linecap="round"/>
<path d="M4.4897 31.9787C4.22363 32.0756 4.16711 32.4868 4.16711 32.4868" stroke="#897B2B" stroke-width="0.150244" stroke-miterlimit="22.9256" stroke-linecap="round"/>
<path d="M4.69278 32.132C4.42676 32.2289 4.37024 32.6401 4.37024 32.6401" stroke="#897B2B" stroke-width="0.150244" stroke-miterlimit="22.9256" stroke-linecap="round"/>
</g>
<defs>
<clipPath id="clip0_659_28924">
<rect width="51.23" height="64" fill="white" transform="translate(0.518677)"/>
</clipPath>
</defs>
</svg>
