<svg width="20" height="20" viewBox="0 0 20 20" fill="none" xmlns="http://www.w3.org/2000/svg">
<path d="M12.9116 11.6256C13.0154 11.5565 13.1349 11.5144 13.2591 11.5031C13.3834 11.4918 13.5085 11.5117 13.6231 11.5609L18.0444 13.5419C18.1934 13.6056 18.3177 13.7158 18.3989 13.8561C18.48 13.9963 18.5135 14.1591 18.4944 14.32C18.3487 15.4085 17.8127 16.407 16.986 17.1299C16.1593 17.8528 15.0982 18.2508 14 18.25C10.6185 18.25 7.37548 16.9067 4.98439 14.5156C2.5933 12.1245 1.25 8.88151 1.25 5.5C1.24916 4.40182 1.6472 3.3407 2.37009 2.514C3.09298 1.6873 4.09152 1.15128 5.18 1.00563C5.34091 0.986512 5.50368 1.02002 5.64395 1.10114C5.78422 1.18226 5.89444 1.30663 5.95813 1.45563L7.93906 5.88063C7.98774 5.99428 8.00756 6.1182 7.99676 6.24136C7.98596 6.36453 7.94489 6.48311 7.87719 6.58656L5.87375 8.96875C5.80269 9.07599 5.76066 9.19983 5.75179 9.32816C5.74291 9.4565 5.76749 9.58495 5.82313 9.70094C6.59844 11.2881 8.23906 12.9091 9.83094 13.6769C9.94755 13.7323 10.0766 13.7563 10.2053 13.7466C10.334 13.7369 10.458 13.6938 10.565 13.6216L12.9116 11.6256Z" stroke="white" stroke-width="2" stroke-linecap="round" stroke-linejoin="round"/>
</svg>
