<svg xmlns="http://www.w3.org/2000/svg" width="154" height="70" fill="none"><rect width="22.5" height="23.529" x="65.3" y="11.646" fill="#0C6" opacity=".5" rx="11.25"/><path fill="#fff" d="M60.044 37.866c2.54-3.202 9.265-9.963 15.833-11.39-.87 2.624-2.409 8.978-1.594 13.405 1.524-3.512 7.312-11.604 18.265-15.868 1.305-.894 3.505-4.543 1.872-11.983-.2-.197-1.602-.82-5.62-1.746-.537-.193-1.95-.87-3.299-2.034-1.687-1.456-12.2 1.74-14.617 3.645-1.747-.325-5.52-.404-6.638 1.883-1.119 2.287.043 3.265.764 3.468-1.922 1.298-5.814 4.236-6.01 5.604 2.24-1.541 7.449-4.673 10.37-4.87-.874-1.396-1.7-4.188 1.988-4.198 3.28-1.85 10.487-5.332 13.061-4.47 1.124.65 3.48 1.954 3.92 1.978.55.031 3.157.36 3.184.679.012.138-.179.325-.388.53-.273.27-.579.57-.512.836.049.194.552.494 1.135.842.84.502 1.844 1.101 1.888 1.62.016.186.062.388.109.599.176.78.378 1.68-.795 2.355-.17.098-.349.207-.534.32-1.44.876-3.25 1.978-3.992-.234-.423-1.262-.436-2.396-.447-3.335-.011-.92-.02-1.652-.409-2.134-.786-.974-2.736-1.844-4.253-1.305-1.214.43-2.756 1.292-3.375 1.67.784.33 2.412.972 2.655.886.058-.02.203-.13.405-.283.84-.639 2.675-2.03 3.405-.863.904 1.445 1.087 1.75.484 2.93-.109.212-.252.46-.408.732-.712 1.238-1.69 2.94-.854 3.722 1.019.953 3.879 1.5 5.645.216a64.918 64.918 0 0 0 2.643-2.006c-.127 1.27-.798 3.849-2.473 4-2.094.188-8.973 2.012-9.913 2.9-.01-1.338.173-4.388.984-5.875-4.893.654-16.24 5.125-22.48 17.774Z"/><path fill="#fff" d="M78.777 14.642c-1.107.769-3.567 3.085-4.552 6.196 2.181-1 6.973-2.91 8.692-2.55-1.183-.43-3.94-1.124-5.51-.469-.009-.401.254-1.598 1.37-3.177Zm-5.674 2.433c.375-.25.539-.675.366-.95-.173-.273-.617-.293-.992-.043s-.54.675-.366.95c.173.274.617.293.992.043Zm-.471 3.342c.16.255-.013.665-.389.915-.375.25-.809.246-.97-.01-.16-.254.013-.663.388-.913.376-.25.81-.246.97.008Zm-3.889 1.297c.502-.335.735-.883.52-1.224-.215-.341-.797-.346-1.299-.012-.501.335-.734.883-.519 1.224.215.341.797.346 1.298.012Zm-4.395.802c.26.413.02 1.05-.538 1.42-.557.372-1.22.339-1.48-.074-.26-.413-.02-1.05.537-1.42.558-.372 1.22-.339 1.481.074Zm2.797 3.244c.423-.282.595-.78.386-1.112-.21-.333-.722-.374-1.144-.092-.422.281-.595.779-.385 1.111.21.332.721.374 1.144.092Zm-3.692 3.045c.24.382.066.937-.39 1.24-.455.305-1.02.242-1.26-.14-.24-.381-.066-.936.39-1.24.456-.304 1.02-.241 1.26.14Zm3.306 6.581c.49-.327.711-.868.495-1.21-.215-.343-.787-.356-1.276-.03-.49.327-.711.869-.496 1.21.216.343.788.356 1.277.03Zm5.465-1.966c.248.394-.043 1.041-.65 1.446-.607.404-1.3.413-1.548.02-.248-.394.043-1.04.65-1.445.606-.405 1.3-.414 1.548-.02Zm1.092-3.353c.544-.363.805-.945.581-1.3-.223-.355-.847-.348-1.392.015-.545.364-.805.946-.582 1.3.224.356.847.349 1.392-.015ZM10.85 61.638v-12.6h5.76c1.152 0 2.142.186 2.97.558.84.372 1.488.912 1.944 1.62.456.696.684 1.524.684 2.484 0 .948-.228 1.77-.684 2.466-.456.696-1.104 1.236-1.944 1.62-.828.372-1.818.558-2.97.558h-3.78l1.584-1.548v4.842H10.85Zm3.564-4.464-1.584-1.638h3.564c.744 0 1.296-.162 1.656-.486.372-.324.558-.774.558-1.35 0-.588-.186-1.044-.558-1.368-.36-.324-.912-.486-1.656-.486H12.83l1.584-1.638v6.966Zm11.882 4.464V51.072l.792.792h-4.662v-2.826h11.232v2.826h-4.644l.792-.792v10.566h-3.51Zm16.907-5.04V53.97h5.94v2.628h-5.94Zm1.692-7.812c.972 0 1.86.162 2.664.486.805.312 1.5.762 2.089 1.35a6.057 6.057 0 0 1 1.385 2.088c.337.792.505 1.668.505 2.628 0 .96-.168 1.842-.505 2.646a6.098 6.098 0 0 1-1.386 2.07 6.186 6.186 0 0 1-2.087 1.368c-.805.312-1.693.468-2.665.468-1.176 0-2.226-.204-3.15-.612a6.234 6.234 0 0 1-2.303-1.764l2.25-2.052c.407.48.858.846 1.35 1.098a3.69 3.69 0 0 0 1.673.378c.48 0 .918-.084 1.314-.252a2.771 2.771 0 0 0 1.008-.72c.288-.324.505-.708.648-1.152.157-.444.234-.936.234-1.476 0-.54-.077-1.032-.233-1.476a3.019 3.019 0 0 0-.648-1.134 2.68 2.68 0 0 0-1.008-.738 3.331 3.331 0 0 0-1.315-.252 3.69 3.69 0 0 0-1.674.378 4.429 4.429 0 0 0-1.35 1.098l-2.25-2.052a5.991 5.991 0 0 1 2.304-1.764c.925-.408 1.974-.612 3.15-.612Zm16.52 12.852-3.546-5.994 2.862-1.692 4.698 7.686h-4.014Zm-8.028 0v-12.6h3.546v12.6h-3.546Zm2.52-4.824v-2.88h4.572v2.88h-4.572Zm5.166-1.098-3.294-.36 3.87-6.318h3.744l-4.32 6.678ZM72.64 61.89c-.996 0-1.92-.156-2.772-.468a6.658 6.658 0 0 1-2.196-1.368 6.423 6.423 0 0 1-1.44-2.07c-.348-.804-.522-1.686-.522-2.646s.174-1.836.522-2.628c.348-.804.828-1.5 1.44-2.088a6.425 6.425 0 0 1 2.196-1.35 7.735 7.735 0 0 1 2.772-.486c1.164 0 2.202.204 3.114.612a5.991 5.991 0 0 1 2.304 1.764l-2.268 2.052a4.429 4.429 0 0 0-1.35-1.098 3.432 3.432 0 0 0-1.62-.378c-.516 0-.99.084-1.422.252a3.076 3.076 0 0 0-1.116.738c-.3.312-.54.69-.72 1.134a4.141 4.141 0 0 0-.252 1.476c0 .54.084 1.032.252 1.476.18.444.42.828.72 1.152.312.312.684.552 1.116.72.432.168.906.252 1.422.252.6 0 1.14-.126 1.62-.378a4.429 4.429 0 0 0 1.35-1.098l2.268 2.052a6.234 6.234 0 0 1-2.304 1.764c-.912.408-1.95.612-3.114.612Zm7.028-.252v-12.6h11.826v12.6h-3.528V51.072l.792.792h-6.354l.774-.792v10.566h-3.51Zm14.52 0v-12.6h5.76c1.152 0 2.142.186 2.97.558.84.372 1.488.912 1.944 1.62.456.696.684 1.524.684 2.484 0 .948-.228 1.77-.684 2.466-.456.696-1.104 1.236-1.944 1.62-.828.372-1.818.558-2.97.558h-3.78l1.584-1.548v4.842h-3.564Zm3.564-4.464-1.584-1.638h3.564c.744 0 1.296-.162 1.656-.486.372-.324.558-.774.558-1.35 0-.588-.186-1.044-.558-1.368-.36-.324-.912-.486-1.656-.486h-3.564l1.584-1.638v6.966Zm12.685-3.258h5.85v2.664h-5.85v-2.664Zm.252 4.968h6.588v2.754h-10.116v-12.6h9.882v2.754h-6.354v7.092Zm14.756 3.006c-.996 0-1.92-.156-2.772-.468a6.658 6.658 0 0 1-2.196-1.368 6.423 6.423 0 0 1-1.44-2.07c-.348-.804-.522-1.686-.522-2.646s.174-1.836.522-2.628c.348-.804.828-1.5 1.44-2.088a6.425 6.425 0 0 1 2.196-1.35 7.735 7.735 0 0 1 2.772-.486c1.164 0 2.202.204 3.114.612a5.991 5.991 0 0 1 2.304 1.764l-2.268 2.052a4.429 4.429 0 0 0-1.35-1.098 3.432 3.432 0 0 0-1.62-.378c-.516 0-.99.084-1.422.252a3.076 3.076 0 0 0-1.116.738c-.3.312-.54.69-.72 1.134a4.141 4.141 0 0 0-.252 1.476c0 .54.084 1.032.252 1.476.18.444.42.828.72 1.152.312.312.684.552 1.116.72.432.168.906.252 1.422.252.6 0 1.14-.126 1.62-.378a4.429 4.429 0 0 0 1.35-1.098l2.268 2.052a6.234 6.234 0 0 1-2.304 1.764c-.912.408-1.95.612-3.114.612Zm12.902 0c-.996 0-1.92-.156-2.772-.468a6.658 6.658 0 0 1-2.196-1.368 6.423 6.423 0 0 1-1.44-2.07c-.348-.804-.522-1.686-.522-2.646s.174-1.836.522-2.628c.348-.804.828-1.5 1.44-2.088a6.425 6.425 0 0 1 2.196-1.35 7.735 7.735 0 0 1 2.772-.486c1.164 0 2.202.204 3.114.612a5.991 5.991 0 0 1 2.304 1.764l-2.268 2.052a4.429 4.429 0 0 0-1.35-1.098 3.432 3.432 0 0 0-1.62-.378c-.516 0-.99.084-1.422.252a3.076 3.076 0 0 0-1.116.738c-.3.312-.54.69-.72 1.134a4.141 4.141 0 0 0-.252 1.476c0 .54.084 1.032.252 1.476.18.444.42.828.72 1.152.312.312.684.552 1.116.72.432.168.906.252 1.422.252.6 0 1.14-.126 1.62-.378a4.429 4.429 0 0 0 1.35-1.098l2.268 2.052a6.234 6.234 0 0 1-2.304 1.764c-.912.408-1.95.612-3.114.612Z"/></svg>