<svg width="48" height="48" fill="none" xmlns="http://www.w3.org/2000/svg"><rect opacity=".5" x="11" y="10.235" width="25" height="26.471" rx="12.5" fill="#0C6"/><path d="M5.16 39.733c2.823-3.602 10.294-11.209 17.592-12.814-.967 2.952-2.676 10.1-1.771 15.081 1.694-3.952 8.124-13.055 20.295-17.852 1.45-1.006 3.894-5.11 2.08-13.481-.222-.221-1.78-.923-6.244-1.964-.598-.217-2.167-.978-3.666-2.288-1.875-1.638-13.556 1.957-16.241 4.1-1.941-.365-6.134-.454-7.377 2.119-1.242 2.572.049 3.673.85 3.901-2.136 1.46-6.46 4.766-6.678 6.305 2.488-1.734 8.276-5.257 11.523-5.48-.972-1.57-1.89-4.71 2.208-4.722 3.646-2.08 11.652-5.998 14.513-5.029 1.248.73 3.866 2.198 4.355 2.226.61.035 3.507.404 3.538.763.013.156-.199.366-.431.598-.304.302-.644.64-.57.94.055.217.614.555 1.262.947.933.564 2.049 1.239 2.098 1.821.017.21.068.438.12.675.196.878.42 1.89-.883 2.65-.188.11-.387.233-.593.36-1.6.985-3.61 2.225-4.435-.264-.47-1.42-.485-2.695-.498-3.752-.012-1.034-.021-1.858-.454-2.4-.873-1.096-3.04-2.075-4.725-1.469-1.349.484-3.062 1.454-3.75 1.878.87.373 2.68 1.095 2.95.998.065-.024.225-.147.45-.319.934-.718 2.972-2.283 3.783-.97 1.005 1.626 1.207 1.969.538 3.296-.121.238-.28.518-.453.823-.791 1.393-1.879 3.308-.95 4.187 1.132 1.073 4.31 1.688 6.273.243 1.57-1.156 2.611-1.986 2.936-2.257-.14 1.43-.886 4.33-2.748 4.5-2.326.212-9.97 2.264-11.014 3.264-.01-1.506.193-4.937 1.094-6.61-5.438.736-18.046 5.766-24.977 19.996Z" fill="#fff"/><path d="M25.975 13.605c-1.23.866-3.963 3.472-5.059 6.971 2.424-1.125 7.749-3.273 9.659-2.868-1.315-.483-4.38-1.265-6.123-.528-.01-.451.283-1.798 1.523-3.575ZM19.67 16.343c.417-.281.599-.76.407-1.068-.192-.308-.686-.33-1.103-.05-.416.282-.599.76-.407 1.069.193.308.686.33 1.103.049ZM19.146 20.103c.179.287-.014.747-.431 1.029-.417.281-.9.277-1.078-.01-.178-.287.014-.748.431-1.029.417-.281.9-.277 1.078.01ZM14.826 21.561c.558-.376.816-.992.577-1.376-.239-.384-.885-.39-1.443-.013-.557.376-.816.992-.577 1.376.24.384.885.39 1.443.014ZM9.942 22.464c.29.465.022 1.18-.597 1.599-.62.418-1.356.38-1.646-.085-.289-.465-.021-1.18.598-1.598.62-.418 1.356-.38 1.645.084ZM13.05 26.113c.47-.317.661-.877.429-1.25-.233-.375-.802-.421-1.271-.104-.47.316-.661.876-.428 1.25.232.374.801.42 1.27.104ZM8.948 29.54c.267.428.073 1.053-.433 1.395-.506.342-1.133.271-1.4-.158-.268-.429-.074-1.054.433-1.396.506-.341 1.133-.27 1.4.158ZM12.621 36.942c.544-.367.79-.976.55-1.361-.239-.385-.874-.4-1.418-.033-.543.367-.79.977-.55 1.362.24.385.874.4 1.418.032ZM18.693 34.732c.275.442-.048 1.17-.722 1.625-.674.456-1.445.466-1.72.023-.276-.443.047-1.17.722-1.626.674-.455 1.444-.465 1.72-.022ZM19.906 30.96c.606-.41.895-1.065.647-1.464-.249-.4-.941-.391-1.547.017-.606.41-.895 1.064-.647 1.463.249.4.941.392 1.547-.017Z" fill="#fff"/></svg>