<svg width="24" height="24" viewBox="0 0 24 24" fill="none" xmlns="http://www.w3.org/2000/svg">
<g clip-path="url(#clip0_711_40362)">
<path d="M12 0.00012207C5.37253 0.00012207 0 5.37265 0 12.0001C0 18.6276 5.37253 24.0001 12 24.0001C18.6275 24.0001 24 18.6276 24 12.0001C24 5.37265 18.6275 0.00012207 12 0.00012207Z" fill="#40B3E0"/>
<path d="M17.8388 6.90296L15.6954 17.7092C15.6954 17.7092 15.3957 18.4587 14.5714 18.099L9.62532 14.307L7.82682 13.4377L4.79926 12.4185C4.79926 12.4185 4.33463 12.2537 4.28963 11.8939C4.24473 11.5342 4.81426 11.3394 4.81426 11.3394L16.8495 6.61815C16.8495 6.61815 17.8388 6.18353 17.8388 6.90296Z" fill="white"/>
<path d="M9.24452 17.588C9.24452 17.588 9.10014 17.5745 8.92023 17.0048C8.74042 16.4353 7.82617 13.4378 7.82617 13.4378L15.0953 8.8215C15.0953 8.8215 15.515 8.56669 15.5 8.8215C15.5 8.8215 15.5749 8.86641 15.3501 9.07622C15.1253 9.28613 9.63967 14.2171 9.63967 14.2171" fill="#D2E5F1"/>
<path d="M11.5227 15.761L9.56634 17.5447C9.56634 17.5447 9.41344 17.6607 9.24609 17.588L9.62072 14.2748" fill="#B5CFE4"/>
</g>
<defs>
<clipPath id="clip0_711_40362">
<rect y="0.00012207" width="24" height="24" rx="12" fill="white"/>
</clipPath>
</defs>
</svg>
