<svg width="53" height="64" viewBox="0 0 53 64" fill="none" xmlns="http://www.w3.org/2000/svg">
<path fill-rule="evenodd" clip-rule="evenodd" d="M1.44611 0.597168V54.6511C1.44611 57.2189 3.71664 59.2788 6.54707 59.2788H21.3863C24.2168 59.2788 26.4873 60.8348 26.4873 63.4027C26.4873 60.8348 28.7805 59.2788 31.6109 59.2788H46.4025C49.233 59.2788 51.5035 57.2189 51.5035 54.6511V0.597168H1.44611Z" fill="#F71A22" stroke="#1A1A1A" stroke-width="0.507937"/>
<path fill-rule="evenodd" clip-rule="evenodd" d="M25.6265 8.063L24.3567 5.01538H28.4202L27.1503 8.063L30.198 6.79316V10.8567L27.1503 9.58681L28.4202 12.6344H24.3567L25.6265 9.58681L22.5789 10.8567V6.79316L25.6265 8.063Z" fill="white" stroke="#333333" stroke-width="0.304762"/>
<path fill-rule="evenodd" clip-rule="evenodd" d="M11.5936 45.9889C11.5936 45.9889 11.3302 46.9104 11.2346 47.5679C11.1325 48.2696 11.1978 48.6912 11.1978 48.6912C11.1978 48.6912 10.9501 48.1997 10.9101 47.6558C10.8678 47.0812 11.0329 46.4714 11.0329 46.4714L11.5029 45.7437L11.5936 45.9889Z" fill="white" stroke="#1A1A1A" stroke-width="0.214207"/>
<path fill-rule="evenodd" clip-rule="evenodd" d="M13.638 28.0064C13.5227 28.159 13.3937 28.3873 13.3443 28.572C13.2869 28.7865 13.3318 29.1376 13.3769 29.3551C13.436 29.6394 13.7032 30.1817 13.7032 30.1817L14.8996 30.1926C14.8996 30.1926 15.3304 29.4838 15.3891 29.1267C15.4302 28.8762 15.3646 28.5245 15.2694 28.2892C15.1818 28.0726 15.0207 27.7646 14.8126 27.6584C14.5772 27.5382 14.2643 27.55 14.0186 27.6475C13.8728 27.7054 13.7326 27.8812 13.638 28.0064Z" fill="white" stroke="#1A1A1A" stroke-width="0.253968"/>
<path fill-rule="evenodd" clip-rule="evenodd" d="M13.909 28.9744C13.909 28.9744 13.9125 28.6632 13.9743 28.5502C14.0619 28.39 14.0345 28.3822 14.2027 28.3109C14.278 28.279 14.3954 28.2686 14.4746 28.2892C14.5884 28.3188 14.7366 28.4082 14.8009 28.5067C14.9148 28.6815 14.9205 29.1919 14.9205 29.1919C14.9205 29.1919 14.6118 28.8341 14.4311 28.8004C14.3149 28.7787 14.3254 28.7514 14.2135 28.7895C14.1124 28.824 13.909 28.9744 13.909 28.9744Z" fill="#1A1A1A" stroke="#1A1A1A" stroke-width="0.253968"/>
<path fill-rule="evenodd" clip-rule="evenodd" d="M11.9744 46.1666C11.9744 46.1666 11.7111 47.0881 11.6154 47.7457C11.5134 48.4473 11.5787 48.8689 11.5787 48.8689C11.5787 48.8689 11.331 48.3775 11.2909 47.8336C11.2486 47.259 11.4138 46.6492 11.4138 46.6492L11.8837 45.9214L11.9744 46.1666Z" fill="white" stroke="#1A1A1A" stroke-width="0.214207"/>
<path fill-rule="evenodd" clip-rule="evenodd" d="M12.3904 46.2804C12.3904 46.2804 12.1271 47.2019 12.0314 47.8594C11.9294 48.5611 11.9947 48.9827 11.9947 48.9827C11.9947 48.9827 11.747 48.4912 11.707 47.9473C11.6646 47.3727 11.8298 46.7629 11.8298 46.7629L12.2997 46.0352L12.3904 46.2804Z" fill="white" stroke="#1A1A1A" stroke-width="0.214207"/>
<path fill-rule="evenodd" clip-rule="evenodd" d="M12.7282 45.4741C12.7282 45.4741 12.7592 46.4319 12.6918 47.093C12.6199 47.7983 12.4539 48.1914 12.4539 48.1914C12.4539 48.1914 12.8138 47.7751 12.9851 47.2573C13.1661 46.7103 13.1545 46.0786 13.1545 46.0786L12.8759 45.2583L12.7282 45.4741Z" fill="white" stroke="#1A1A1A" stroke-width="0.214207"/>
<path fill-rule="evenodd" clip-rule="evenodd" d="M20.072 38.5232C20.072 38.5232 14.7783 40.9383 13.0444 42.6653C12.3768 43.3303 11.8544 44.5191 11.4387 45.3647C11.2631 45.7219 10.95 46.5981 10.95 46.5981C10.95 46.5981 11.5086 47.0417 11.8576 47.0635C12.1154 47.0795 12.6025 46.9617 12.8117 46.8308C13.0366 46.6899 13.2732 46.502 13.44 46.2955C13.6738 46.006 13.8786 45.3176 13.98 44.9595C14.0319 44.7762 14.0217 44.6906 14.0217 44.6906C14.0217 44.6906 14.1579 44.8625 14.197 45.0622C14.2507 45.3362 14.285 45.861 14.285 45.861C14.285 45.861 14.7882 45.3644 14.8827 45.0389C14.9372 44.8512 14.8827 44.3874 14.8827 44.3874C14.8827 44.3874 15.1253 44.8294 15.162 45.0389C15.2029 45.2731 15.1154 45.8301 15.1154 45.8301C15.1154 45.8301 15.7019 45.3175 15.8135 45.0157C15.8911 44.8061 15.8135 44.271 15.8135 44.271C15.8135 44.271 16.035 44.7345 16.0928 44.9458C16.1449 45.1363 16.1859 45.5974 16.1859 45.5974C16.1859 45.5974 16.5391 45.1859 16.6047 44.9691C16.6897 44.6885 16.6047 43.9918 16.6047 43.9918C16.6047 43.9918 16.8301 44.4256 16.9073 44.6201C17.018 44.8991 17.2098 45.5742 17.2098 45.5742C17.2098 45.5742 17.5998 44.9144 17.6519 44.5968C17.6973 44.3199 17.5588 43.666 17.5588 43.666C17.5588 43.666 17.6945 44.2858 17.8148 44.527C17.9039 44.7056 18.2104 45.0622 18.2104 45.0622C18.2104 45.0622 18.4152 44.6496 18.4431 44.4572C18.4813 44.1938 18.3733 43.5729 18.3733 43.5729C18.3733 43.5729 18.4633 44.3288 18.6758 44.5503C18.9066 44.7908 19.723 44.9226 19.723 44.9226L21.7708 42.9213L20.072 38.5232Z" fill="white" stroke="#1A1A1A" stroke-width="0.253968"/>
<path fill-rule="evenodd" clip-rule="evenodd" d="M31.556 51.3979C31.556 51.3979 30.6186 51.5969 29.9928 51.8205C29.3251 52.0591 28.9832 52.3142 28.9832 52.3142C28.9832 52.3142 29.3014 51.8652 29.7631 51.575C30.2509 51.2684 30.8671 51.1287 30.8671 51.1287L31.7302 51.2029L31.556 51.3979Z" fill="white" stroke="#1A1A1A" stroke-width="0.214207"/>
<path fill-rule="evenodd" clip-rule="evenodd" d="M31.1654 50.9563C31.1654 50.9563 30.2279 51.1553 29.6022 51.3789C28.9345 51.6174 28.5926 51.8726 28.5926 51.8726C28.5926 51.8726 28.9107 51.4236 29.3725 51.1334C29.8603 50.8268 30.4764 50.687 30.4764 50.687L31.3396 50.7613L31.1654 50.9563Z" fill="white" stroke="#1A1A1A" stroke-width="0.214207"/>
<path fill-rule="evenodd" clip-rule="evenodd" d="M30.7631 50.5141C30.7631 50.5141 29.8256 50.7132 29.1998 50.9367C28.5322 51.1753 28.1902 51.4305 28.1902 51.4305C28.1902 51.4305 28.5084 50.9814 28.9702 50.6912C29.458 50.3846 30.0741 50.2449 30.0741 50.2449L30.9372 50.3191L30.7631 50.5141Z" fill="white" stroke="#1A1A1A" stroke-width="0.214207"/>
<path fill-rule="evenodd" clip-rule="evenodd" d="M29.327 41.4556V43.7953C29.327 43.7953 29.3455 44.3354 29.3986 44.5594C29.4451 44.7559 29.6431 45.1865 29.6431 45.1865L30.0858 44.4276V44.1115C30.0858 44.1115 30.0265 44.9794 30.0858 45.3446C30.1242 45.5814 30.3387 46.1034 30.3387 46.1034L30.6233 45.3762L30.6549 45.1232C30.6549 45.1232 30.5372 45.8222 30.56 46.2298C30.5735 46.4696 30.6865 47.0203 30.6865 47.0203L31.0343 46.4828L31.1292 46.1034C31.1292 46.1034 31.0236 46.6653 31.0343 47.0835C31.0404 47.3223 31.1292 47.874 31.1292 47.874L31.5086 47.2416L31.635 46.9254C31.635 46.9254 31.4984 47.6537 31.5086 47.9688C31.5136 48.1231 31.6034 48.4747 31.6034 48.4747L32.0461 47.874C32.0461 47.874 31.8646 48.3766 31.8247 48.6012C31.7949 48.7695 31.7931 49.1703 31.7931 49.1703C31.7931 49.1703 31.0012 49.8745 30.5917 50.0556C30.3705 50.1533 29.9934 50.0669 29.8012 50.2136C29.7338 50.2651 29.6726 50.3818 29.6748 50.4666C29.6875 50.9676 29.8851 51.5497 30.3387 51.7629C30.6789 51.9228 31.3823 51.8425 31.7299 51.6997C32.0706 51.5597 32.3686 51.1073 32.7417 51.0041C33.1546 50.8898 33.7563 51.2613 34.1644 51.1306C34.4976 51.0239 34.8989 50.6873 35.0497 50.3717C35.1888 50.0806 35.1747 49.6056 35.0814 49.2967C35.0007 49.0297 34.7019 48.5695 34.7019 48.5695C34.7019 48.5695 34.8258 48.0192 34.8284 47.7791C34.8314 47.5014 34.7019 47.1151 34.7019 47.1151C34.7019 47.1151 34.9097 47.5311 35.0181 47.8107C35.0519 47.8978 35.1446 48.0953 35.1446 48.0953C35.1446 48.0953 35.2661 47.7458 35.2711 47.5894C35.2826 47.2231 35.1762 46.6725 35.1762 46.6725C35.1762 46.6725 35.2333 47.0398 35.3975 47.2732C35.4555 47.3557 35.6505 47.4945 35.6505 47.4945V46.7041L35.4924 45.9453L35.8402 46.6725C35.8402 46.6725 36.035 45.9695 36.0299 45.6607C36.0211 45.1361 35.6505 43.9534 35.6505 43.9534L35.935 42.1828L30.9395 40.6968L29.327 41.4556Z" fill="white" stroke="#1A1A1A" stroke-width="0.253968"/>
<path fill-rule="evenodd" clip-rule="evenodd" d="M20.015 52.0002C20.015 52.0002 19.0775 52.1992 18.4518 52.4228C17.7841 52.6614 17.4422 52.9165 17.4422 52.9165C17.4422 52.9165 17.7603 52.4675 18.2221 52.1773C18.7099 51.8707 19.326 51.731 19.326 51.731L20.1892 51.8052L20.015 52.0002Z" fill="white" stroke="#1A1A1A" stroke-width="0.214207"/>
<path fill-rule="evenodd" clip-rule="evenodd" d="M19.6263 51.5586C19.6263 51.5586 18.6889 51.7576 18.0631 51.9812C17.3954 52.2197 17.0535 52.4749 17.0535 52.4749C17.0535 52.4749 17.3717 52.0259 17.8334 51.7356C18.3213 51.4291 18.9374 51.2893 18.9374 51.2893L19.8005 51.3636L19.6263 51.5586Z" fill="white" stroke="#1A1A1A" stroke-width="0.214207"/>
<path fill-rule="evenodd" clip-rule="evenodd" d="M19.224 51.1164C19.224 51.1164 18.2865 51.3154 17.6608 51.539C16.9931 51.7776 16.6512 52.0327 16.6512 52.0327C16.6512 52.0327 16.9693 51.5837 17.4311 51.2935C17.9189 50.9869 18.535 50.8472 18.535 50.8472L19.3982 50.9214L19.224 51.1164Z" fill="white" stroke="#1A1A1A" stroke-width="0.214207"/>
<path fill-rule="evenodd" clip-rule="evenodd" d="M40.6947 51.7756C40.6947 51.7756 39.7572 51.9746 39.1315 52.1982C38.4638 52.4367 38.1219 52.6919 38.1219 52.6919C38.1219 52.6919 38.44 52.2429 38.9018 51.9527C39.3896 51.6461 40.0057 51.5063 40.0057 51.5063L40.8689 51.5806L40.6947 51.7756Z" fill="white" stroke="#1A1A1A" stroke-width="0.214207"/>
<path fill-rule="evenodd" clip-rule="evenodd" d="M40.306 51.3342C40.306 51.3342 39.3686 51.5332 38.7428 51.7568C38.0751 51.9953 37.7332 52.2505 37.7332 52.2505C37.7332 52.2505 38.0514 51.8015 38.5131 51.5113C39.0009 51.2047 39.6171 51.0649 39.6171 51.0649L40.4802 51.1392L40.306 51.3342Z" fill="white" stroke="#1A1A1A" stroke-width="0.214207"/>
<path fill-rule="evenodd" clip-rule="evenodd" d="M39.9017 50.8921C39.9017 50.8921 38.9643 51.0911 38.3385 51.3146C37.6708 51.5532 37.3289 51.8084 37.3289 51.8084C37.3289 51.8084 37.6471 51.3593 38.1088 51.0691C38.5966 50.7626 39.2128 50.6228 39.2128 50.6228L40.0759 50.6971L39.9017 50.8921Z" fill="white" stroke="#1A1A1A" stroke-width="0.214207"/>
<path fill-rule="evenodd" clip-rule="evenodd" d="M13.6883 29.6986C13.341 29.7336 12.874 29.8394 12.5652 30.0022C12.2053 30.1919 11.7811 30.5597 11.5332 30.8824C11.3699 31.095 11.2954 31.4648 11.1483 31.6889C11.0393 31.8547 10.8681 32.0628 10.7137 32.1876C10.3333 32.495 9.77866 32.7256 9.31445 32.8796C9.12256 32.9433 8.88232 32.8693 8.7074 32.9707C8.57819 33.0456 8.43492 33.2192 8.40387 33.3653C8.34739 33.631 8.44674 33.9966 8.55563 34.2455C8.59511 34.3357 8.73775 34.5187 8.73775 34.5187C8.73775 34.5187 8.72329 35.0153 8.85916 35.2168C8.92132 35.3089 9.06861 35.4915 9.16269 35.5506C9.30418 35.6397 9.64833 35.8238 9.64833 35.8238C9.64833 35.8238 9.70118 36.1932 9.8001 36.3095C9.94524 36.4801 10.4679 36.6434 10.4679 36.6434L12.1676 36.613C12.1676 36.613 12.5649 36.9769 12.735 37.1963C12.8472 37.3411 12.9368 37.7189 12.9368 37.7189C12.9368 37.7189 13.2015 37.271 13.189 37.0498C13.1777 36.8513 13.215 36.7288 13.215 36.7288C13.215 36.7288 13.3285 36.9253 13.4318 37.191C13.5039 37.3763 13.5768 37.6968 13.5768 37.6968C13.5768 37.6968 13.9014 37.4504 13.9412 37.2833C13.9879 37.0876 14.0589 37.148 14.0589 36.6289C14.0589 36.6289 14.1554 37.2547 14.1709 37.4932C14.1841 37.6964 14.0852 38.054 14.0852 38.054C14.0852 38.054 14.4572 37.8124 14.5655 37.6146C14.6177 37.5193 14.822 37.1817 14.8763 36.8744C14.9534 36.4387 14.9328 36.3441 14.9328 36.3441C14.9328 36.3441 14.9591 36.4633 14.9411 36.8985C14.9267 37.2455 14.9193 37.3934 14.9205 37.5187C14.9224 37.7051 14.9509 37.9831 14.9509 37.9831C14.9509 37.9831 15.2057 37.8297 15.3243 37.5843C15.4647 37.2937 15.6466 36.7956 15.6466 36.7956C15.6466 36.7956 15.4567 37.4425 15.4761 37.8271C15.4831 37.9671 15.5778 38.2831 15.5778 38.2831L16.1494 37.5028C16.1494 37.5028 15.881 38.4048 15.8707 38.7073C15.8648 38.8805 15.901 39.284 15.901 39.284C15.901 39.284 16.21 38.8546 16.2956 38.6466C16.3881 38.422 16.5971 38.2753 16.5971 38.2753C16.5971 38.2753 16.4832 38.4322 16.5081 38.677C16.5304 38.8974 16.6574 39.1857 16.6295 39.4055C16.6182 39.4944 16.5081 39.6786 16.5081 39.6786C16.5081 39.6786 16.828 39.5626 16.933 39.4662C17.0745 39.3362 17.237 39.1884 17.237 39.1884L17.0544 39.6483C17.0544 39.6483 16.7187 40.0449 16.6902 40.2553C16.6637 40.4508 16.8662 40.8889 16.8662 40.8889C16.8662 40.8889 16.9372 40.6487 16.9937 40.5589C17.107 40.379 17.2406 40.3115 17.2406 40.3115C17.2406 40.3115 17.2737 40.747 17.3043 41.0531C17.3239 41.2485 17.5416 41.6632 17.5416 41.6632L17.8466 41.1887L17.9605 41.1103C17.9605 41.1103 17.803 41.6553 17.8325 42.036C17.8458 42.2073 18.0161 42.5783 18.0161 42.5783L18.2873 42.2394L18.5245 42.0335C18.5245 42.0335 18.3442 42.5442 18.355 42.8834C18.3627 43.1226 18.5245 43.6629 18.5245 43.6629L18.8634 43.1884L18.9732 42.9527C18.9732 42.9527 18.8619 43.5154 18.8882 43.8614C18.9043 44.0735 19.0824 44.5435 19.0824 44.5435L19.5413 43.8663L19.6769 43.7742C19.6769 43.7742 19.381 44.5753 19.3916 45.0074C19.3972 45.2311 19.5752 45.7305 19.5752 45.7305L19.9481 45.1204L20.0619 45.0283C20.0619 45.0283 19.8698 45.5243 19.8464 45.8322C19.8308 46.0372 19.9481 46.51 19.9481 46.51L20.2855 46.3259C20.2855 46.3259 20.1613 46.7242 20.1274 47.0756C20.1108 47.2484 20.215 47.6476 20.215 47.6476L20.5485 47.3766C20.5485 47.3766 20.4086 47.7643 20.4134 48.1031C20.4165 48.3215 20.6041 48.5803 20.6358 48.7965C20.6588 48.9529 20.6259 49.3232 20.6259 49.3232L21.1005 48.9504L21.316 48.7865C21.316 48.7865 21.091 49.1677 20.9649 49.4249C20.9008 49.5556 20.7615 49.8655 20.7615 49.8655C20.7615 49.8655 19.7898 50.5719 19.3041 50.7129C19.05 50.7867 18.6121 50.562 18.4228 50.7468C18.3062 50.8607 18.3456 51.132 18.3889 51.2891C18.5038 51.7051 18.7956 52.3313 19.2024 52.4754C19.5724 52.6064 20.0662 52.1443 20.4565 52.1025C21.2575 52.0168 22.3607 52.4093 23.1341 52.1837C23.5245 52.0698 24.0591 51.8665 24.2187 51.4925C24.3514 51.1816 24.0831 50.374 24.0831 50.374L24.2187 49.4588L24.5576 50.1367L24.8288 49.6622L24.5915 48.442L24.8966 49.1199L25.1338 48.6454V47.493L25.5067 48.1369C25.5067 48.1369 25.6525 47.6455 25.6447 47.4294C25.6306 47.0385 25.4184 46.5164 25.4184 46.5164L25.7778 46.9168C25.7778 46.9168 25.91 46.497 25.8903 46.3142C25.8558 45.9936 25.5879 45.4849 25.5879 45.4849C25.5879 45.4849 25.667 45.6815 25.8117 45.7644C25.8829 45.8051 26.0829 45.7983 26.0829 45.7983C26.0829 45.7983 26.0309 45.1408 25.9696 44.8658C25.8871 44.495 25.8046 43.9852 25.8046 43.9852L26.049 44.2052C26.049 44.2052 26.0755 43.8904 26.0557 43.7576C26.0057 43.4218 25.8481 42.9792 25.8481 42.9792C25.8481 42.9792 25.9469 43.147 26.0829 43.324C26.1792 43.4494 26.4557 43.6968 26.4557 43.6968C26.4557 43.6968 26.4762 43.0275 26.4218 42.7478C26.3536 42.3973 26.0151 41.6293 26.0151 41.6293C26.0151 41.6293 26.514 42.6878 26.6789 43.1116C26.7326 43.2496 26.8285 43.4596 26.8285 43.4596C26.8285 43.4596 27.0068 42.9896 27.0508 42.7795C27.0817 42.6314 27.0993 42.4387 27.0993 42.4387C27.0993 42.4387 27.0259 42.9883 27.1317 43.2652C27.2154 43.4842 27.6336 43.8642 27.6336 43.8642C27.6336 43.8642 27.7258 43.3091 27.7631 43.0709C27.8087 42.7797 27.9089 42.6288 27.9089 42.6288C27.9089 42.6288 27.8797 42.7943 27.9736 43.0709C28.0525 43.3031 28.427 43.7509 28.427 43.7509C28.427 43.7509 28.5629 43.3591 28.5889 43.1842C28.6331 42.8863 28.6741 42.7789 28.6741 42.7789C28.6741 42.7789 28.7723 42.9133 28.9127 43.2004C28.9754 43.3288 29.1879 43.589 29.1879 43.589C29.1879 43.589 29.4215 43.1958 29.447 43.0061C29.4987 42.6215 29.5059 42.3946 29.5059 42.3946C29.5059 42.3946 29.6911 42.4484 29.7708 42.7956C29.823 43.0229 29.7708 43.5728 29.7708 43.5728C29.7708 43.5728 30.1636 43.3588 30.2565 43.2004C30.3758 42.9972 30.4015 42.9099 30.3699 42.6765C30.352 42.545 30.3989 42.3638 30.3989 42.3638C30.3989 42.3638 30.5299 42.4825 30.5965 42.7147C30.6796 43.0043 30.6289 43.7185 30.6289 43.7185C30.6289 43.7185 30.9489 43.4466 31.0324 43.2072C31.0773 43.0787 31.101 42.9074 31.101 42.9074C31.101 42.9074 31.0893 43.2196 31.1404 43.4845C31.1657 43.6156 31.3089 43.8966 31.3089 43.8966C31.3089 43.8966 31.6196 43.4383 31.6975 43.2166C31.7594 43.0403 31.7947 42.9466 31.7947 42.9466C31.7947 42.9466 31.7537 43.1524 31.8108 43.3785C31.8604 43.5744 32.1185 43.9776 32.1185 43.9776C32.1185 43.9776 32.3753 43.4113 32.4261 43.1518C32.4569 42.9945 32.4423 42.8938 32.4423 42.8938C32.4423 42.8938 32.5952 43.19 32.6851 43.4271C32.763 43.6323 32.9928 44.0909 32.9928 44.0909C32.9928 44.0909 33.185 43.6232 33.2194 43.4109C33.263 43.1424 33.2885 43.1027 33.2885 43.1027C33.2885 43.1027 33.364 43.2245 33.4947 43.508C33.5635 43.6573 33.8023 43.9614 33.8023 43.9614C33.8023 43.9614 33.9123 43.6023 33.9318 43.4433C33.9728 43.1106 33.9318 42.3261 33.9318 42.3261C33.9318 42.3261 34.198 43.1686 34.2437 43.5426C34.2643 43.7107 34.2395 44.1071 34.2395 44.1071C34.2395 44.1071 34.4393 43.8697 34.4973 43.7513C34.5818 43.5785 34.6766 43.4349 34.6766 43.4349L34.7844 43.8966L34.8547 44.609L35.2109 44.1395L35.3268 43.8217L35.3404 44.6414L35.4861 45.1433L35.7452 44.8195L35.8935 44.4873C35.8935 44.4873 35.7796 44.9272 35.798 45.2472C35.8068 45.4002 35.9233 45.7424 35.9233 45.7424L36.2471 45.289L36.34 44.9816L36.3119 45.6938L36.3281 46.2767L36.7929 45.6877L36.9249 45.3888L36.8809 46.2379L36.9469 46.898L37.233 46.568L37.406 46.1822L37.387 46.744L37.6071 47.4922L37.8491 47.0301L38.0851 46.4632C38.0851 46.4632 38.026 46.9198 38.0692 47.3822C38.091 47.6151 38.2892 48.1304 38.2892 48.1304C38.2892 48.1304 38.5336 47.9437 38.6929 47.7176C38.8523 47.4915 38.9044 47.3946 38.9044 47.3946C38.9044 47.3946 38.9021 47.576 38.9836 47.8496C39.0651 48.1232 39.2135 48.4385 39.2135 48.4385C39.2135 48.4385 39.4444 48.1944 39.4996 48.0644C39.6038 47.8185 39.7697 47.5294 39.7697 47.5294C39.7697 47.5294 39.5386 48.1606 39.6096 48.5705C39.6481 48.7928 39.8334 49.0527 39.8737 49.2747C39.9255 49.5605 39.8737 50.2429 39.8737 50.2429C39.8737 50.2429 39.3361 50.4605 39.1475 50.617C39.0316 50.7132 38.8619 50.8643 38.8394 51.0131C38.792 51.3271 39.2135 52.0034 39.2135 52.0034C39.2135 52.0034 39.7676 52.1132 40.0057 52.0914C40.3697 52.0581 40.8468 51.9062 41.172 51.7393C41.8757 51.3782 42.5504 50.477 43.2626 50.1329C43.3361 50.0974 43.4603 50.1145 43.5266 50.0669C43.7052 49.9388 43.6901 49.6616 43.752 49.4507C43.8059 49.267 43.8164 48.9929 43.752 48.8126C43.6258 48.4591 43.2969 48.1807 43.1305 47.8443C43.0163 47.6132 42.9555 47.2649 42.9325 47.0081C42.8889 46.5208 42.8642 45.8433 43.0205 45.3796C43.0918 45.168 43.3654 44.9745 43.4386 44.7635C43.6641 44.1135 43.4427 43.1452 43.603 42.4761C43.6744 42.178 43.9415 41.8353 43.9996 41.5342C44.1655 40.6753 43.9501 38.6189 43.9501 38.6189C43.9501 38.6189 43.1486 38.1051 42.919 37.7962C42.6776 37.4715 42.4628 36.527 42.4628 36.527C42.4628 36.527 42.6791 37.445 42.9089 37.7664C43.2413 38.2312 44.3765 38.897 44.3765 38.897C44.3765 38.897 44.3252 37.3773 44.0492 36.7749C43.8091 36.251 43.2291 35.7026 42.8094 35.3077C42.5123 35.0282 41.9388 34.7843 41.7191 34.4952C41.3947 34.0682 40.5797 33.5411 40.2578 33.1122C39.7523 32.4388 38.9516 32.2648 38.2102 31.8657C37.7335 31.6091 37.48 31.2657 36.9387 31.254C36.5155 31.2448 35.8195 31.1728 35.8195 31.1728L36.6623 30.6274C36.6623 30.6274 35.3954 30.4912 34.8776 30.6274C34.4976 30.7274 33.7373 31.2719 33.7373 31.2719L34.2931 30.598C34.2931 30.598 33.4577 30.6362 33.0433 30.677C32.4043 30.7399 31.5678 31.0746 30.944 31.0945C28.8588 31.1612 26.5033 31.1708 24.2171 30.9071C23.5365 30.8286 22.4659 30.4881 21.7895 30.3795C21.3138 30.3032 20.203 30.6274 20.203 30.6274L20.9366 30.1421C20.9366 30.1421 20.2031 30.0232 19.9056 30.0821C19.6951 30.1237 19.3106 30.4787 19.3106 30.4787L19.6577 29.8838C19.6577 29.8838 18.7999 29.7529 18.4678 29.8838C18.1839 29.9957 17.7242 30.5778 17.7242 30.5778L18.22 29.6855C18.22 29.6855 17.4275 29.6497 17.1293 29.7842C16.8219 29.9229 16.3856 30.5283 16.3856 30.5283C16.3856 30.5283 16.7699 29.9366 16.8225 29.646C16.8908 29.2693 16.9465 28.7101 16.6936 28.3764C16.5001 28.121 16.1602 27.8841 15.8403 27.9007C15.5214 27.9173 15.1121 28.1593 14.8984 28.3965C14.6839 28.6345 14.5623 29.0734 14.5017 29.388C14.4849 29.4756 14.5017 29.6855 14.5017 29.6855C14.5017 29.6855 13.9416 29.6731 13.6883 29.6986Z" fill="white" stroke="#1A1A1A" stroke-width="0.253968"/>
<path fill-rule="evenodd" clip-rule="evenodd" d="M10.9784 34.8262C10.9042 34.9647 10.701 35.0959 10.6732 35.1216C10.5306 35.2537 10.2073 35.4038 9.99068 35.455C9.9563 35.4631 9.784 35.4763 9.64941 35.4708C9.51482 35.4654 9.16095 35.4246 9.16095 35.4246C9.16095 35.4246 9.5436 35.9727 9.69415 35.9788C9.8447 35.9848 9.94915 35.9929 10.1097 35.955C10.4163 35.8826 10.7707 35.7278 11.0224 35.4946C11.166 35.3617 11.2566 35.1899 11.3399 35.0343C11.4232 34.8787 11.5282 34.5513 11.5282 34.5513C11.5282 34.5513 11.0526 34.6876 10.9784 34.8262Z" fill="#1A1A1A"/>
<path fill-rule="evenodd" clip-rule="evenodd" d="M11.915 32.6034C11.9151 32.6415 11.9078 32.6793 11.8935 32.7146C11.8793 32.7499 11.8585 32.7819 11.8322 32.8089C11.8058 32.8359 11.7746 32.8573 11.7402 32.8719C11.7058 32.8865 11.669 32.894 11.6317 32.894C11.5945 32.894 11.5577 32.8865 11.5233 32.8719C11.4889 32.8573 11.4576 32.8359 11.4313 32.8089C11.405 32.7819 11.3842 32.7499 11.3699 32.7146C11.3557 32.6793 11.3484 32.6415 11.3484 32.6034C11.3484 32.5652 11.3557 32.5274 11.3699 32.4922C11.3842 32.4569 11.405 32.4249 11.4313 32.3979C11.4576 32.3709 11.4889 32.3495 11.5233 32.3349C11.5577 32.3203 11.5945 32.3127 11.6317 32.3127C11.669 32.3127 11.7058 32.3203 11.7402 32.3349C11.7746 32.3495 11.8058 32.3709 11.8322 32.3979C11.8585 32.4249 11.8793 32.4569 11.8935 32.4922C11.9078 32.5274 11.9151 32.5652 11.915 32.6034Z" fill="#1A1A1A"/>
<path fill-rule="evenodd" clip-rule="evenodd" d="M9.3371 33.6834C9.30561 33.7314 9.1122 33.773 9.07157 33.783C8.9928 33.8024 8.84671 33.7612 8.75173 33.7315C8.73944 33.7277 8.66571 33.676 8.61681 33.6204C8.5679 33.5648 8.49798 33.4975 8.49798 33.4975L8.31329 33.739C8.31329 33.739 8.35579 33.797 8.41647 33.866C8.47714 33.9349 8.54653 34.0202 8.6625 34.0565C8.81088 34.1028 9.01749 34.1297 9.18631 34.0882C9.34132 34.0501 9.44462 33.9585 9.52372 33.8381C9.57939 33.7533 9.60221 33.6911 9.62023 33.6058C9.63824 33.5204 9.57321 33.3762 9.57321 33.3762C9.57321 33.3762 9.34459 33.672 9.3371 33.6834Z" fill="#1A1A1A"/>
<path fill-rule="evenodd" clip-rule="evenodd" d="M15.0496 29.5118C15.0496 29.5118 15.0846 29.2269 15.1948 29.0555C15.2789 28.9246 15.3272 28.8176 15.4644 28.7444C15.5808 28.6823 15.7178 28.5861 15.8378 28.6407C16.0513 28.7378 16.146 28.9911 16.1904 29.2214C16.221 29.3803 16.1609 29.5815 16.1282 29.7399C16.0773 29.9856 15.9415 30.1548 15.9415 30.1548C15.9415 30.1548 15.8457 29.8082 15.6719 29.574C15.6005 29.4779 15.5011 29.4058 15.3815 29.4081C15.2449 29.4107 15.0496 29.5118 15.0496 29.5118Z" fill="#1A1A1A" stroke="#1A1A1A" stroke-width="0.253968"/>
<path d="M16.5624 35.4954C16.5624 35.4954 16.7047 35.873 16.6525 36.1257C16.6274 36.2471 16.4499 36.711 16.4499 36.711C16.4499 36.711 16.1505 36.4085 16.0447 36.2608C15.932 36.1035 15.7892 35.9367 15.7892 35.9367C15.7892 35.9367 15.7996 36.1841 15.7745 36.3958C15.7554 36.5579 15.6395 36.8235 15.6395 36.8235" stroke="#1A1A1A" stroke-width="0.253968"/>
<path fill-rule="evenodd" clip-rule="evenodd" d="M42.907 44.5047C42.907 44.5047 42.9096 44.9655 42.9784 45.1466C43.031 45.2854 43.2637 45.5508 43.2637 45.5508C43.2637 45.5508 43.5115 45.014 43.5252 44.7662C43.5422 44.4603 43.121 43.9816 43.121 43.9816C43.121 43.9816 43.4746 44.2964 43.5966 44.4571C43.6757 44.5615 43.8105 44.8376 43.8105 44.8376C43.8105 44.8376 43.9239 44.3682 43.8819 44.1718C43.8197 43.8811 43.3616 43.1059 43.3616 43.1059L43.9294 43.7201C43.9294 43.7201 44.0603 43.3911 44.0483 43.2445C44.0249 42.9579 43.5209 42.1339 43.5209 42.1339L44.0721 42.7452C44.0721 42.7452 44.1363 42.1761 44.0959 41.9368C44.0425 41.6207 43.7154 40.9382 43.7154 40.9382L44.3336 41.6515C44.3336 41.6515 44.4383 40.9905 44.3574 40.7242C44.2533 40.3815 43.6679 39.7494 43.6679 39.7494L44.2861 40.2249C44.2861 40.2249 44.2781 39.5634 44.191 39.2977C44.1033 39.0303 43.7154 38.4893 43.7154 38.4893" fill="white"/>
<path d="M42.907 44.5047C42.907 44.5047 42.9096 44.9655 42.9784 45.1466C43.031 45.2854 43.2637 45.5508 43.2637 45.5508C43.2637 45.5508 43.5115 45.014 43.5252 44.7662C43.5422 44.4603 43.121 43.9816 43.121 43.9816C43.121 43.9816 43.4746 44.2964 43.5966 44.4571C43.6757 44.5615 43.8105 44.8375 43.8105 44.8375C43.8105 44.8375 43.9239 44.3682 43.8819 44.1718C43.8197 43.8811 43.3616 43.1059 43.3616 43.1059L43.9294 43.7201C43.9294 43.7201 44.0603 43.3911 44.0483 43.2445C44.0249 42.9579 43.5209 42.1339 43.5209 42.1339L44.0721 42.7452C44.0721 42.7452 44.1363 42.1761 44.0959 41.9368C44.0425 41.6207 43.7154 40.9382 43.7154 40.9382L44.3336 41.6515C44.3336 41.6515 44.4383 40.9905 44.3574 40.7242C44.2533 40.3815 43.6679 39.7494 43.6679 39.7494L44.2861 40.2249C44.2861 40.2249 44.2781 39.5634 44.191 39.2977C44.1033 39.0303 43.7154 38.4893 43.7154 38.4893" stroke="#1A1A1A" stroke-width="0.253968"/>
<path fill-rule="evenodd" clip-rule="evenodd" d="M35.9578 31.2443L36.857 30.9143L37.6639 30.7612L37.3579 31.1508L37.1909 31.3455C37.1909 31.3455 37.6049 31.0863 37.803 31.0256C37.9436 30.9824 38.2899 30.9699 38.2899 30.9699L38.123 31.276L37.9978 31.4707C37.9978 31.4707 38.3365 31.2016 38.5125 31.1786C38.7735 31.1445 39.3611 31.4012 39.3611 31.4012C39.3611 31.4012 38.9155 31.4965 38.7629 31.6098C38.7174 31.6437 38.6934 31.7211 38.6934 31.7211C38.6934 31.7211 39.3172 31.6078 39.542 31.6377C39.8132 31.6737 40.0011 31.8185 40.0011 31.8185L39.5003 32.0133L39.1942 32.0968C39.1942 32.0968 39.8843 32.0503 40.1541 32.1524C40.4321 32.2576 40.9332 32.528 40.9332 32.528L40.0706 32.5837L39.7646 32.6115C39.7646 32.6115 40.6195 32.6945 40.9471 32.848C41.0976 32.9185 41.3783 33.1958 41.3783 33.1958L41.0305 33.2375H40.6967C40.6967 33.2375 41.2367 33.3628 41.434 33.4879C41.571 33.5749 41.8513 33.794 41.8513 33.794L41.0584 33.7662L40.8497 33.7522L41.3227 33.9331C41.3227 33.9331 41.885 34.0278 42.0739 34.1696C42.2063 34.269 42.38 34.6287 42.38 34.6287L41.6705 34.4617L42.0992 34.8095" fill="white"/>
<path d="M35.9578 31.2443L36.857 30.9143L37.6639 30.7612L37.3579 31.1508L37.1909 31.3455C37.1909 31.3455 37.6049 31.0863 37.803 31.0256C37.9436 30.9824 38.2899 30.9699 38.2899 30.9699L38.123 31.276L37.9978 31.4707C37.9978 31.4707 38.3365 31.2016 38.5125 31.1786C38.7735 31.1445 39.3611 31.4012 39.3611 31.4012C39.3611 31.4012 38.9155 31.4965 38.7629 31.6098C38.7174 31.6437 38.6934 31.7211 38.6934 31.7211C38.6934 31.7211 39.3172 31.6078 39.542 31.6377C39.8132 31.6737 40.0011 31.8185 40.0011 31.8185L39.5003 32.0133L39.1942 32.0968C39.1942 32.0968 39.8843 32.0503 40.1541 32.1524C40.4321 32.2576 40.9332 32.528 40.9332 32.528L40.0706 32.5837L39.7646 32.6115C39.7646 32.6115 40.6195 32.6945 40.9471 32.848C41.0976 32.9185 41.3783 33.1958 41.3783 33.1958L41.0305 33.2375H40.6967C40.6967 33.2375 41.2367 33.3628 41.434 33.4879C41.571 33.5749 41.8513 33.794 41.8513 33.794L41.0584 33.7662L40.8497 33.7522L41.3227 33.9331C41.3227 33.9331 41.885 34.0278 42.0739 34.1696C42.2063 34.269 42.38 34.6287 42.38 34.6287L41.6705 34.4617L42.0992 34.8095" stroke="#1A1A1A" stroke-width="0.253968"/>
<path fill-rule="evenodd" clip-rule="evenodd" d="M23.87 20.9027L23.9443 31.7971C23.9443 31.7971 22.8234 31.7229 22.4942 31.574C22.1767 31.4304 21.8621 30.8676 21.8621 30.8676V20.4565L23.87 20.9027Z" fill="#FFCC00" stroke="#1A1A1A" stroke-width="0.253968"/>
<path fill-rule="evenodd" clip-rule="evenodd" d="M30.341 19.6758C30.341 19.6758 29.8651 20.3785 30.0436 20.6797C30.1246 20.8164 30.141 21.073 30.4596 21.2719C30.8431 21.5112 31.2706 21.8323 31.2706 21.8323L23.6854 21.8695C23.6854 21.8695 23.0055 21.746 22.54 21.4499C22.136 21.1928 22.023 20.9174 21.8992 20.6821C21.7695 20.4358 21.9116 20.1957 22.1701 20.0363C22.4903 19.8388 22.9595 19.7501 22.9595 19.7501L30.341 19.6758Z" fill="white" stroke="#1A1A1A" stroke-width="0.253968"/>
<path d="M31.457 21.8696H23.909V31.7601H31.457V21.8696Z" fill="#D4AA00" stroke="#1A1A1A" stroke-width="0.253968"/>
<path d="M30.156 20.7898H26.6004" stroke="#1A1A1A" stroke-width="0.228571"/>
<path d="M30.1676 20.282H27.1199" stroke="#1A1A1A" stroke-width="0.228571"/>
<path d="M27.0965 21.2979H30.3981" stroke="#1A1A1A" stroke-width="0.228571"/>
<path d="M23.2996 21.8057C23.2996 31.7104 23.2996 31.7104 23.2996 31.7104" stroke="#1A1A1A" stroke-width="0.203175"/>
<path d="M22.7918 21.5493C22.7918 31.708 22.7918 31.708 22.7918 31.708" stroke="#1A1A1A" stroke-width="0.205763"/>
<path d="M22.284 21.3003C22.284 31.459 22.284 31.459 22.284 31.459" stroke="#1A1A1A" stroke-width="0.205763"/>
<path fill-rule="evenodd" clip-rule="evenodd" d="M23.9032 26.3683L23.8821 27.8868C23.8821 27.8868 23.0633 27.8093 22.7612 27.6346C22.4591 27.4599 21.868 26.7223 21.868 26.7223V24.9297C21.868 24.9297 22.4665 25.7633 22.7718 25.9791C23.077 26.1949 23.9032 26.3683 23.9032 26.3683Z" fill="#FFCC00" stroke="#1A1A1A" stroke-width="0.203175"/>
<path d="M21.8484 25.9744C21.8484 25.9744 22.4499 26.645 22.7418 26.8114C23.0536 26.9892 23.8958 27.1569 23.8958 27.1569" stroke="#1A1A1A" stroke-width="0.253968"/>
<path fill-rule="evenodd" clip-rule="evenodd" d="M23.8836 29.3778L23.8626 30.8964C23.8626 30.8964 23.0438 30.8188 22.7417 30.6442C22.4396 30.4695 21.8484 29.7318 21.8484 29.7318V27.9392C21.8484 27.9392 22.4469 28.7728 22.7522 28.9886C23.0575 29.2044 23.8836 29.3778 23.8836 29.3778Z" fill="#FFCC00" stroke="#1A1A1A" stroke-width="0.203175"/>
<path d="M21.8289 28.9839C21.8289 28.9839 22.4304 29.6545 22.7222 29.8209C23.034 29.9987 23.8763 30.1664 23.8763 30.1664" stroke="#1A1A1A" stroke-width="0.253968"/>
<path fill-rule="evenodd" clip-rule="evenodd" d="M23.8836 23.2055L23.8626 24.724C23.8626 24.724 23.0438 24.6465 22.7417 24.4718C22.4396 24.2971 21.8484 23.5594 21.8484 23.5594V21.7668C21.8484 21.7668 22.4469 22.6004 22.7522 22.8162C23.0575 23.032 23.8836 23.2055 23.8836 23.2055Z" fill="#FFCC00" stroke="#1A1A1A" stroke-width="0.203175"/>
<path d="M21.8289 22.8115C21.8289 22.8115 22.4304 23.4822 22.7222 23.6486C23.034 23.8263 23.8763 23.9941 23.8763 23.9941" stroke="#1A1A1A" stroke-width="0.253968"/>
<path d="M30.4852 22.9727H24.8777V30.657H30.4852V22.9727Z" fill="#D4AA00" stroke="#1A1A1A" stroke-width="0.253968"/>
<path d="M25.8404 23.0164L24.8934 24.1212" stroke="#1A1A1A" stroke-width="0.253968"/>
<path d="M29.534 23.0164L30.481 24.1212" stroke="#1A1A1A" stroke-width="0.253968"/>
<path d="M25.8462 30.6167L24.8992 29.5119" stroke="#1A1A1A" stroke-width="0.253968"/>
<path d="M29.5399 30.6167L30.4869 29.5119" stroke="#1A1A1A" stroke-width="0.253968"/>
<path d="M27.7552 24.7527H27.6141V28.8771H27.7552V24.7527Z" fill="black" stroke="#1A1A1A" stroke-width="0.203175"/>
<path d="M28.3455 25.427H27.0281V25.5995H28.3455V25.427Z" fill="black" stroke="#1A1A1A" stroke-width="0.203175"/>
<path d="M28.6993 26.4124H26.6727V26.5572H28.6993V26.4124Z" fill="black" stroke="#1A1A1A" stroke-width="0.230884"/>
<path d="M28.3036 27.9674L27.1512 27.3293L27.0676 27.4803L28.2201 28.1184L28.3036 27.9674Z" fill="black" stroke="#1A1A1A" stroke-width="0.203175"/>
</svg>
