<svg width="54" height="64" viewBox="0 0 54 64" fill="none" xmlns="http://www.w3.org/2000/svg">
<path fill-rule="evenodd" clip-rule="evenodd" d="M27.2134 0H0.601746V52.2337H19.021C19.2409 51.8488 19.5158 51.4089 20.1206 50.9691C20.4505 48.8797 20.5605 46.7354 20.4505 44.4261L20.0106 38.268C16.6017 35.079 14.5674 31.6701 14.0725 27.5464C13.9076 26.1718 13.4677 24.9622 12.8079 23.9175C12.0381 23.9725 11.2684 24.0825 10.4437 23.9725L9.50894 24.5773C8.73919 25.0172 8.24434 24.7973 7.80448 24.4674C6.92476 23.6976 7.25465 22.7629 8.18936 22.1031C8.90413 21.6083 9.50894 21.0034 9.94881 20.1237C10.4986 19.134 11.5433 18.3643 12.423 17.5395C13.2478 16.3299 13.6326 14.6254 13.7976 13.2509C13.8526 12.921 14.1825 13.0859 14.1825 13.0859L14.0725 14.8454C14.8423 14.3505 15.667 13.5258 16.3268 12.811C16.7117 12.3162 16.8216 11.7663 16.8216 11.2715L17.2065 11.1065L17.1515 12.6461C18.1962 12.5911 18.856 12.0412 19.2959 10.9966L19.6258 11.1615C19.6258 11.9863 19.021 12.5361 17.9763 13.1409C17.9213 13.4708 18.0313 13.9107 18.0313 14.2406C19.2409 14.2406 20.2306 13.7457 20.6704 12.6461L20.8904 12.756L20.8354 13.1959C21.0003 13.1959 21.1103 13.0859 21.2752 12.866L21.8251 11.8213L22.1 11.9313C21.8801 12.701 21.4952 13.4708 20.3955 14.0756C19.7357 14.5155 18.911 14.8454 17.9213 15.1203C16.7117 15.4502 15.9419 16.3849 15.1172 17.7045C14.9522 18.1993 15.1722 18.3643 15.667 18.1443C16.3268 16.9897 17.1515 16.4949 18.1962 16.6048C18.1962 17.8144 17.3165 18.6392 16.3268 19.5189L19.9557 26.4467C20.8354 27.4914 21.8801 27.9863 23.1996 27.7113L27.3233 27.4364L38.2099 26.6117C39.4195 26.6117 40.4642 27.0516 41.5089 27.6014C42.3336 28.0412 42.8834 28.811 43.3783 29.5808C43.9281 30.5704 44.0931 31.6701 44.203 32.8797L43.5432 33.3196C43.0484 34.3643 42.6635 35.4639 42.5536 36.7285C42.5536 37.7182 42.8285 38.7079 43.6532 39.6976C44.258 40.6873 45.0278 41.4021 45.8525 41.8969C46.1824 42.8866 46.1824 43.8213 45.7425 44.811L46.0175 51.6839L45.2477 52.0138V52.2337H53.825V0H27.2134ZM20.7254 52.2337L21.2752 51.4639L21.6051 51.4089L21.6601 49.2646C22.1 47.1203 22.3749 45.1409 22.4849 42.8866L22.8148 42.8316L23.1996 44.3162C23.1447 45.1959 23.6395 46.4605 24.1893 47.1203L24.8491 52.2337H20.7254ZM26.6086 52.2337L26.4436 51.7388L25.5639 46.8454V46.5704C25.8388 45.7457 25.7288 44.756 25.179 43.8763L25.124 43.3265L25.234 38.1031C28.6979 38.1581 32.3818 37.7732 35.5707 36.8935C35.6257 38.268 36.4505 39.3127 37.5501 40.1924C39.0896 42.0069 39.6945 44.2612 39.1996 47.0103C38.9247 48.8247 38.3199 50.5292 37.2202 51.9588L37.0553 52.2337H26.6086ZM38.2649 52.2337V52.1787L39.0347 52.0138L39.5295 50.1993C40.1343 47.945 40.7391 45.9656 41.4539 44.5361C41.8938 43.5464 41.8388 43.3265 41.2889 42.5017L40.9041 41.0172C42.3886 41.9519 43.5982 43.2165 44.5879 44.701L44.5329 50.3643C44.0381 50.9141 43.6532 51.5739 43.3783 52.2337H38.2649ZM17.6464 13.3608C17.6464 13.0859 17.6464 13.1409 17.5914 13.0859C17.5364 13.0309 17.4265 13.1409 17.3715 13.1409C15.8869 14.5155 14.2375 15.89 13.4677 17.5395C13.5227 17.7595 13.6326 17.7595 13.8526 17.5945C14.6773 16.11 15.777 14.9553 17.2615 14.1856C17.3715 13.9107 17.4814 13.6357 17.6464 13.3608Z" fill="#0293DE"/>
<path fill-rule="evenodd" clip-rule="evenodd" d="M0.601746 52.6736H18.801C18.2512 53.4983 17.5364 54.0482 17.0416 54.9279L18.5811 55.0928L19.2409 54.543H20.2306C20.3955 53.9382 20.2856 53.2784 20.3955 52.6736H20.4505H24.9041L24.9591 52.8385C24.5742 53.2784 24.4093 53.8282 24.5192 54.653L23.1447 56.4674L25.124 56.4124C25.6739 56.4674 26.0587 56.3025 26.1687 55.9726L26.2787 54.2131C27.1034 53.6083 26.9385 53.0585 26.7735 52.6736H36.7254L35.7357 53.9382L37.7151 54.0482L38.1 52.6736H43.2133C43.1034 53.1684 42.9934 53.6633 42.9934 54.1581H45.0828L45.1927 52.6736H53.825V52.8385C53.6051 57.787 50.4711 59.1066 44.0931 58.6667L35.7357 58.7217C31.557 59.4915 28.1481 61.4159 27.2134 64C26.2787 61.4159 22.8697 59.4915 18.6911 58.7217L10.3337 58.6667C3.95569 59.1066 0.821676 57.787 0.601746 52.8385V52.6736Z" fill="#009846"/>
<path fill-rule="evenodd" clip-rule="evenodd" d="M10.5529 22.8729V22.9279C11.1577 22.9279 11.6526 22.8729 12.2574 22.8179C13.2471 22.653 13.2471 22.3781 13.9618 21.2784L14.0718 20.8935L14.4567 20.8386C14.5117 20.8386 14.5667 20.8386 14.6216 20.7836C14.6216 20.6736 14.6766 20.6186 14.6766 20.5637V20.3987L14.6216 20.1788C14.1268 19.574 14.2368 19.519 14.4017 19.2441L14.6766 19.0791C14.5117 19.0241 14.4017 19.1341 14.2917 19.1341C13.412 19.7389 15.0615 20.3987 13.7969 20.4537C13.357 22.543 11.9275 22.598 10.5529 22.8729ZM44.2573 42.9966C44.5322 43.3265 44.8071 43.7114 45.0821 44.0413C45.0271 43.6014 44.8071 43.1616 44.5322 42.7767C44.3673 42.5568 44.0924 42.3368 43.8724 42.0619C43.6525 41.787 43.4326 41.4571 43.1577 41.1272C42.8278 40.6324 42.5529 40.1375 42.2779 39.6427C42.113 39.3678 42.003 39.0929 41.8931 38.8179C41.7831 38.598 41.6731 38.3231 41.5632 38.0482C41.5082 37.7733 41.4532 37.4984 41.3982 37.2234L41.2882 36.6736C41.2333 36.3987 41.2333 36.1788 41.2333 35.9039V35.354L41.2882 34.8592C41.3432 34.5293 41.4532 34.2544 41.5082 33.9245L41.6731 33.1547C41.7831 32.8248 41.8381 32.4399 41.8931 32.0551V31.3953V31.1203V30.7905V30.5155L41.8381 30.2406L41.7831 29.9657L41.6731 29.7458L41.5632 29.5258L41.4532 29.3059L41.3432 29.086L41.1783 28.921L41.0133 28.7011L40.8484 28.5362L40.6285 28.3712L40.3535 28.2612L40.1336 28.0963L39.8037 27.9863L39.5288 27.8764L39.1439 27.7664L38.759 27.7114L38.3742 27.6564L37.9343 27.6015L37.4944 27.5465L36.9996 27.4915H36.7247C38.6491 28.3712 41.6731 27.8764 40.8484 32.8798C40.0236 38.488 41.3432 39.4777 44.2573 42.9966ZM24.0787 33.7595C24.2436 33.2097 24.5185 33.0447 24.7934 33.1547C24.9584 33.2097 25.0134 33.2097 25.1233 33.5396C25.1233 33.9245 25.1233 34.4193 25.1783 34.6392C25.1783 34.8592 25.2883 34.8042 25.3982 34.7492C25.4532 34.6942 25.4532 34.5293 25.4532 33.8695C26.0031 33.9795 26.223 33.9795 26.4979 34.3094C26.6629 34.5293 26.7728 34.8042 26.9927 35.0241C27.0477 35.0791 27.0477 35.1341 27.1027 35.1891C27.2677 35.354 27.3776 35.409 27.5426 35.464C27.8175 35.519 28.2573 35.519 28.4773 35.299C28.6422 35.1341 28.8072 34.9142 28.8622 34.6942C29.467 35.0791 29.8518 34.8592 30.6216 34.8042C30.7316 34.9142 30.8415 35.0241 31.0065 35.0791C31.2264 35.1891 31.5563 35.0791 31.7762 35.0241C32.546 34.7492 33.4807 34.3643 34.2505 34.0894C34.2505 33.9795 34.3054 32.6599 34.3054 32.6599C34.4154 32.7698 34.5254 32.6049 34.6353 32.7149C34.6903 32.6599 34.8553 32.7149 34.9652 32.7149C35.0202 32.8798 35.1852 33.0997 35.2402 33.3197C34.9103 32.22 34.8553 31.0654 34.9103 30.0207C34.6903 29.5808 34.6353 29.6908 34.3604 29.8557C34.3604 30.1307 34.2505 30.4606 34.2505 30.7355C33.8106 33.3197 33.2058 34.2544 31.7762 31.6152C31.1164 31.2303 30.6766 31.3953 30.7866 32.275C30.7866 32.9348 30.1817 32.9898 29.8518 32.5499C29.247 31.7801 28.6422 31.0104 28.0374 30.2406C27.2677 32.4399 26.113 31.5602 25.2333 30.0207C24.9034 29.7458 24.5735 29.8008 24.2436 30.1307C24.0787 30.6255 24.1886 31.7252 24.4086 32.385C24.0787 32.8798 23.6938 32.8798 23.7488 34.1444C23.9687 35.8489 24.0237 36.8935 23.6388 38.4331C23.144 40.5224 23.6938 42.8317 23.8587 43.6564C23.8587 43.9313 23.8587 44.2063 23.8587 44.4262L23.9687 44.2063L24.3536 43.3815C24.2986 43.2716 24.1886 43.1616 24.1336 43.0516C24.0787 42.9417 24.0237 42.8317 23.9687 42.6667C23.9137 42.5018 23.8587 42.3918 23.8587 42.2269C23.8038 42.0619 23.8038 41.897 23.8038 41.732C23.7488 41.3472 23.8038 41.0173 23.8038 40.6874L23.8587 40.3025C24.0787 39.4228 24.3536 38.598 24.4635 37.6633C24.4635 37.1685 24.4635 36.7286 24.4086 36.2887C24.2436 35.299 24.0787 34.4193 24.0787 33.7595ZM18.8003 30.1307C17.2058 30.6255 15.8313 28.7011 15.2264 28.2063C15.2814 28.4262 15.2264 28.7011 15.8313 29.3609C17.1508 31.0104 17.7557 31.5052 17.4258 33.0997C17.9756 33.0447 18.0306 32.9348 18.5804 32.8798C17.6457 31.7801 18.6904 30.5155 18.8003 30.1307ZM21.7144 29.9107C21.7694 29.5808 21.9893 29.2509 22.3192 28.976C23.034 28.6461 24.9034 28.3162 25.0134 28.3162C24.9034 28.2612 23.9137 28.4262 22.3742 28.5362C22.2642 28.5362 22.0993 28.5362 21.9893 28.5362C21.7144 28.4812 21.4395 28.5362 21.2196 28.4812C21.1646 28.4262 20.8897 28.2063 20.8897 28.2063C20.8897 28.3162 20.8897 28.3712 20.8347 28.4812L20.7797 28.976L20.2849 29.031L20.0649 28.8661C19.9 28.8111 19.79 28.7011 19.68 28.5911C19.6251 28.5362 19.5151 28.4262 19.4601 28.3162C19.3502 28.2063 19.2952 28.0963 19.2402 27.9313V27.8214L19.1852 27.7114V27.6015C19.1302 27.3815 19.2402 27.0516 19.2402 26.8317C18.1405 24.9073 17.2608 22.9829 16.3261 21.1685C16.1062 21.0585 15.9962 20.8386 15.8313 20.6736L15.7763 20.8386C15.7213 21.0585 15.7763 20.8935 15.6113 21.0585C16.546 21.4434 16.9309 23.3128 17.7007 24.8523C18.0306 26.0069 17.9756 27.4915 18.5804 27.7114L19.955 29.2509C20.1749 29.8557 20.4498 29.9657 20.6148 30.1307L20.6697 29.4159C20.7797 29.141 20.9446 29.141 21.0546 29.3059L21.7144 29.9107ZM20.3398 31.7801C19.79 31.7252 20.1749 33.2647 19.955 34.0344C20.1749 34.2544 20.4498 34.3643 20.7247 34.2544C20.6148 33.5396 20.4498 32.5499 20.3398 31.7801Z" fill="#D9DADA"/>
<path fill-rule="evenodd" clip-rule="evenodd" d="M19.0757 14.5153C19.7905 14.2404 20.2853 13.9655 20.6702 13.6356L20.4503 13.5806C20.1754 13.8005 19.6805 14.0754 19.0207 14.2954L17.5912 14.5703C17.5912 14.5703 17.7011 14.1854 17.5362 14.2404C17.4812 14.2404 17.2613 14.6253 17.2063 14.6253C16.4365 14.9552 14.897 15.9998 14.2372 17.7043C13.7974 17.9792 13.1926 18.0892 13.1376 17.6493L12.8077 17.5943L12.6977 17.7593L11.9829 18.4191C11.4331 18.859 10.9383 19.3538 10.4434 20.0686C10.3335 20.2335 10.2235 20.4535 10.1135 20.6184L9.67367 21.2782C9.34378 21.7181 8.90392 22.1029 8.40907 22.3779C7.96921 22.7078 7.47437 23.1476 7.74928 23.8074L7.85925 23.9174C7.85925 23.9724 7.91423 24.0273 7.91423 24.0273L8.18914 24.1373C8.40907 24.1923 9.01388 23.9724 9.39876 23.4225C9.56371 23.2576 9.61869 23.2576 10.0036 23.2026L10.1685 23.2576C11.1032 23.4775 12.5878 23.3126 13.4125 22.9277C14.1273 22.4878 14.1823 21.828 14.3472 21.2782C15.3369 21.2232 15.2269 19.7387 14.5671 19.6287C14.4022 19.5737 14.6221 19.5187 14.6771 19.4638C14.7871 19.4638 15.5568 19.3538 15.5568 19.4088L15.8867 19.4638C16.4365 18.9689 17.0414 18.4191 17.4262 17.8143L17.5362 17.6493C17.6462 17.4294 17.7561 17.2095 17.8111 16.9895C17.4812 16.9895 17.2063 17.0995 16.9314 17.2645C16.7115 17.3744 16.5465 17.5394 16.4365 17.7043C16.2716 17.8693 16.1616 18.0342 16.0517 18.2541L15.9417 18.4741C15.7768 18.749 15.5018 18.749 15.2269 18.749H14.952L14.7321 18.639L14.5671 18.4191L14.2922 18.3641L14.6771 17.8143L14.952 17.3744C15.1719 16.9895 15.2269 16.8246 15.5018 16.4397C15.7218 16.1648 15.9417 15.9449 16.1616 15.6699C16.3816 15.505 16.5465 15.395 16.7664 15.2301C16.8764 15.1751 16.9864 15.1201 17.0963 15.0651C17.3163 14.9552 17.5912 14.9002 17.8111 14.7902L19.0757 14.5153ZM10.5534 22.8727V22.9277C11.1582 22.9277 11.6531 22.8727 12.2579 22.8177C13.2476 22.6528 13.2476 22.3779 13.9623 21.2782L14.0723 20.8933L14.4572 20.8383C14.5122 20.8383 14.5671 20.8383 14.6221 20.7834C14.6221 20.6734 14.6771 20.6184 14.6771 20.5634V20.3985L14.6221 20.1785C14.1273 19.5737 14.2372 19.5187 14.4022 19.2438L14.6771 19.0789C14.5122 19.0239 14.4022 19.1339 14.2922 19.1339C13.4125 19.7387 15.062 20.3985 13.7974 20.4535C13.3575 22.5428 11.928 22.5978 10.5534 22.8727ZM44.2578 42.9964C44.5327 43.3263 44.8076 43.7112 45.0825 44.0411C45.0276 43.6012 44.8076 43.1614 44.5327 42.7765C44.3678 42.5565 44.0928 42.3366 43.8729 42.0617C43.653 41.7868 43.4331 41.4569 43.1581 41.127C42.8282 40.6321 42.5533 40.1373 42.2784 39.6425C42.1135 39.3675 42.0035 39.0926 41.8935 38.8177C41.7836 38.5978 41.6736 38.3229 41.5636 38.048C41.5087 37.773 41.4537 37.4981 41.3987 37.2232L41.2887 36.6734C41.2337 36.3985 41.2337 36.1785 41.2337 35.9036V35.3538L41.2887 34.8589C41.3437 34.5291 41.4537 34.2541 41.5087 33.9242L41.6736 33.1545C41.7836 32.8246 41.8386 32.4397 41.8935 32.0548V31.395V31.1201V30.7902V30.5153L41.8386 30.2404L41.7836 29.9655L41.6736 29.7455L41.5636 29.5256L41.4537 29.3057L41.3437 29.0858L41.1788 28.9208L41.0138 28.7009L40.8489 28.5359L40.6289 28.371L40.354 28.261L40.1341 28.0961L39.8042 27.9861L39.5293 27.8761L39.1444 27.7662L38.7595 27.7112L38.3746 27.6562L37.9348 27.6012L37.4949 27.5462L37.0001 27.4913H36.7252C38.6496 28.371 41.6736 27.8761 40.8489 32.8796C40.0241 38.4878 41.3437 39.4775 44.2578 42.9964ZM24.0791 33.7593C24.2441 33.2095 24.519 33.0445 24.7939 33.1545C24.9589 33.2095 25.0138 33.2095 25.1238 33.5394C25.1238 33.9242 25.1238 34.4191 25.1788 34.639C25.1788 34.8589 25.2888 34.804 25.3987 34.749C25.4537 34.694 25.4537 34.5291 25.4537 33.8693C26.0035 33.9792 26.2235 33.9792 26.4984 34.3091C26.6633 34.5291 26.7733 34.804 26.9932 35.0239C27.0482 35.0789 27.0482 35.1339 27.1032 35.1888C27.2681 35.3538 27.3781 35.4088 27.5431 35.4638C27.818 35.5187 28.2578 35.5187 28.4778 35.2988C28.6427 35.1339 28.8077 34.9139 28.8626 34.694C29.4674 35.0789 29.8523 34.8589 30.6221 34.804C30.732 34.9139 30.842 35.0239 31.007 35.0789C31.2269 35.1888 31.5568 35.0789 31.7767 35.0239C32.5465 34.749 33.4812 34.3641 34.2509 34.0892C34.2509 33.9792 34.3059 32.6596 34.3059 32.6596C34.4159 32.7696 34.5259 32.6047 34.6358 32.7146C34.6908 32.6596 34.8558 32.7146 34.9657 32.7146C35.0207 32.8796 35.1856 33.0995 35.2406 33.3194C34.9107 32.2198 34.8558 31.0651 34.9107 30.0205C34.6908 29.5806 34.6358 29.6906 34.3609 29.8555C34.3609 30.1304 34.2509 30.4603 34.2509 30.7352C33.8111 33.3194 33.2063 34.2541 31.7767 31.615C31.1169 31.2301 30.6771 31.395 30.787 32.2748C30.787 32.9345 30.1822 32.9895 29.8523 32.5497C29.2475 31.7799 28.6427 31.0101 28.0379 30.2404C27.2681 32.4397 26.1135 31.56 25.2338 30.0205C24.9039 29.7455 24.574 29.8005 24.2441 30.1304C24.0791 30.6253 24.1891 31.7249 24.409 32.3847C24.0791 32.8796 23.6943 32.8796 23.7492 34.1442C23.9692 35.8486 24.0242 36.8933 23.6393 38.4328C23.1444 40.5222 23.6943 42.8315 23.8592 43.6562C23.8592 43.9311 23.8592 44.206 23.8592 44.426L23.9692 44.206L24.3541 43.3813C24.2991 43.2713 24.1891 43.1614 24.1341 43.0514C24.0791 42.9414 24.0242 42.8315 23.9692 42.6665C23.9142 42.5016 23.8592 42.3916 23.8592 42.2266C23.8042 42.0617 23.8042 41.8967 23.8042 41.7318C23.7492 41.3469 23.8042 41.017 23.8042 40.6871L23.8592 40.3022C24.0791 39.4225 24.3541 38.5978 24.464 37.6631C24.464 37.1682 24.464 36.7284 24.409 36.2885C24.2441 35.2988 24.0791 34.4191 24.0791 33.7593ZM18.8008 30.1304C17.2063 30.6253 15.8317 28.7009 15.2269 28.206C15.2819 28.426 15.2269 28.7009 15.8317 29.3607C17.1513 31.0101 17.7561 31.505 17.4262 33.0995C17.9761 33.0445 18.031 32.9345 18.5809 32.8796C17.6462 31.7799 18.6908 30.5153 18.8008 30.1304ZM21.7149 29.9105C21.7699 29.5806 21.9898 29.2507 22.3197 28.9758C23.0345 28.6459 24.9039 28.316 25.0138 28.316C24.9039 28.261 23.9142 28.426 22.3747 28.5359C22.2647 28.5359 22.0998 28.5359 21.9898 28.5359C21.7149 28.4809 21.44 28.5359 21.22 28.4809C21.1651 28.426 20.8901 28.206 20.8901 28.206C20.8901 28.316 20.8901 28.371 20.8352 28.4809L20.7802 28.9758L20.2853 29.0308L20.0654 28.8658C19.9005 28.8108 19.7905 28.7009 19.6805 28.5909C19.6255 28.5359 19.5156 28.426 19.4606 28.316C19.3506 28.206 19.2956 28.0961 19.2407 27.9311V27.8211L19.1857 27.7112V27.6012C19.1307 27.3813 19.2407 27.0514 19.2407 26.8315C18.141 24.9071 17.2613 22.9827 16.3266 21.1682C16.1067 21.0583 15.9967 20.8383 15.8317 20.6734L15.7768 20.8383C15.7218 21.0583 15.7768 20.8933 15.6118 21.0583C16.5465 21.4431 16.9314 23.3126 17.7011 24.8521C18.031 26.0067 17.9761 27.4913 18.5809 27.7112L19.9554 29.2507C20.1754 29.8555 20.4503 29.9655 20.6152 30.1304L20.6702 29.4156C20.7802 29.1407 20.9451 29.1407 21.0551 29.3057L21.7149 29.9105ZM20.3403 31.7799C19.7905 31.7249 20.1754 33.2644 19.9554 34.0342C20.1754 34.2541 20.4503 34.3641 20.7252 34.2541C20.6152 33.5394 20.4503 32.5497 20.3403 31.7799ZM13.1926 17.2645C13.3575 17.1545 13.7424 15.9998 14.0173 15.7799L16.8764 13.2507L16.7664 13.0308L16.7115 12.7559C16.6015 12.9208 16.4915 13.2507 16.3816 13.3607C15.7768 13.8555 15.2269 14.3504 14.6221 14.9552L13.9623 15.3401H13.7424L12.9177 17.1545L13.1926 17.2645ZM8.24412 24.3023C8.90392 24.3572 9.17883 23.9724 9.17883 23.8624C8.9589 24.0273 8.629 24.1923 8.24412 24.3023ZM13.3575 24.1373C13.6324 24.5772 13.7974 25.017 13.9623 25.4569C14.1273 25.9517 14.2922 26.4466 14.3472 26.9414C14.4572 27.3813 14.5122 27.8211 14.5671 28.261C14.6221 28.5909 14.7321 28.9758 14.7871 29.3607C14.897 29.6906 15.007 30.0205 15.117 30.4053C15.2269 30.7352 15.3369 31.0651 15.5018 31.45C15.6118 31.7799 15.7768 32.1098 15.9417 32.4397C16.1067 32.7696 16.2716 33.0995 16.4915 33.3744C16.6565 33.7043 16.8764 34.0342 17.0963 34.3641C17.2613 34.639 17.4812 34.9139 17.7011 35.1888C17.9211 35.1339 18.196 35.0789 18.306 34.804C18.196 34.1442 17.9211 33.9242 17.6462 33.4294C17.8661 33.3744 18.4159 33.1545 18.6359 33.1545C18.6908 33.6493 18.6359 34.3091 19.0757 34.804C19.3506 35.0789 19.9005 35.1339 19.9554 34.749C19.9554 34.4741 19.9554 34.3091 19.9554 34.1992C20.2304 34.4741 20.4503 34.5291 20.7802 34.4191C20.3403 34.9139 20.8352 36.7833 22.1547 38.1029C22.5396 40.6871 22.7596 41.6768 23.4743 43.7112C23.4743 45.0308 23.6393 45.9655 24.2991 46.2954C24.2991 46.2954 24.409 46.2954 24.409 46.3504C24.7389 46.4053 24.7389 46.2954 24.7389 46.2404C24.0791 45.5806 23.9692 44.9758 24.3541 44.426L24.7389 43.3263L24.629 43.1064C23.8042 42.0617 24.1891 40.0273 24.8489 37.7181C24.8489 36.1236 24.684 34.9689 24.3541 34.3091C24.2441 33.8143 24.464 33.6493 24.8489 33.6493L24.9589 34.8589C25.1238 35.1339 25.3437 35.1339 25.6187 34.804V34.2541C25.8936 34.1992 26.1135 34.3091 26.2235 34.584C26.6083 35.2438 26.9932 35.8486 27.708 35.8486C28.3128 35.9036 28.8626 35.7937 29.0276 35.0239C29.2475 35.1888 29.7973 35.1339 30.4571 35.0789C30.732 35.2988 31.1169 35.5187 31.9417 35.2438L34.4159 34.4191L34.4709 32.9345H34.8558C34.6908 31.9449 35.6255 38.1579 40.354 40.1923C40.7389 40.4672 41.1788 40.7421 41.5636 40.962C42.0035 41.2919 42.4434 41.6768 42.8282 42.0617C43.1032 42.2816 43.3231 42.5016 43.543 42.7765C44.0379 43.2713 44.4227 43.8211 44.8076 44.371L44.9726 44.5909L45.3574 44.7559L45.5224 44.426C45.5224 43.6012 45.0825 42.7765 44.5877 42.2266C42.4983 40.0273 41.0688 36.8933 41.7836 34.4741C42.9932 29.9655 42.3884 27.1064 36.4503 27.1064L27.3231 27.7662L23.2544 28.0961C22.9795 28.151 22.7596 28.206 22.4846 28.206C22.3197 28.151 22.1547 28.151 21.9348 28.151C21.7149 28.0961 21.495 28.0411 21.275 27.9311C20.3953 27.5462 20.3403 28.4809 20.5603 28.7009C19.9554 28.5359 19.5156 27.8211 19.6255 27.5462C19.4606 27.4363 19.7355 26.7765 19.6255 26.6665L16.6015 20.8933C16.1067 20.6184 16.1067 20.0686 15.5568 20.1785C15.3919 20.8933 15.2819 21.1132 15.062 21.1682C14.5122 21.4981 14.1273 22.2129 14.3472 23.2026C13.9073 23.3675 13.6324 23.6974 13.3575 24.1373ZM24.629 47.0102C24.629 47.0651 24.629 47.0651 24.629 47.0651L25.1788 51.0239L25.2338 51.1339L25.8386 51.0239V50.584L25.2338 47.0102H24.629ZM25.3987 52.4534L25.3437 52.9483C25.2338 53.0583 25.1788 53.1682 25.1238 53.2782C25.0138 53.4431 24.9589 53.6081 24.9039 53.828C24.8489 53.938 24.8489 54.048 24.8489 54.2129C24.8489 54.2679 25.0138 54.1579 25.0138 54.2129L25.5087 54.2679C25.5087 54.048 25.5087 53.993 25.7836 53.938L26.2235 53.773L26.3334 53.6631L26.4434 53.5531L26.4984 53.4431V53.2782C26.4984 53.1682 26.4984 53.1132 26.4984 53.0033L26.4434 52.8383C26.3334 52.6734 26.2785 52.5084 26.2235 52.3435V52.2885L25.3987 52.4534ZM24.8489 54.7627L23.9142 56.0823L25.2338 56.0273C25.3987 56.0273 25.6736 56.0273 25.7836 55.8624L25.5087 55.0376C25.4537 54.9827 25.4537 54.9277 25.3987 54.7627H24.8489ZM44.5877 51.1888L44.2578 51.5187C43.9279 51.9036 44.0928 51.6837 43.8729 52.1236L44.8626 52.4534V51.7937L44.9176 51.2438L44.5877 51.1888ZM43.598 52.7833C43.488 53.1132 43.4331 53.3882 43.3781 53.773H44.7526V53.2232L43.598 52.7833ZM38.4296 50.804C38.3197 50.9139 38.2647 51.0239 38.2097 51.1888C38.1547 51.2988 37.9348 51.5187 37.8248 51.6837L38.3197 51.7387L38.7045 51.6837C38.8145 51.4638 38.8695 51.2438 38.9245 51.0239L38.4296 50.804ZM37.11 52.6734L36.4503 53.6081L37.4399 53.6631L37.6599 52.8383L37.11 52.6734ZM20.8352 40.5772C20.8352 41.237 20.5053 41.8418 20.9451 42.5016L21.385 43.0514C21.33 43.4913 21.0551 43.7662 21.0551 44.261C21.0001 44.8108 21.1651 45.4156 21.33 45.8555L21.44 45.6356C21.33 45.0308 21.385 44.4809 21.6599 44.0411C22.0448 43.8211 22.0448 43.3263 22.0448 42.8315C20.8901 42.6115 21.0551 41.237 21.0001 40.6871C20.9451 40.3572 21.0551 40.6321 20.8352 40.5772ZM21.1651 46.9002L20.6152 49.8693L20.6702 50.1442C20.9451 49.6493 21.1651 49.1545 21.275 48.7146L21.33 47.9998C21.33 47.615 21.33 47.2851 21.33 46.9002H21.1651ZM19.9005 51.9586C19.8455 52.0136 19.7355 51.9036 19.6805 51.9586C19.5706 52.1236 19.6805 51.9036 19.5706 52.1236C19.4056 52.3435 19.2956 52.5634 19.1857 52.7833C19.0207 53.0033 18.8558 53.2782 18.6359 53.4981C18.3609 53.883 17.9761 54.2129 17.7011 54.5978L18.4709 54.7077L19.0207 54.1579H19.9005C19.9005 53.773 19.7905 53.3882 19.9554 53.0033C20.0104 52.8383 19.8455 52.7833 19.8455 52.6184L20.0104 51.9586H19.9005ZM12.3678 19.9036L11.818 20.0136C11.4881 19.9586 11.2132 20.1785 11.1582 20.5634L10.8283 21.0583L10.8833 21.1132L11.3232 20.9483C11.928 21.0583 12.2029 20.6184 12.1479 20.3985L12.4228 20.0136L12.3678 19.9036ZM25.0138 44.4809C24.684 44.371 24.519 44.4809 24.519 44.8658C24.9039 45.1407 25.0138 45.5806 24.9039 46.1304C25.0138 46.3504 25.1788 46.2954 25.3437 46.1854C25.5637 45.5806 25.5637 45.0308 25.0138 44.4809Z" fill="white" stroke="white" stroke-width="0.0549828"/>
</svg>
