<svg width="53" height="64" viewBox="0 0 53 64" fill="none" xmlns="http://www.w3.org/2000/svg">
<g clip-path="url(#clip0_659_28923)">
<path fill-rule="evenodd" clip-rule="evenodd" d="M1.02283 0.157227H51.9309V53.0717C51.9309 56.7519 48.4967 59.7813 44.2992 59.7813H30.5621C28.3175 59.7813 26.5218 61.7785 26.4993 64.0001C26.4993 62.0029 24.9056 59.7813 22.4366 59.7813H8.65456C4.4571 59.7813 1.02283 56.7519 1.02283 53.0717V0.157227Z" stroke="#2B2A29" stroke-width="0.61145"/>
<path fill-rule="evenodd" clip-rule="evenodd" d="M1.02283 0.157227H51.9309V53.0717C51.9309 56.7519 48.4967 59.7813 44.2992 59.7813H30.5621C28.3175 59.7813 26.5218 61.7785 26.4993 64.0001C26.4993 62.0029 24.9056 59.7813 22.4366 59.7813H8.65456C4.4571 59.7813 1.02283 56.7519 1.02283 53.0717V0.157227Z" fill="#008DD2"/>
<path d="M51.9309 48.9875H1.02283" stroke="#FAD907" stroke-width="0.244644"/>
<path fill-rule="evenodd" clip-rule="evenodd" d="M51.9309 48.9875H1.02283V0.157227H51.9309V48.9875Z" fill="#01AAE0"/>
<path d="M51.9309 48.9875H1.02283" stroke="#01AAE0" stroke-width="0.244644"/>
<path fill-rule="evenodd" clip-rule="evenodd" d="M51.9309 48.9875H1.02283V53.0717C1.02283 56.7519 4.4571 59.7814 8.65456 59.7814H22.4366C24.9056 59.7814 26.4993 62.003 26.4993 64.0002C26.5218 61.7786 28.3175 59.7814 30.5621 59.7814H44.2992C48.4967 59.7814 51.9309 56.7519 51.9309 53.0717V48.9875Z" fill="#01AAE0"/>
<path d="M51.9309 52.4432C45.1073 50.3787 36.443 49.1221 27.0156 49.1221C17.0943 49.1221 8.00361 50.5134 1.02283 52.7799" stroke="#2B2A29" stroke-width="0.244644"/>
<path fill-rule="evenodd" clip-rule="evenodd" d="M27.0156 49.1221C36.443 49.1221 45.1073 50.3787 51.9309 52.4432V53.0716C51.9309 56.7518 48.4967 59.7813 44.2992 59.7813H30.5621C28.3175 59.7813 26.5218 61.7785 26.4993 64.0001C26.4993 62.0029 24.9056 59.7813 22.4366 59.7813H8.65456C4.4571 59.7813 1.02283 56.7518 1.02283 53.0716V52.7799C8.00361 50.5134 17.0943 49.1221 27.0156 49.1221Z" fill="#FCDD07"/>
<path d="M49.0813 58.2778C42.5494 56.5948 34.9626 55.6074 26.882 55.6074C18.5544 55.6074 10.7655 56.6397 4.099 58.4349" stroke="#2B2A29" stroke-width="0.244644"/>
<path fill-rule="evenodd" clip-rule="evenodd" d="M26.88 55.6074C34.9607 55.6074 42.5475 56.5948 49.0793 58.2778C47.7775 59.2203 46.1164 59.7813 44.2983 59.7813H30.5612C28.3166 59.7813 26.5209 61.7785 26.4984 64.0001C26.4984 62.0029 24.9047 59.7813 22.4356 59.7813H8.65364C6.94772 59.7813 5.37648 59.2876 4.09705 58.4349C10.7636 56.6397 18.5524 55.6074 26.88 55.6074Z" fill="#252725"/>
<path fill-rule="evenodd" clip-rule="evenodd" d="M23.8496 12.8811V11.9161C23.3557 11.4224 23.0639 10.9287 22.9068 10.1658C22.7497 9.08863 22.817 8.37053 23.3109 7.7422C24.0067 6.93435 24.9943 6.66506 25.9371 6.73238C26.0493 6.5753 26.1166 6.50798 26.4084 6.41822V5.67769H26.0493V5.22888H26.386V4.82495H26.9023V5.22888H27.2838V5.67769H26.9247V6.41822C27.1941 6.48554 27.2389 6.59774 27.4185 6.84459C28.8326 6.55286 29.9549 7.45048 30.2243 7.92173C30.7181 8.66226 30.7181 9.47011 30.5385 10.3902C30.4263 10.9961 30.0896 11.4449 29.7305 11.961V12.8811H23.8496Z" stroke="#2B2A29" stroke-width="0.0932"/>
<path fill-rule="evenodd" clip-rule="evenodd" d="M23.8496 12.8811V11.9161C23.3557 11.4224 23.0639 10.9287 22.9068 10.1658C22.7497 9.08863 22.817 8.37053 23.3109 7.7422C24.0067 6.93435 24.9943 6.66506 25.9371 6.73238C26.0493 6.5753 26.1166 6.50798 26.4084 6.41822V5.67769H26.0493V5.22888H26.386V4.82495H26.9023V5.22888H27.2838V5.67769H26.9247V6.41822C27.1941 6.48554 27.2389 6.59774 27.4185 6.84459C28.8326 6.55286 29.9549 7.45048 30.2243 7.92173C30.7181 8.66226 30.7181 9.47011 30.5385 10.3902C30.4263 10.9961 30.0896 11.4449 29.7305 11.961V12.8811H23.8496Z" fill="#2B2A29"/>
<path fill-rule="evenodd" clip-rule="evenodd" d="M26.4093 6.57506V5.67744H26.0502V5.22863H26.3869V4.82471H26.9031V5.22863H27.2847V5.67744H26.9256V6.57506H26.4093Z" stroke="#2B2A29" stroke-width="0.244644"/>
<path fill-rule="evenodd" clip-rule="evenodd" d="M26.4093 6.57506V5.67744H26.0502V5.22863H26.3869V4.82471H26.9031V5.22863H27.2847V5.67744H26.9256V6.57506H26.4093Z" fill="#FFED00"/>
<path fill-rule="evenodd" clip-rule="evenodd" d="M25.6247 9.64959C25.8043 9.62715 25.9614 9.62715 26.1186 9.62715C25.9614 8.66222 25.8268 7.85436 25.5574 6.91187C25.2656 6.91187 24.9738 6.95675 24.6595 7.06895C25.0636 7.96656 25.3554 8.68466 25.6247 9.64959Z" fill="#FFED00"/>
<path fill-rule="evenodd" clip-rule="evenodd" d="M27.7549 9.64937C27.5978 9.62693 27.4407 9.62693 27.2611 9.62693C27.4182 8.66199 27.5529 7.87658 27.8223 6.93408C28.1141 6.93408 28.4283 6.97896 28.7201 7.06872C28.3161 7.96634 28.0243 8.68443 27.7549 9.64937Z" fill="#FFED00"/>
<path fill-rule="evenodd" clip-rule="evenodd" d="M26.6346 7.62977C27.0387 7.62977 27.3754 7.36049 27.3754 7.04632C27.3754 6.70971 27.0387 6.44043 26.6346 6.44043C26.2306 6.44043 25.8939 6.70971 25.8939 7.04632C25.8939 7.36049 26.2306 7.62977 26.6346 7.62977Z" fill="#FFED00"/>
<path fill-rule="evenodd" clip-rule="evenodd" d="M24.0072 12.0281C24.9275 11.5569 25.6682 11.2651 26.7232 11.2651C28.0924 11.2876 28.7883 11.6242 29.5739 11.9383V12.8135H29.3045C28.676 12.4545 27.8231 12.1852 26.7905 12.1403C25.8253 12.1628 25.0622 12.4096 24.3888 12.8135H24.0072V12.0281Z" fill="#FFED00"/>
<path fill-rule="evenodd" clip-rule="evenodd" d="M24.7924 12.8135C25.3984 12.5442 25.8249 12.3647 26.6778 12.3423C27.7777 12.3423 28.2715 12.634 28.9 12.8135C27.5308 12.8135 26.1616 12.8135 24.7924 12.8135Z" fill="#FFED00"/>
<path fill-rule="evenodd" clip-rule="evenodd" d="M24.4789 7.18115C24.8829 7.98901 25.1747 8.77442 25.4441 9.62716C25.5563 9.91888 25.287 9.9862 25.3543 10.2779C25.3767 10.3901 25.5788 10.4126 25.5114 10.5472C25.3992 10.6594 25.3094 10.7267 25.1523 10.7716C24.7931 10.7941 24.7034 10.5023 24.4564 10.5023C24.2544 10.4799 24.1197 10.8165 23.8953 10.9063C23.7606 10.9736 23.6035 11.0185 23.4239 10.996C23.0872 10.5248 23.0199 9.94132 22.9974 9.44763C22.9974 8.97638 23.0648 8.46025 23.2219 8.14609C23.5586 7.58508 24.0524 7.27091 24.4789 7.18115Z" fill="#FFED00"/>
<path fill-rule="evenodd" clip-rule="evenodd" d="M28.9464 7.18115C28.5424 7.98901 28.2506 8.77442 27.9812 9.62716C27.869 9.91888 28.1383 9.9862 28.071 10.2779C28.0486 10.3901 27.8465 10.4126 27.9363 10.5472C28.0261 10.6594 28.1383 10.7267 28.273 10.7716C28.6322 10.7941 28.7219 10.5023 28.9688 10.5023C29.1709 10.4799 29.3055 10.8165 29.53 10.9063C29.6647 10.9736 29.8218 11.0185 30.0014 10.996C30.3381 10.5248 30.4054 9.94132 30.4279 9.44763C30.3605 8.63978 30.2707 8.46025 30.1136 8.14609C29.7545 7.58508 29.3504 7.33824 28.9464 7.18115Z" fill="#FFED00"/>
<path d="M23.8959 7.65234C24.2326 8.48264 24.5019 9.35781 24.659 10.3003" stroke="#2B2A29" stroke-width="0.0932"/>
<path d="M23.3568 8.59473C23.7833 9.22306 23.9404 9.53722 24.1424 10.4797" stroke="#2B2A29" stroke-width="0.0932"/>
<path d="M23.267 8.95383C23.6934 8.3255 23.9179 8.16841 24.6362 7.85425" stroke="#2B2A29" stroke-width="0.0932"/>
<path d="M23.806 10.4797C24.2774 9.91866 24.4794 9.8289 25.0181 9.60449" stroke="#2B2A29" stroke-width="0.0932"/>
<path d="M23.3783 9.89629C23.8048 9.26796 24.1415 8.99867 24.8149 8.61719" stroke="#2B2A29" stroke-width="0.0932"/>
<path d="M29.5067 7.65234C29.17 8.48264 28.8557 9.35781 28.6986 10.3003" stroke="#2B2A29" stroke-width="0.0932"/>
<path d="M30.0682 8.59473C29.6193 9.22306 29.4397 9.53722 29.2377 10.4797" stroke="#2B2A29" stroke-width="0.0932"/>
<path d="M30.1586 8.95383C29.7097 8.3255 29.4852 8.16841 28.722 7.85425" stroke="#2B2A29" stroke-width="0.0932"/>
<path d="M29.5972 10.4797C29.1258 9.91866 28.8789 9.8289 28.3177 9.60449" stroke="#2B2A29" stroke-width="0.0932"/>
<path d="M30.0463 9.89629C29.5973 9.26796 29.2382 8.99867 28.5424 8.61719" stroke="#2B2A29" stroke-width="0.0932"/>
<path fill-rule="evenodd" clip-rule="evenodd" d="M26.0052 7.74219C26.095 8.10123 26.2073 8.46028 26.2971 8.81933C26.5664 8.66224 26.8582 8.61736 27.15 8.81933C27.1949 8.43784 27.2398 8.10123 27.3071 7.74219C26.948 7.98903 26.6337 8.191 26.0052 7.74219Z" fill="#FFED00"/>
<path fill-rule="evenodd" clip-rule="evenodd" d="M26.6799 8.16846C26.837 8.16846 26.9492 8.23578 26.9492 8.32554C26.9492 8.4153 26.837 8.48262 26.6799 8.48262C26.5452 8.48262 26.433 8.4153 26.433 8.32554C26.433 8.23578 26.5452 8.16846 26.6799 8.16846Z" stroke="#2B2A29" stroke-width="0.0932"/>
<path fill-rule="evenodd" clip-rule="evenodd" d="M26.6799 8.16846C26.837 8.16846 26.9492 8.23578 26.9492 8.32554C26.9492 8.4153 26.837 8.48262 26.6799 8.48262C26.5452 8.48262 26.433 8.4153 26.433 8.32554C26.433 8.23578 26.5452 8.16846 26.6799 8.16846Z" fill="#FFED00"/>
<path fill-rule="evenodd" clip-rule="evenodd" d="M26.3861 9.76169C26.3861 9.4924 26.3861 9.22312 26.3861 8.95384C26.5208 8.63967 26.9921 8.72943 27.037 8.95384C27.037 9.22312 27.037 9.4924 27.037 9.76169C27.1044 9.91877 27.6431 9.78413 27.7104 10.0085C27.7553 10.4349 27.6206 10.4798 27.4635 10.5471C27.3288 10.5695 27.3064 10.6369 27.2839 10.7042C27.2839 10.7939 27.6655 10.7715 27.89 10.7939C28.0471 10.8164 28.2267 10.9061 28.4062 10.9061C28.7205 10.951 28.9225 10.6593 28.9899 10.6817C29.147 10.6593 29.3265 11.0632 29.551 11.1081C29.7081 11.1306 29.7979 11.0184 29.8653 11.0857C29.955 11.1754 29.955 11.2652 29.9101 11.3774C29.8204 11.5569 29.753 11.6691 29.6183 11.7813C26.7677 10.6144 26.0269 11.0184 23.9394 11.7813C23.7599 11.6467 23.5354 11.3774 23.5354 11.2876C23.4905 11.1754 23.5579 11.1306 23.6252 11.1306C23.715 11.1306 23.8497 11.1754 23.9394 11.1306C24.1415 11.0408 24.2761 10.7042 24.3884 10.7042C24.5679 10.6817 24.5679 10.7939 24.7475 10.8388C24.972 10.9061 24.9944 10.951 25.1964 10.9061C25.5556 10.6817 26.0494 10.7715 26.0943 10.7266C26.1167 10.6144 25.9147 10.592 25.8698 10.5022C25.6678 10.2554 25.6678 10.031 25.7351 9.98609C25.9372 9.85145 26.2963 9.89633 26.3861 9.76169Z" fill="#FFED00"/>
<path fill-rule="evenodd" clip-rule="evenodd" d="M26.7229 10.0981C26.8351 10.0981 26.9474 10.2328 26.9474 10.3899C26.9474 10.5694 26.8351 10.704 26.7229 10.704C26.6107 10.704 26.5209 10.5694 26.5209 10.3899C26.5209 10.2328 26.6107 10.0981 26.7229 10.0981Z" stroke="#2B2A29" stroke-width="0.0932"/>
<path fill-rule="evenodd" clip-rule="evenodd" d="M26.7229 10.0981C26.8351 10.0981 26.9474 10.2328 26.9474 10.3899C26.9474 10.5694 26.8351 10.704 26.7229 10.704C26.6107 10.704 26.5209 10.5694 26.5209 10.3899C26.5209 10.2328 26.6107 10.0981 26.7229 10.0981Z" fill="#FFED00"/>
<path fill-rule="evenodd" clip-rule="evenodd" d="M23.626 13.1053C23.626 12.9483 23.3117 12.7912 23.1097 12.5892C22.2118 12.2975 22.0547 11.153 21.7629 11.2428C21.4038 11.3774 21.2691 11.6018 21.3364 11.8711C21.3813 11.9833 22.0772 12.5892 22.5036 13.1053C22.8403 13.1053 23.2893 13.1053 23.626 13.1053Z" stroke="#2B2A29" stroke-width="0.220148"/>
<path fill-rule="evenodd" clip-rule="evenodd" d="M23.626 13.1053C23.626 12.9483 23.3117 12.7912 23.1097 12.5892C22.2118 12.2975 22.0547 11.153 21.7629 11.2428C21.4038 11.3774 21.2691 11.6018 21.3364 11.8711C21.3813 11.9833 22.0772 12.5892 22.5036 13.1053C22.8403 13.1053 23.2893 13.1053 23.626 13.1053Z" fill="#FEFEFE"/>
<path fill-rule="evenodd" clip-rule="evenodd" d="M21.7628 11.2428C21.4037 11.3774 21.269 11.6018 21.3363 11.8711C20.9996 12.477 20.416 12.2301 20.3263 13.1053C20.3263 13.7336 20.3936 13.8683 20.6854 14.2049C20.9996 15.0352 20.865 15.8655 20.6854 16.6733C20.4834 16.4938 20.3038 16.3143 20.1242 16.1348C20.012 16.4265 19.8998 16.7182 19.7876 17.0099C19.5406 16.7182 19.4284 16.4265 19.4509 16.1348C19.5631 15.7757 19.8998 15.3045 19.81 15.0801C19.7427 14.5415 19.2488 14.362 19.0917 13.9132C18.9795 13.5092 18.957 13.2624 19.0693 12.9931C19.2264 12.5892 19.6529 12.5892 19.7202 12.4097C19.6304 11.9608 19.608 11.4896 19.8549 11.1306C20.1242 10.8388 20.2814 10.5247 20.6405 10.6593C21.0221 10.8837 21.3812 11.0184 21.7628 11.2428Z" stroke="#2B2A29" stroke-width="0.220148"/>
<path fill-rule="evenodd" clip-rule="evenodd" d="M21.7628 11.2428C21.4037 11.3774 21.269 11.6018 21.3363 11.8711C20.9996 12.477 20.416 12.2301 20.3263 13.1053C20.3263 13.7336 20.3936 13.8683 20.6854 14.2049C20.9996 15.0352 20.865 15.8655 20.6854 16.6733C20.4834 16.4938 20.3038 16.3143 20.1242 16.1348C20.012 16.4265 19.8998 16.7182 19.7876 17.0099C19.5406 16.7182 19.4284 16.4265 19.4509 16.1348C19.5631 15.7757 19.8998 15.3045 19.81 15.0801C19.7427 14.5415 19.2488 14.362 19.0917 13.9132C18.9795 13.5092 18.957 13.2624 19.0693 12.9931C19.2264 12.5892 19.6529 12.5892 19.7202 12.4097C19.6304 11.9608 19.608 11.4896 19.8549 11.1306C20.1242 10.8388 20.2814 10.5247 20.6405 10.6593C21.0221 10.8837 21.3812 11.0184 21.7628 11.2428Z" fill="#FEFEFE"/>
<path fill-rule="evenodd" clip-rule="evenodd" d="M29.933 13.1053C29.933 12.9483 30.2472 12.7912 30.4492 12.5892C31.3695 12.2975 31.5042 11.153 31.796 11.2428C32.1776 11.3774 32.3123 11.6018 32.2225 11.8711C32.2001 11.9833 31.4818 12.5892 31.0553 13.1053C30.7186 13.1053 30.2697 13.1053 29.933 13.1053Z" stroke="#2B2A29" stroke-width="0.220148"/>
<path fill-rule="evenodd" clip-rule="evenodd" d="M29.933 13.1053C29.933 12.9483 30.2472 12.7912 30.4492 12.5892C31.3695 12.2975 31.5042 11.153 31.796 11.2428C32.1776 11.3774 32.3123 11.6018 32.2225 11.8711C32.2001 11.9833 31.4818 12.5892 31.0553 13.1053C30.7186 13.1053 30.2697 13.1053 29.933 13.1053Z" fill="#FEFEFE"/>
<path fill-rule="evenodd" clip-rule="evenodd" d="M31.7963 11.2428C32.1779 11.3774 32.3125 11.6018 32.2227 11.8711C32.5594 12.477 33.143 12.2301 33.2328 13.1053C33.2328 13.7336 33.1655 13.8683 32.8737 14.2049C32.5819 15.0352 32.7166 15.8655 32.8737 16.6733C33.0757 16.4938 33.2553 16.3143 33.4348 16.1348C33.5471 16.4265 33.6818 16.7182 33.794 17.0099C34.0184 16.7182 34.1307 16.4265 34.1307 16.1348C33.996 15.7757 33.6593 15.3045 33.7715 15.0801C33.8164 14.5415 34.3102 14.362 34.4674 13.9132C34.602 13.5092 34.602 13.2624 34.4898 12.9931C34.3327 12.5892 33.9287 12.5892 33.8389 12.4097C33.9287 11.9608 33.9511 11.4896 33.7042 11.1306C33.4348 10.8388 33.3002 10.5247 32.9186 10.6593C32.5594 10.8837 32.1779 11.0184 31.7963 11.2428Z" stroke="#2B2A29" stroke-width="0.220148"/>
<path fill-rule="evenodd" clip-rule="evenodd" d="M31.7963 11.2428C32.1779 11.3774 32.3125 11.6018 32.2227 11.8711C32.5594 12.477 33.143 12.2301 33.2328 13.1053C33.2328 13.7336 33.1655 13.8683 32.8737 14.2049C32.5819 15.0352 32.7166 15.8655 32.8737 16.6733C33.0757 16.4938 33.2553 16.3143 33.4348 16.1348C33.5471 16.4265 33.6818 16.7182 33.794 17.0099C34.0184 16.7182 34.1307 16.4265 34.1307 16.1348C33.996 15.7757 33.6593 15.3045 33.7715 15.0801C33.8164 14.5415 34.3102 14.362 34.4674 13.9132C34.602 13.5092 34.602 13.2624 34.4898 12.9931C34.3327 12.5892 33.9287 12.5892 33.8389 12.4097C33.9287 11.9608 33.9511 11.4896 33.7042 11.1306C33.4348 10.8388 33.3002 10.5247 32.9186 10.6593C32.5594 10.8837 32.1779 11.0184 31.7963 11.2428Z" fill="#FEFEFE"/>
<path fill-rule="evenodd" clip-rule="evenodd" d="M22.1908 13.1052H31.3938V14.1824H22.1908V13.1052Z" stroke="#2B2A29" stroke-width="0.244644"/>
<path fill-rule="evenodd" clip-rule="evenodd" d="M22.1908 13.1052H31.3938V14.1824H22.1908V13.1052Z" fill="#FEFEFE"/>
<path fill-rule="evenodd" clip-rule="evenodd" d="M23.0189 15.0802H30.6058V14.4294H23.0189V15.0802Z" stroke="#2B2A29" stroke-width="0.244644"/>
<path fill-rule="evenodd" clip-rule="evenodd" d="M23.0189 15.0802H30.6058V14.4294H23.0189V15.0802Z" fill="#FEFEFE"/>
<path fill-rule="evenodd" clip-rule="evenodd" d="M23.3568 15.9104H30.3376V15.3494H23.3568V15.9104Z" stroke="#2B2A29" stroke-width="0.244644"/>
<path fill-rule="evenodd" clip-rule="evenodd" d="M23.3568 15.9104H30.3376V15.3494H23.3568V15.9104Z" fill="#FEFEFE"/>
<path fill-rule="evenodd" clip-rule="evenodd" d="M22.3939 39.4728L23.3591 15.9104H30.3399L31.552 39.4728H22.3939Z" stroke="#2B2A29" stroke-width="0.244644"/>
<path fill-rule="evenodd" clip-rule="evenodd" d="M22.3939 39.4728L23.3591 15.9104H30.3399L31.552 39.4728H22.3939Z" fill="#FEFEFE"/>
<path fill-rule="evenodd" clip-rule="evenodd" d="M23.3568 38.1039C23.5364 31.125 23.716 24.1684 23.8955 17.2119C23.9853 16.9202 24.524 17.01 24.5465 17.2568C24.5016 24.1684 24.4567 31.1025 24.4118 38.0142C24.2996 38.5303 23.4242 38.6201 23.3568 38.1039Z" stroke="#C5C6C6" stroke-width="0.244644"/>
<path fill-rule="evenodd" clip-rule="evenodd" d="M25.3099 38.0143C25.3997 31.1026 25.4671 24.1685 25.5344 17.2569C25.5793 16.853 26.4322 16.9427 26.4322 17.2569C26.4322 24.1685 26.4547 31.0802 26.4547 37.9694C26.3649 38.5977 25.3548 38.6202 25.3099 38.0143Z" stroke="#C5C6C6" stroke-width="0.244644"/>
<path fill-rule="evenodd" clip-rule="evenodd" d="M27.4856 38.059C27.3958 31.1474 27.3284 24.2133 27.2611 17.2792C27.2611 16.9202 28.0467 16.8977 28.0692 17.2792C28.2712 24.1909 28.4508 31.1025 28.6528 38.0142C28.6977 38.7322 27.508 38.5752 27.4856 38.059Z" stroke="#C5C6C6" stroke-width="0.244644"/>
<path fill-rule="evenodd" clip-rule="evenodd" d="M29.6197 38.1038C29.4401 31.1024 29.2381 24.101 29.0585 17.1221C29.0361 16.8303 29.7543 16.8303 29.7543 17.0996C30.0461 24.0562 30.3379 31.0127 30.6073 37.9692C30.5848 38.4853 29.7543 38.5526 29.6197 38.1038Z" stroke="#C5C6C6" stroke-width="0.244644"/>
<path fill-rule="evenodd" clip-rule="evenodd" d="M22.2572 40.1234H31.7071V39.4727H22.2572V40.1234Z" stroke="#2B2A29" stroke-width="0.244644"/>
<path fill-rule="evenodd" clip-rule="evenodd" d="M22.2572 40.1234H31.7071V39.4727H22.2572V40.1234Z" fill="#FEFEFE"/>
<path fill-rule="evenodd" clip-rule="evenodd" d="M21.2455 41.6944C25.1062 41.6944 28.967 41.6944 32.8278 41.6944C32.8278 41.1559 32.6931 40.2134 31.5932 40.1909C28.5181 40.1909 25.4429 40.1909 22.3678 40.1909C21.4699 40.2807 21.2455 41.0212 21.2455 41.6944Z" stroke="#2B2A29" stroke-width="0.244644"/>
<path fill-rule="evenodd" clip-rule="evenodd" d="M21.2455 41.6944C25.1062 41.6944 28.967 41.6944 32.8278 41.6944C32.8278 41.1559 32.6931 40.2134 31.5932 40.1909C28.5181 40.1909 25.4429 40.1909 22.3678 40.1909C21.4699 40.2807 21.2455 41.0212 21.2455 41.6944Z" fill="#FEFEFE"/>
<path fill-rule="evenodd" clip-rule="evenodd" d="M21.2455 44.6565H32.8278V41.6943H21.2455V44.6565Z" stroke="#2B2A29" stroke-width="0.244644"/>
<path fill-rule="evenodd" clip-rule="evenodd" d="M21.2455 44.6565H32.8278V41.6943H21.2455V44.6565Z" fill="#FEFEFE"/>
<path fill-rule="evenodd" clip-rule="evenodd" d="M20.7741 42.3677C24.9716 42.3677 29.1914 42.3677 33.3889 42.3677C33.9949 42.3677 34.0398 43.9161 33.3889 43.9161C29.1914 43.9161 24.9716 43.9161 20.7741 43.9161C20.0783 43.8936 20.1232 42.4126 20.7741 42.3677Z" stroke="#2B2A29" stroke-width="0.244644"/>
<path fill-rule="evenodd" clip-rule="evenodd" d="M20.7741 42.3677C24.9716 42.3677 29.1914 42.3677 33.3889 42.3677C33.9949 42.3677 34.0398 43.9161 33.3889 43.9161C29.1914 43.9161 24.9716 43.9161 20.7741 43.9161C20.0783 43.8936 20.1232 42.4126 20.7741 42.3677Z" fill="#FEFEFE"/>
<path fill-rule="evenodd" clip-rule="evenodd" d="M21.4037 51.6804H32.6268V44.7463H21.4037V51.6804Z" stroke="#2B2A29" stroke-width="0.244644"/>
<path fill-rule="evenodd" clip-rule="evenodd" d="M21.4037 51.6804H32.6268V44.7463H21.4037V51.6804Z" fill="#FEFEFE"/>
<path fill-rule="evenodd" clip-rule="evenodd" d="M23.6264 45.5991C25.9159 45.5991 28.183 45.5991 30.4725 45.5991C30.5848 46.4519 31.0561 46.9455 31.8642 47.0577C31.8642 47.888 31.8642 48.6959 31.8642 49.5262C31.303 49.5486 30.5848 49.7282 30.495 50.7829C28.183 50.7829 25.871 50.7829 23.5591 50.7829C23.4917 49.9526 23.0653 49.5262 22.2572 49.5037C22.2572 48.6735 22.2572 47.8432 22.2572 46.9904C23.1775 46.9007 23.6489 46.4519 23.6264 45.5991Z" stroke="#C5C6C6" stroke-width="0.244644"/>
<path fill-rule="evenodd" clip-rule="evenodd" d="M22.5705 45.6887C22.4134 45.6887 22.2787 45.8009 22.2787 45.958C22.2787 46.1151 22.4134 46.2497 22.5705 46.2497C22.7052 46.2497 22.8398 46.1151 22.8398 45.958C22.8398 45.8009 22.7052 45.6887 22.5705 45.6887Z" fill="#C5C6C6"/>
<path fill-rule="evenodd" clip-rule="evenodd" d="M22.5705 50.2217C22.4134 50.2217 22.2787 50.3339 22.2787 50.491C22.2787 50.648 22.4134 50.7827 22.5705 50.7827C22.7052 50.7827 22.8398 50.648 22.8398 50.491C22.8398 50.3339 22.7052 50.2217 22.5705 50.2217Z" fill="#C5C6C6"/>
<path fill-rule="evenodd" clip-rule="evenodd" d="M31.5051 45.6887C31.3479 45.6887 31.2357 45.8009 31.2357 45.958C31.2357 46.1151 31.3479 46.2497 31.5051 46.2497C31.6622 46.2497 31.7744 46.1151 31.7744 45.958C31.7744 45.8009 31.6622 45.6887 31.5051 45.6887Z" fill="#C5C6C6"/>
<path fill-rule="evenodd" clip-rule="evenodd" d="M31.5051 50.2217C31.3479 50.2217 31.2357 50.3339 31.2357 50.491C31.2357 50.648 31.3479 50.7827 31.5051 50.7827C31.6622 50.7827 31.7744 50.648 31.7744 50.491C31.7744 50.3339 31.6622 50.2217 31.5051 50.2217Z" fill="#C5C6C6"/>
<path fill-rule="evenodd" clip-rule="evenodd" d="M20.9564 52.3311H33.055V51.8149H20.9564V52.3311Z" stroke="#2B2A29" stroke-width="0.244644"/>
<path fill-rule="evenodd" clip-rule="evenodd" d="M20.9564 52.3311H33.055V51.8149H20.9564V52.3311Z" fill="#FEFEFE"/>
<path fill-rule="evenodd" clip-rule="evenodd" d="M19.7213 53.7674C24.5696 53.7674 29.418 53.7674 34.2664 53.7674C34.2664 53.2513 34.0644 52.578 33.4584 52.4883C29.1487 52.4883 24.8614 52.4883 20.5518 52.4883C20.1253 52.5107 19.6764 53.1391 19.7213 53.7674Z" stroke="#2B2A29" stroke-width="0.244644"/>
<path fill-rule="evenodd" clip-rule="evenodd" d="M19.7213 53.7674C24.5696 53.7674 29.418 53.7674 34.2664 53.7674C34.2664 53.2513 34.0644 52.578 33.4584 52.4883C29.1487 52.4883 24.8614 52.4883 20.5518 52.4883C20.1253 52.5107 19.6764 53.1391 19.7213 53.7674Z" fill="#FEFEFE"/>
<path fill-rule="evenodd" clip-rule="evenodd" d="M18.892 54.4407H35.1655V53.9021H18.892V54.4407Z" stroke="#2B2A29" stroke-width="0.244644"/>
<path fill-rule="evenodd" clip-rule="evenodd" d="M18.892 54.4407H35.1655V53.9021H18.892V54.4407Z" fill="#FEFEFE"/>
<path fill-rule="evenodd" clip-rule="evenodd" d="M18.0365 56.1013H35.9711V54.7324H18.0365V56.1013Z" stroke="#2B2A29" stroke-width="0.244644"/>
<path fill-rule="evenodd" clip-rule="evenodd" d="M18.0365 56.1013H35.9711V54.7324H18.0365V56.1013Z" fill="#2B2A29"/>
<path fill-rule="evenodd" clip-rule="evenodd" d="M18.2845 55.8543H35.7253V54.5752H18.2845V55.8543Z" stroke="#2B2A29" stroke-width="0.244644"/>
<path fill-rule="evenodd" clip-rule="evenodd" d="M18.2845 55.8543H35.7253V54.5752H18.2845V55.8543Z" fill="#FEFEFE"/>
</g>
<defs>
<clipPath id="clip0_659_28923">
<rect width="51.2267" height="64" fill="white" transform="translate(0.860718)"/>
</clipPath>
</defs>
</svg>
