<svg width="66" height="66" viewBox="0 0 66 66" fill="none" xmlns="http://www.w3.org/2000/svg">
<path d="M33.0386 56.7284C33.0386 52.1797 38.355 51.6003 38.355 51.6003H50.9001C50.9001 51.6003 55.0721 50.8615 55.0721 45.9652V1H33.0386H10.9761V45.9507C10.9761 50.847 15.1481 51.5858 15.1481 51.5858H27.6932C27.7077 51.6003 33.0386 52.1797 33.0386 56.7284Z" fill="white" stroke="black" stroke-width="0.289724" stroke-miterlimit="10"/>
<path d="M4.12444 10.2712C4.12444 10.2712 4.84875 10.3436 9.96239 7.60571C9.96239 7.60571 7.6301 9.31509 9.32499 16.0657C9.32499 16.0657 11.411 24.8733 8.97732 25.5541C8.97732 25.5541 4.96464 27.5387 4.73286 27.6546C4.73286 27.6546 4.80529 19.2816 4.18238 18.0647C4.12444 18.0647 2.31366 13.1684 4.12444 10.2712Z" fill="#CD201A" stroke="black" stroke-width="0.0507017" stroke-miterlimit="10"/>
<path d="M4.24201 10.2857C4.24201 10.2857 3.24247 11.4301 3.4163 14.4142C3.4163 14.4142 3.44527 16.0656 4.34342 18.5283C4.34342 18.5283 4.63314 20.5853 4.60417 21.5994L5.03875 21.3241C5.03875 21.3241 5.29951 20.9475 4.74903 18.3255C4.74903 18.3255 4.31445 16.9348 3.98126 14.3708C3.98126 14.3708 3.70602 11.8067 4.80697 10.1118L4.24201 10.2857Z" fill="#FCF43A"/>
<path d="M9.78915 7.72168C9.78915 7.72168 7.83351 9.35862 9.1083 15.3124C9.1083 15.3124 10.0644 18.8471 10.1078 22.4976C10.1078 22.4976 10.2672 25.4528 8.64474 25.6121L7.48584 25.6411C7.48584 25.6411 11.4406 26.1771 8.35501 15.3559C8.35501 15.3559 7.08023 10.4161 8.87652 8.19972L9.78915 7.72168Z" fill="#FCF43A"/>
<path d="M1.22688 29.4508L8.90458 25.5395C8.90458 25.5395 7.02137 26.3073 7.47044 23.41C7.47044 23.41 7.99194 20.9763 5.94939 20.8894C5.74658 20.8749 5.48582 20.9329 5.32648 21.0198C3.81991 21.9469 0.603965 24.0474 0.531534 24.1633C0.517048 24.1778 -0.511472 25.8002 1.22688 29.4508Z" fill="#B71515"/>
<path d="M5.03695 21.3965C5.03695 21.3965 6.22482 20.7881 6.84773 21.7442C6.84773 21.7442 7.16643 22.483 6.96362 23.4101C6.96362 23.4101 6.50006 25.4092 8.00663 25.9741L8.673 25.6265C8.673 25.6265 7.02157 26.0466 7.44167 23.3666C7.44167 23.3666 7.80382 21.5848 6.6739 21.0633C6.6739 21.0633 5.67435 20.5273 4.89209 21.2951L5.03695 21.3965Z" fill="#FCF43A"/>
<path d="M5.34143 21.0344C4.90684 23.3522 5.1676 25.6265 6.50033 26.8579C7.83306 28.0892 9.65833 32.8117 8.99196 37.9398C8.3256 43.0824 8.91953 48.1091 9.70179 49.239C10.484 50.369 12.6715 51.8321 14.0187 51.8321H21.1314C21.1314 51.8321 22.8553 52.2667 22.1889 53.4545L21.5225 58.6116H15.9164C15.9164 58.6116 5.39938 58.4668 3.53065 49.862C3.53065 49.862 2.66148 46.2404 3.60308 34.8398C3.60308 34.8398 3.77692 34.0575 1.01005 29.2046C1.01005 29.2046 -0.974564 25.4527 0.908645 23.7723L5.34143 21.0344Z" fill="#CD201A" stroke="black" stroke-width="0.0507017" stroke-miterlimit="10"/>
<path d="M22.3346 53.0054C22.3346 53.0054 22.1463 54.9176 19.0028 53.6283C19.0028 53.6283 17.3224 52.6867 16.4387 54.1208C16.4387 54.1208 15.4536 60.5382 15.5695 61.0452C15.5695 61.0452 19.5388 62.7256 21.3785 61.5377C21.364 61.5233 22.6243 53.9904 22.3346 53.0054Z" fill="#B71515"/>
<path d="M16.4097 54.3962C16.4097 54.3962 17.2644 53.4256 18.9013 54.2803C18.9013 54.2803 22.7691 55.5116 22.3201 53.1504C22.3201 53.1504 21.9869 54.9032 18.9737 53.6719C18.9737 53.6719 17.3368 52.7303 16.4386 54.1644L16.4097 54.3962Z" fill="#FCF43A"/>
<path d="M0.894407 23.7867C0.894407 23.7867 -0.901883 24.9891 0.865437 28.8859C0.865437 28.8859 1.06824 29.2625 1.6332 30.291C2.41546 31.7107 3.24118 33.2317 3.60333 34.7238C3.60333 34.7238 2.98043 41.6627 3.19772 46.3417C3.19772 46.3417 3.22669 49.5142 3.89306 51.1656C3.89306 51.1656 5.77627 57.7858 15.5834 58.5536L15.6993 57.554C15.6993 57.554 3.80614 57.4382 4.13933 46.2693C4.13933 46.2693 3.8496 41.6047 4.44353 35.6509C4.44353 35.6509 5.06644 34.0285 1.60424 28.3499C1.60424 28.3499 0.0831788 25.8872 1.41591 23.4246L0.894407 23.7867Z" fill="#FCF43A"/>
<path d="M5.29837 21.0923C5.29837 21.0923 4.38573 25.0325 6.57315 26.9737C6.57315 26.9737 8.90543 29.4653 9.09376 35.4336C9.09376 35.4336 9.1517 36.7519 8.83301 38.9827C8.83301 38.9827 8.4129 42.7347 8.87646 46.2114C8.87646 46.2114 8.91992 47.7469 9.58629 49.1231C9.58629 49.1231 10.89 51.1222 13.541 51.803L13.8597 51.8465H21.1318C21.1318 51.8465 22.7398 52.2521 22.2038 53.3096C22.2038 53.3096 22.03 53.7297 21.5954 53.918L21.3491 54.0049C21.3491 54.0049 22.7977 53.0344 21.0739 52.6432L13.8308 52.7157C13.8308 52.7157 10.919 52.5273 8.74609 49.5432C8.74609 49.5432 7.44233 48.196 7.97832 38.9972C7.97832 38.9972 9.13721 32.3336 5.96473 27.6545C5.96473 27.6545 3.48759 25.047 4.48714 21.5993L5.29837 21.0923Z" fill="#FCF43A"/>
<path d="M4.42847 10.2422C3.32752 12.2123 3.6607 15.1385 3.89248 15.9932" stroke="#CD201A" stroke-width="0.144862" stroke-miterlimit="10"/>
<path d="M3.89404 15.9932C3.95199 16.196 4.12582 17.4273 4.47349 18.3544" stroke="#CD201A" stroke-width="0.144862" stroke-miterlimit="10"/>
<path d="M4.79282 21.2952C4.82179 20.426 4.77833 19.383 4.47412 18.3545" stroke="#CD201A" stroke-width="0.144862" stroke-miterlimit="10"/>
<path d="M1.01151 28.1183C0.605892 27.1767 -0.161881 25.6846 1.04048 23.729" stroke="#CD201A" stroke-width="0.144862" stroke-miterlimit="10"/>
<path d="M3.9656 34.695C3.60345 32.1889 2.1838 30.4071 1.0249 28.1038" stroke="#CD201A" stroke-width="0.144862" stroke-miterlimit="10"/>
<path d="M3.95068 34.6804C4.02311 35.1005 3.96517 35.3033 3.95068 35.4916" stroke="#CD201A" stroke-width="0.144862" stroke-miterlimit="10"/>
<path d="M3.96464 35.4917C3.54454 40.1852 3.45762 46.2694 3.74734 48.4858" stroke="#CD201A" stroke-width="0.144862" stroke-miterlimit="10"/>
<path d="M3.74756 48.4858C4.24009 51.6583 4.92094 52.8752 7.22425 54.9757" stroke="#CD201A" stroke-width="0.144862" stroke-miterlimit="10"/>
<path d="M7.18115 54.9465C9.00642 56.3517 11.3966 57.9162 15.6411 58.0755" stroke="#CD201A" stroke-width="0.144862" stroke-miterlimit="10"/>
<path d="M16.4819 54.2366C17.1628 53.4833 18.1189 53.5558 18.9156 53.9324" stroke="#CD201A" stroke-width="0.144862" stroke-miterlimit="10"/>
<path d="M18.8862 53.918C20.4942 54.425 21.8704 54.7292 22.305 53.4399" stroke="#CD201A" stroke-width="0.144862" stroke-miterlimit="10"/>
<path d="M21.6541 53.8746C22.4654 53.0778 22.2915 52.4839 21.1616 52.1797" stroke="#CD201A" stroke-width="0.144862" stroke-miterlimit="10"/>
<path d="M21.1616 52.1653C21.1616 52.1653 17.8877 52.1653 13.8315 52.1653" stroke="#CD201A" stroke-width="0.144862" stroke-miterlimit="10"/>
<path d="M9.13818 49.2534C9.93493 50.6586 12.0354 52.0782 13.8317 52.1507" stroke="#CD201A" stroke-width="0.144862" stroke-miterlimit="10"/>
<path d="M8.34103 39.2437C7.93542 45.0381 8.4714 47.9933 9.15226 49.2681" stroke="#CD201A" stroke-width="0.144862" stroke-miterlimit="10"/>
<path d="M8.34022 39.2437C8.9921 35.5063 8.70237 31.7978 7.10889 28.7847" stroke="#CD201A" stroke-width="0.144862" stroke-miterlimit="10"/>
<path d="M7.13839 28.828C6.90661 28.4224 6.63138 27.6981 5.84912 26.8579" stroke="#CD201A" stroke-width="0.144862" stroke-miterlimit="10"/>
<path d="M4.84886 21.4111C4.24044 23.8593 5.10961 26.0612 5.8629 26.8724" stroke="#CD201A" stroke-width="0.144862" stroke-miterlimit="10"/>
<path d="M5.37061 21.1504C6.1094 20.8752 7.07998 21.1939 7.21035 22.2224" stroke="#CD201A" stroke-width="0.144862" stroke-miterlimit="10"/>
<path d="M7.22412 22.1934C7.26758 22.5555 7.31104 22.9177 7.23861 23.2219" stroke="#CD201A" stroke-width="0.144862" stroke-miterlimit="10"/>
<path d="M7.23971 23.1785C6.86307 24.7575 7.48597 25.6991 8.22477 25.8005" stroke="#CD201A" stroke-width="0.144862" stroke-miterlimit="10"/>
<path d="M9.18032 8.06934C7.89105 9.92357 8.13732 13.0091 8.62985 15.0372" stroke="#CD201A" stroke-width="0.144862" stroke-miterlimit="10"/>
<path d="M8.61475 14.9937C9.59981 18.789 9.65775 19.6003 9.83159 21.7008" stroke="#CD201A" stroke-width="0.144862" stroke-miterlimit="10"/>
<path d="M9.83355 21.6863C9.83355 23.8302 9.73215 24.9891 8.44287 25.5396" stroke="#CD201A" stroke-width="0.144862" stroke-miterlimit="10"/>
<path d="M61.7521 18.0792C61.1292 19.296 61.2016 27.669 61.2016 27.669C60.9698 27.5531 56.9571 25.5685 56.9571 25.5685C54.509 24.8877 56.6095 16.0801 56.6095 16.0801C58.2899 9.32949 55.9721 7.62012 55.9721 7.62012C61.0712 10.358 61.81 10.2856 61.81 10.2856C63.5774 13.1683 61.7811 18.0647 61.7521 18.0792Z" fill="#CD201A" stroke="black" stroke-width="0.0507017" stroke-miterlimit="10"/>
<path d="M61.084 10.1118C62.185 11.8067 61.9097 14.3708 61.9097 14.3708C61.591 16.9348 61.142 18.3255 61.142 18.3255C60.5915 20.9475 60.8522 21.3241 60.8522 21.3241L61.2868 21.5994C61.2579 20.5853 61.5476 18.5283 61.5476 18.5283C62.4457 16.0656 62.4747 14.4142 62.4747 14.4142C62.6485 11.4301 61.649 10.2857 61.649 10.2857L61.084 10.1118Z" fill="#FCF43A"/>
<path d="M57.0144 8.19972C58.8107 10.4161 57.5359 15.3559 57.5359 15.3559C54.4504 26.1771 58.4051 25.6411 58.4051 25.6411L57.2462 25.6121C55.6238 25.4383 55.7831 22.4976 55.7831 22.4976C55.841 18.8616 56.7826 15.3124 56.7826 15.3124C58.0574 9.35862 56.1018 7.72168 56.1018 7.72168L57.0144 8.19972Z" fill="#FCF43A"/>
<path d="M65.3589 24.1636C65.2864 24.0477 62.085 21.9472 60.5639 21.02C60.4046 20.9331 60.1438 20.8752 59.941 20.8897C57.8985 20.9766 58.42 23.4103 58.42 23.4103C58.8691 26.3075 56.9858 25.5397 56.9858 25.5397L64.6635 29.451C66.4019 25.8005 65.3589 24.178 65.3589 24.1636Z" fill="#B71515"/>
<path d="M60.9972 21.2951C60.215 20.5273 59.2154 21.0633 59.2154 21.0633C58.071 21.5848 58.4476 23.3666 58.4476 23.3666C58.8677 26.0321 57.2163 25.6265 57.2163 25.6265L57.8827 25.9741C59.3892 25.4092 58.9257 23.4101 58.9257 23.4101C58.7229 22.483 59.0416 21.7442 59.0416 21.7442C59.6645 20.7881 60.8524 21.3965 60.8524 21.3965L60.9972 21.2951Z" fill="#FCF43A"/>
<path d="M65.0099 23.7723C66.8931 25.4382 64.9085 29.2046 64.9085 29.2046C62.1416 34.0575 62.3155 34.8398 62.3155 34.8398C63.2571 46.2259 62.3879 49.862 62.3879 49.862C60.5192 58.4668 50.0022 58.6116 50.0022 58.6116H44.3815L43.7152 53.4545C43.0488 52.2667 44.7727 51.8321 44.7727 51.8321H51.8854C53.2326 51.8321 55.42 50.369 56.2023 49.239C56.999 48.1091 57.593 43.0679 56.9121 37.9398C56.2458 32.8117 58.071 28.0892 59.4038 26.8579C60.7365 25.6265 60.9972 23.3667 60.5626 21.0344L65.0099 23.7723Z" fill="#CD201A" stroke="black" stroke-width="0.0507017" stroke-miterlimit="10"/>
<path d="M44.526 61.5377C46.3512 62.7256 50.3349 61.0452 50.3349 61.0452C50.4508 60.5527 49.4658 54.1208 49.4658 54.1208C48.5821 52.6867 46.9017 53.6283 46.9017 53.6283C43.7582 54.9176 43.5699 53.0054 43.5699 53.0054C43.2657 53.9904 44.5405 61.5233 44.526 61.5377Z" fill="#B71515"/>
<path d="M32.9518 65.0001C39.8617 65.0001 43.0921 64.2758 43.0921 64.2758C47.8146 63.7687 50.3497 61.0743 50.3497 61.0743C50.4511 57.2355 49.4806 54.1499 49.4806 54.1499C49.4806 54.1499 50.4946 56.3808 42.3823 57.7715C42.3823 57.7715 37.3411 58.206 32.9518 58.206C28.5624 58.206 23.5212 57.7715 23.5212 57.7715C15.409 56.3663 16.423 54.1499 16.423 54.1499C16.423 54.1499 15.4524 57.221 15.5538 61.0743C15.5538 61.0743 18.0889 63.7687 22.8114 64.2758C22.8259 64.2758 26.0418 65.0001 32.9518 65.0001Z" fill="#CD201A" stroke="black" stroke-width="0.0507017" stroke-miterlimit="10"/>
<path d="M49.4524 54.1498C48.5542 52.7301 46.9173 53.6572 46.9173 53.6572C43.9041 54.8886 43.571 53.1357 43.571 53.1357C43.1219 55.497 46.9897 54.2657 46.9897 54.2657C48.6266 53.4255 49.4813 54.3816 49.4813 54.3816L49.4524 54.1498Z" fill="#FCF43A"/>
<path d="M32.9373 58.2496C28.3451 58.2496 23.4923 57.815 23.4923 57.815C23.4923 57.815 16.5678 56.7865 16.3505 54.4832L16.1188 55.4682C16.1188 55.4682 15.2931 57.3514 23.4198 58.6986C23.4198 58.6986 27.7657 59.1912 32.9518 59.1767C38.1378 59.1912 42.4837 58.6986 42.4837 58.6986C50.6105 57.3514 49.7848 55.4682 49.7848 55.4682L49.553 54.4832C49.3212 56.7865 42.4113 57.815 42.4113 57.815C42.4113 57.815 37.5294 58.2496 32.9373 58.2496Z" fill="#FCF43A"/>
<path d="M32.9377 64.2612C30.3881 64.3481 26.9404 64.0295 26.9404 64.0295C25.6511 63.957 22.7249 63.3921 22.7249 63.3921C22.7249 63.3921 17.9299 62.7402 15.5687 59.6401L15.5542 61.0453C15.5542 61.0453 18.1472 63.7542 22.7973 64.2323C22.7973 64.2323 23.3768 64.3626 24.4198 64.493C24.4198 64.493 27.9399 64.9566 32.9377 64.9566C37.9354 64.9566 41.4556 64.493 41.4556 64.493C42.4986 64.3482 43.078 64.2323 43.078 64.2323C47.7281 63.7542 50.3211 61.0453 50.3211 61.0453L50.3067 59.6401C47.9599 62.7402 43.1505 63.4065 43.1505 63.4065C43.1505 63.4065 40.2242 63.9715 38.935 64.0439C38.935 64.0294 35.4872 64.3481 32.9377 64.2612Z" fill="#FCF43A"/>
<path d="M64.4743 23.4102C65.8071 25.8728 64.286 28.3355 64.286 28.3355C60.8238 34.0141 61.4467 35.6365 61.4467 35.6365C62.0407 41.6048 61.7509 46.2549 61.7509 46.2549C62.0841 57.4237 50.1909 57.5396 50.1909 57.5396L50.3068 58.5392C60.114 57.7714 61.9972 51.1512 61.9972 51.1512C62.678 49.5143 62.6925 46.3273 62.6925 46.3273C62.9098 41.6338 62.2869 34.7094 62.2869 34.7094C62.6491 33.2173 63.4748 31.7108 64.257 30.2766C64.822 29.2481 65.0248 28.8715 65.0248 28.8715C66.7921 24.9747 64.9958 23.7723 64.9958 23.7723L64.4743 23.4102Z" fill="#FCF43A"/>
<path d="M61.433 21.5849C62.4325 25.0181 59.9554 27.6401 59.9554 27.6401C56.7684 32.3192 57.9418 38.9828 57.9418 38.9828C58.4778 48.1816 57.174 49.5288 57.174 49.5288C55.0156 52.5129 52.0894 52.7013 52.0894 52.7013L44.8462 52.6288C43.1224 53.0055 44.571 53.9905 44.571 53.9905L44.3247 53.9036C43.8901 53.7153 43.7163 53.2952 43.7163 53.2952C43.1803 52.2377 44.7883 51.8321 44.7883 51.8321H52.0459L52.3646 51.7886C55.0156 51.1078 56.3193 49.1087 56.3193 49.1087C56.9857 47.7325 57.0292 46.1969 57.0292 46.1969C57.5072 42.7492 57.0726 38.9683 57.0726 38.9683C56.7539 36.723 56.8119 35.4192 56.8119 35.4192C57.0002 29.4654 59.3325 26.9593 59.3325 26.9593C61.5054 25.0326 60.6073 21.0779 60.6073 21.0779L61.433 21.5849Z" fill="#FCF43A"/>
<path d="M61.4761 10.2422C62.577 12.2123 62.2438 15.1385 62.0121 15.9932" stroke="#CD201A" stroke-width="0.144862" stroke-miterlimit="10"/>
<path d="M62.0126 15.9932C61.9546 16.196 61.7808 17.4273 61.4331 18.3544" stroke="#CD201A" stroke-width="0.144862" stroke-miterlimit="10"/>
<path d="M61.1145 21.2952C61.0855 20.426 61.129 19.383 61.4332 18.3545" stroke="#CD201A" stroke-width="0.144862" stroke-miterlimit="10"/>
<path d="M64.88 28.1183C65.2857 27.1767 66.0534 25.6846 64.8511 23.729" stroke="#CD201A" stroke-width="0.144862" stroke-miterlimit="10"/>
<path d="M61.939 34.695C62.3011 32.1889 63.7208 30.4071 64.8797 28.1038" stroke="#CD201A" stroke-width="0.144862" stroke-miterlimit="10"/>
<path d="M61.9551 34.6804C61.8827 35.1005 61.9406 35.3033 61.9551 35.4916" stroke="#CD201A" stroke-width="0.144862" stroke-miterlimit="10"/>
<path d="M61.939 35.4917C62.3591 40.1852 62.446 46.2694 62.1563 48.4858" stroke="#CD201A" stroke-width="0.144862" stroke-miterlimit="10"/>
<path d="M62.1559 48.4858C61.6634 51.6583 60.9825 52.8752 58.6792 54.9757" stroke="#CD201A" stroke-width="0.144862" stroke-miterlimit="10"/>
<path d="M58.7075 54.9468C56.8823 56.3519 54.492 57.9164 50.2476 58.0758" stroke="#CD201A" stroke-width="0.144862" stroke-miterlimit="10"/>
<path d="M50.2777 60.4368C49.2492 61.4218 47.4239 62.9284 44.2515 63.6672" stroke="#CD201A" stroke-width="0.144862" stroke-miterlimit="10"/>
<path d="M44.2666 63.6674C43.4553 63.8413 38.9356 64.7974 32.9383 64.6235C26.9265 64.7974 22.4358 63.8413 21.6101 63.6674H21.6391C18.4666 62.9286 16.6413 61.4221 15.6128 60.437" stroke="#CD201A" stroke-width="0.144862" stroke-miterlimit="10"/>
<path d="M49.6399 55.106C49.2053 56.656 46.6558 57.67 42.3823 58.235" stroke="#CD201A" stroke-width="0.144862" stroke-miterlimit="10"/>
<path d="M49.4234 54.2366C48.7426 53.4833 47.7865 53.5558 46.9897 53.9324" stroke="#CD201A" stroke-width="0.144862" stroke-miterlimit="10"/>
<path d="M47.0042 53.918C45.3962 54.425 44.02 54.7292 43.5854 53.4399" stroke="#CD201A" stroke-width="0.144862" stroke-miterlimit="10"/>
<path d="M42.4125 58.235C41.7316 58.3364 38.2114 58.6985 32.9385 58.6985C27.6655 58.6985 24.1453 58.3509 23.4645 58.235H23.4934C19.2345 57.6555 16.6704 56.656 16.2358 55.106" stroke="#CD201A" stroke-width="0.144862" stroke-miterlimit="10"/>
<path d="M44.2507 53.8746C43.4394 53.0778 43.6133 52.4839 44.7432 52.1797" stroke="#CD201A" stroke-width="0.144862" stroke-miterlimit="10"/>
<path d="M44.7437 52.1653C44.7437 52.1653 48.0175 52.1653 52.0737 52.1653" stroke="#CD201A" stroke-width="0.144862" stroke-miterlimit="10"/>
<path d="M56.7536 49.2534C55.9569 50.6586 53.8564 52.0782 52.0601 52.1507" stroke="#CD201A" stroke-width="0.144862" stroke-miterlimit="10"/>
<path d="M57.551 39.2437C57.9566 45.0381 57.4206 47.9933 56.7397 49.2681" stroke="#CD201A" stroke-width="0.144862" stroke-miterlimit="10"/>
<path d="M57.5489 39.2437C56.897 35.5063 57.1867 31.7978 58.7802 28.7847" stroke="#CD201A" stroke-width="0.144862" stroke-miterlimit="10"/>
<path d="M58.7534 28.828C58.9852 28.4224 59.2604 27.6981 60.0427 26.8579" stroke="#CD201A" stroke-width="0.144862" stroke-miterlimit="10"/>
<path d="M61.0565 21.4111C61.6649 23.8593 60.7958 26.0612 60.0425 26.8724" stroke="#CD201A" stroke-width="0.144862" stroke-miterlimit="10"/>
<path d="M60.519 21.1504C59.7802 20.8752 58.8096 21.1939 58.6792 22.2224" stroke="#CD201A" stroke-width="0.144862" stroke-miterlimit="10"/>
<path d="M58.666 22.1934C58.6226 22.5555 58.5791 22.9177 58.6515 23.2219" stroke="#CD201A" stroke-width="0.144862" stroke-miterlimit="10"/>
<path d="M58.6506 23.1785C59.0272 24.7575 58.4043 25.6991 57.6655 25.8005" stroke="#CD201A" stroke-width="0.144862" stroke-miterlimit="10"/>
<path d="M56.7085 8.06934C57.9978 9.92357 57.7515 13.0091 57.259 15.0372" stroke="#CD201A" stroke-width="0.144862" stroke-miterlimit="10"/>
<path d="M57.275 14.9937C56.2899 18.789 56.2319 19.6003 56.0581 21.7008" stroke="#CD201A" stroke-width="0.144862" stroke-miterlimit="10"/>
<path d="M56.0581 21.6863C56.0581 23.8302 56.1595 24.9891 57.4488 25.5396" stroke="#CD201A" stroke-width="0.144862" stroke-miterlimit="10"/>
<path d="M28.2031 12.5455C28.2031 12.5455 26.0592 12.3717 25.2479 10.7347C25.2479 10.7347 26.7255 11.8936 27.8555 11.6908C27.8555 11.6908 25.5377 8.69217 23.8862 7.44636C23.8862 7.44636 25.9722 8.90946 26.3199 9.14124L25.755 6.07017C25.755 6.07017 24.8278 4.76641 25.2624 3.28882C25.2624 3.28882 25.3783 5.36035 25.8853 5.37483C25.8853 5.37483 26.233 5.201 26.5807 3.5206C26.5807 3.5206 26.5372 5.44726 26.1316 6.01222C26.1316 6.01222 26.5227 6.40335 27.6092 5.14305C27.6092 5.14305 26.9718 6.33092 26.3634 6.76551L26.3923 7.35944C26.3923 7.35944 27.0153 10.3436 28.8115 11.8212C28.8115 11.8212 29.5938 12.4151 31.0859 11.8212C31.0859 11.8212 30.7382 11.4156 30.5789 10.2567C30.5789 10.2567 31.2887 11.3576 31.8392 11.6908C31.8826 11.7198 31.9551 11.7632 31.9985 11.7777C32.5345 11.9516 33.4037 12.0675 34.1715 10.7202C34.1715 10.7202 33.2154 9.31508 33.3023 7.70711C33.3023 7.70711 34.0556 10.1408 34.7799 10.3146C34.7799 10.3146 35.171 10.7058 37.315 7.76505C37.315 7.76505 37.4598 5.91082 36.5327 4.94025C36.5327 4.94025 37.3584 5.89634 37.764 6.60616C37.764 6.60616 38.5173 6.43233 38.1841 3.60752C38.1841 3.60752 38.4449 5.09959 38.6187 5.92531C38.6187 5.92531 39.2271 4.9837 39.5893 3.79584C39.5893 3.79584 39.2561 8.56179 32.0709 13.038C32.1289 13.0091 28.8115 12.6469 28.2031 12.5455Z" fill="black"/>
<path d="M24.4794 15.6021C24.4794 15.6021 24.1317 14.8199 24.4504 14.7619C24.8995 14.6895 26.6958 14.1825 27.2462 13.5161C27.2462 13.5161 28.492 12.2413 29.3757 12.3282C29.3757 12.3282 31.201 12.5021 31.7514 12.9946C31.7514 12.9946 34.1851 12.9511 34.6777 12.6469C34.6777 12.6469 35.1267 12.9946 34.6777 13.5016C34.6777 13.5016 34.0837 14.3853 31.9832 14.5591C31.9832 14.5591 31.8673 17.9778 31.3169 19.4699C30.9402 20.4984 30.5346 23.584 32.9248 24.1055C32.9248 24.1055 36.3436 24.6415 37.7343 24.1055C39.1104 23.5695 45.4699 22.5989 47.0344 26.7565C47.0344 26.7565 47.5704 28.0747 46.0638 27.3504C46.0638 27.3504 45.1947 29.9579 45.8465 31.9425C45.8465 31.9425 45.6727 34.4052 49.3667 35.651C49.3667 35.651 49.2363 40.5473 50.9312 42.3002V42.9231C50.9312 42.9231 49.6564 44.7483 49.9172 45.2988H48.5265C48.5265 45.2988 49.7723 43.1983 50.0331 42.7782C50.0331 42.7782 49.0625 39.4898 48.9321 38.244C48.9321 38.244 48.1064 36.6795 47.2372 36.4188C47.2372 36.4188 43.9054 36.0132 42.2829 34.3183C42.2829 34.3183 42.196 36.6505 40.675 38.4324C40.675 38.4324 40.2693 38.7076 40.081 39.2581L39.9507 43.8502C39.9507 43.8502 38.6324 44.7773 38.6324 45.3278H36.9375C36.9375 45.3278 38.6324 43.1983 38.8062 43.1404C38.8062 43.1404 39.8203 39.0263 39.7768 38.1426C39.7768 38.1426 39.9941 37.0417 39.4291 36.3174C39.4291 36.3174 36.5464 33.7968 36.5029 32.1598C36.5029 32.1598 33.9389 33.3477 31.3748 32.7538C31.3748 32.7538 31.65 33.8547 30.9692 34.6659C30.9692 34.6659 30.6939 36.8534 30.8388 37.2735C30.8388 37.2735 31.708 38.4034 30.8243 39.345L30.7374 43.2273L31.172 43.4011C31.172 43.4011 30.2449 44.7483 30.2014 45.3423H28.8252C28.8252 45.3423 29.5785 43.9806 30.0276 43.7343L29.9117 39.4029C29.9117 39.4029 29.086 38.9828 29.6944 37.5052C29.6944 37.5052 29.7234 36.0132 29.2743 35.5641C29.2743 35.5641 27.0869 33.3767 27.0869 32.0005C27.0869 32.0005 23.5667 32.2033 21.8429 30.7981C21.8429 30.7981 21.8718 30.6678 19.9886 30.7692C19.9886 30.7692 19.1629 32.015 18.2068 32.7103C18.2068 32.7103 17.1059 35.2019 17.2797 36.2884L16.5554 37.2155L15.1792 37.4907C15.1792 37.4907 16.1932 35.5786 16.5554 34.7384C16.5554 34.7384 18.033 30.7112 18.5545 29.9724C18.5545 29.9724 18.8297 28.9584 20.119 28.8715C20.119 28.8715 23.4074 28.5238 23.9579 27.9443C23.9579 27.9443 24.3345 27.5677 24.349 27.0462C24.349 27.0462 23.1756 25.5252 24.8415 22.3672C24.8415 22.3672 26.8406 20.1508 27.8112 17.6302C27.8112 17.6302 27.2752 16.3988 26.5509 16.254C26.5509 16.254 25.7397 16.3264 24.6966 15.8194L24.4794 15.6021Z" fill="#CD201A" stroke="#9B1515" stroke-width="0.144862" stroke-miterlimit="10"/>
<path d="M16.4826 37.143L15.1064 37.4037L14.9761 38.9827L16.8303 37.7804L16.6999 36.8533L16.4826 37.143Z" fill="black"/>
<path d="M28.7677 45.2842H30.1439C30.1439 45.2842 30.3757 45.994 30.3757 46.2113H28.4346C28.4056 46.2113 28.5649 45.516 28.7677 45.2842Z" fill="black"/>
<path d="M36.8793 45.2844C36.8793 45.2844 36.3433 45.7914 36.3433 46.2115H38.4293C38.4293 46.2115 38.4293 45.6756 38.5741 45.2844H36.8793Z" fill="black"/>
<path d="M49.9031 45.2842H48.4979C48.4979 45.2842 47.875 45.7043 47.8315 46.2113H49.932C49.9031 46.2113 49.9465 45.5739 49.9031 45.2842Z" fill="black"/>
<path d="M28.9269 13.5305C28.9269 13.5305 28.5358 13.8202 27.9418 14.1245C27.9418 14.1245 27.8259 14.2114 27.9708 14.3707C27.9708 14.3707 28.5068 14.5301 29.2311 14.3707C29.2456 14.3707 29.5643 13.5885 28.9269 13.5305Z" fill="black"/>
<path d="M36.4722 32.1017C37.3558 31.3919 39.6012 30.7545 40.9194 30.9138" stroke="#9B1515" stroke-width="0.144862" stroke-miterlimit="10"/>
<path d="M40.921 30.5229C40.5733 31.6818 41.2107 33.145 42.2827 34.2894" stroke="#9B1515" stroke-width="0.144862" stroke-miterlimit="10"/>
<path d="M27.0288 31.9426C27.0288 31.5225 27.0723 31.1748 27.1592 30.7837" stroke="#9B1515" stroke-width="0.144862" stroke-miterlimit="10"/>
<path d="M31.3465 32.7102C31.2017 32.1018 31.1727 31.9424 30.9409 31.2471" stroke="#9B1515" stroke-width="0.144862" stroke-miterlimit="10"/>
<path d="M24.6245 29.1467C24.8708 30.6823 25.7834 31.5804 27.0582 31.9426" stroke="#9B1515" stroke-width="0.144862" stroke-miterlimit="10"/>
<path d="M26.521 16.2539C28.2304 16.703 28.8967 16.2539 29.172 15.9932" stroke="#9B1515" stroke-width="0.144862" stroke-miterlimit="10"/>
<path d="M24.5521 29.1611C24.5521 29.1611 23.5236 30.5228 23.4077 31.4644C23.4077 31.4644 24.6101 31.8845 26.6381 31.8845C26.6237 31.8845 24.8418 31.3051 24.5521 29.1611Z" fill="#B71515"/>
<path d="M36.7641 32.9421C36.7641 32.9421 40.2843 31.9715 41.2404 32.9711C41.2404 32.9711 40.6609 31.9425 40.7623 30.9864C40.7623 30.9864 38.5604 30.8126 36.5613 32.1453C36.5468 32.1453 36.5758 32.551 36.7641 32.9421Z" fill="#B71515"/>
<path d="M27.0288 16.4424C27.0288 16.4424 28.434 16.7176 29.2162 16.0513C29.2162 16.0513 28.7672 16.9784 27.84 17.6303C27.8545 17.6303 27.5648 16.8915 27.0288 16.4424Z" fill="#B71515"/>
</svg>
